%TF.GenerationSoftware,KiCad,Pcbnew,5.99.0-unknown-5db75805bd~106~ubuntu20.04.1*%
%TF.CreationDate,2021-01-04T23:22:08+00:00*%
%TF.ProjectId,minidriver,6d696e69-6472-4697-9665-722e6b696361,rev?*%
%TF.SameCoordinates,Original*%
%TF.FileFunction,Copper,L2,Bot*%
%TF.FilePolarity,Positive*%
%FSLAX46Y46*%
G04 Gerber Fmt 4.6, Leading zero omitted, Abs format (unit mm)*
G04 Created by KiCad (PCBNEW 5.99.0-unknown-5db75805bd~106~ubuntu20.04.1) date 2021-01-04 23:22:08*
%MOMM*%
%LPD*%
G01*
G04 APERTURE LIST*
%TA.AperFunction,ComponentPad*%
%ADD10R,1.900000X1.900000*%
%TD*%
%TA.AperFunction,ComponentPad*%
%ADD11C,1.900000*%
%TD*%
%TA.AperFunction,ComponentPad*%
%ADD12C,1.500000*%
%TD*%
%TA.AperFunction,ComponentPad*%
%ADD13O,2.100000X1.400000*%
%TD*%
%TA.AperFunction,ComponentPad*%
%ADD14O,1.400000X2.100000*%
%TD*%
%TA.AperFunction,ViaPad*%
%ADD15C,0.800000*%
%TD*%
%TA.AperFunction,Conductor*%
%ADD16C,0.800000*%
%TD*%
%TA.AperFunction,Conductor*%
%ADD17C,0.500000*%
%TD*%
%TA.AperFunction,Conductor*%
%ADD18C,0.300000*%
%TD*%
G04 APERTURE END LIST*
D10*
%TO.P,J1,1,1*%
%TO.N,/HV+*%
X146000000Y-107040000D03*
D11*
%TO.P,J1,3,3*%
%TO.N,/HV-*%
X146000000Y-101960000D03*
%TD*%
D12*
%TO.P,IC1,1,VIN*%
%TO.N,24v*%
X103000000Y-104460000D03*
%TO.P,IC1,2,GND*%
%TO.N,GND*%
X103000000Y-107000000D03*
%TO.P,IC1,3,VOUT*%
%TO.N,3v3*%
X103000000Y-109540000D03*
%TD*%
D13*
%TO.P,J4,1,1*%
%TO.N,/AN4*%
X146000000Y-128810000D03*
%TO.P,J4,2,2*%
%TO.N,/AN3*%
X146000000Y-126270000D03*
%TO.P,J4,3,3*%
%TO.N,/AN2*%
X146000000Y-123730000D03*
%TO.P,J4,4,4*%
%TO.N,/AN1*%
X146000000Y-121190000D03*
%TD*%
D10*
%TO.P,J2,1,1*%
%TO.N,24v*%
X118810000Y-104000000D03*
D11*
%TO.P,J2,2,2*%
%TO.N,Net-(J2-Pad2)*%
X116270000Y-104000000D03*
%TO.P,J2,3,3*%
%TO.N,Net-(J2-Pad3)*%
X113730000Y-104000000D03*
%TO.P,J2,4,4*%
%TO.N,GND*%
X111190000Y-104000000D03*
%TD*%
D10*
%TO.P,TP4,1,TP*%
%TO.N,GND*%
X122500000Y-107250000D03*
%TD*%
D14*
%TO.P,J5,1,1*%
%TO.N,/K1*%
X111190000Y-146000000D03*
%TO.P,J5,2,2*%
%TO.N,/K2*%
X113730000Y-146000000D03*
%TO.P,J5,3,3*%
%TO.N,/K3*%
X116270000Y-146000000D03*
%TO.P,J5,4,4*%
%TO.N,/K4*%
X118810000Y-146000000D03*
%TD*%
D15*
%TO.N,GND*%
X101500000Y-138500000D03*
%TO.N,/HV-*%
X101500000Y-144000000D03*
%TO.N,GND*%
X113300000Y-112500000D03*
X100900000Y-135000000D03*
X106100000Y-114300000D03*
X100900000Y-133700000D03*
X113500000Y-111400000D03*
X115000000Y-119300000D03*
X123500000Y-103000000D03*
X125000000Y-113500000D03*
X100900000Y-137600000D03*
X117700000Y-130500000D03*
X115000000Y-121600000D03*
%TO.N,3v3*%
X102400000Y-122400000D03*
X124300000Y-119500000D03*
X124300000Y-116600000D03*
X119700000Y-123300000D03*
X114900000Y-123300000D03*
X105200000Y-122400000D03*
%TO.N,/nRST*%
X115250000Y-138500000D03*
X107000000Y-138500000D03*
%TO.N,/~E*%
X115700000Y-117600000D03*
X121400000Y-115500000D03*
%TO.N,/A3*%
X119800000Y-115200000D03*
X116100000Y-114400000D03*
%TO.N,/A2*%
X115100000Y-115300000D03*
X119800000Y-116500000D03*
%TO.N,/HV-*%
X131900000Y-135300000D03*
X104800000Y-144000000D03*
X131900000Y-115300000D03*
X128000000Y-103000000D03*
X131900000Y-145300000D03*
X125200000Y-146500000D03*
X104800000Y-148500000D03*
X125200000Y-142000000D03*
X131900000Y-125300000D03*
%TO.N,/HV+*%
X135500000Y-131500000D03*
X135500000Y-141500000D03*
X135500000Y-111500000D03*
X135500000Y-121500000D03*
%TD*%
D16*
%TO.N,/HV-*%
X104800000Y-144000000D02*
X101500000Y-144000000D01*
D17*
%TO.N,3v3*%
X114900000Y-123300000D02*
X119700000Y-123300000D01*
X124300000Y-119500000D02*
X124300000Y-116600000D01*
X105200000Y-122400000D02*
X102400000Y-122400000D01*
D18*
%TO.N,/nRST*%
X107000000Y-138500000D02*
X115250000Y-138500000D01*
%TO.N,/~E*%
X120200000Y-117500000D02*
X118900000Y-117500000D01*
X115800000Y-117500000D02*
X115700000Y-117600000D01*
X120400000Y-117300000D02*
X120200000Y-117500000D01*
X121400000Y-115500000D02*
X121400000Y-116300000D01*
X118900000Y-117500000D02*
X115800000Y-117500000D01*
X121400000Y-116300000D02*
X120400000Y-117300000D01*
%TO.N,/A3*%
X116900000Y-115200000D02*
X116100000Y-114400000D01*
X119800000Y-115200000D02*
X116900000Y-115200000D01*
%TO.N,/A2*%
X119800000Y-116500000D02*
X116300000Y-116500000D01*
X116300000Y-116500000D02*
X115100000Y-115300000D01*
D16*
%TO.N,/HV-*%
X104800000Y-148500000D02*
X106500000Y-148500000D01*
X131000000Y-103000000D02*
X130500000Y-103500000D01*
X130500000Y-103500000D02*
X130500000Y-115000000D01*
X129000000Y-148500000D02*
X126500000Y-148500000D01*
X129500000Y-103000000D02*
X131000000Y-103000000D01*
X146000000Y-101960000D02*
X132040000Y-101960000D01*
X131900000Y-135300000D02*
X130800000Y-135300000D01*
X126500000Y-143300000D02*
X125200000Y-142000000D01*
X106500000Y-148500000D02*
X106000000Y-148000000D01*
X130500000Y-115000000D02*
X130500000Y-125500000D01*
X131900000Y-145300000D02*
X130700000Y-145300000D01*
X125200000Y-146500000D02*
X126000000Y-146500000D01*
X106000000Y-148000000D02*
X106000000Y-145000000D01*
X132040000Y-101960000D02*
X131000000Y-103000000D01*
X130800000Y-135300000D02*
X130500000Y-135000000D01*
X130500000Y-145500000D02*
X130500000Y-147000000D01*
X129500000Y-103000000D02*
X130000000Y-103000000D01*
X126500000Y-148500000D02*
X126500000Y-147000000D01*
X106000000Y-145000000D02*
X105000000Y-144000000D01*
X130700000Y-125300000D02*
X130500000Y-125500000D01*
X130000000Y-103000000D02*
X130500000Y-103500000D01*
X126500000Y-146000000D02*
X126500000Y-143300000D01*
X131900000Y-115300000D02*
X130800000Y-115300000D01*
X130500000Y-147000000D02*
X129000000Y-148500000D01*
X126500000Y-148500000D02*
X106500000Y-148500000D01*
X131900000Y-125300000D02*
X130700000Y-125300000D01*
X130500000Y-125500000D02*
X130500000Y-135000000D01*
X130700000Y-145300000D02*
X130500000Y-145500000D01*
X126500000Y-147000000D02*
X126500000Y-146000000D01*
X105000000Y-144000000D02*
X104800000Y-144000000D01*
X130500000Y-135000000D02*
X130500000Y-145500000D01*
X130800000Y-115300000D02*
X130500000Y-115000000D01*
X128000000Y-103000000D02*
X129500000Y-103000000D01*
X126000000Y-146500000D02*
X126500000Y-147000000D01*
%TO.N,/HV+*%
X136500000Y-111000000D02*
X136500000Y-121000000D01*
X136500000Y-121000000D02*
X136500000Y-131000000D01*
X136500000Y-140500000D02*
X135500000Y-141500000D01*
X137960000Y-107040000D02*
X136500000Y-108500000D01*
X136000000Y-111500000D02*
X136500000Y-111000000D01*
X136500000Y-108500000D02*
X136500000Y-111000000D01*
X135500000Y-121500000D02*
X136000000Y-121500000D01*
X136500000Y-131000000D02*
X136500000Y-140500000D01*
X135500000Y-131500000D02*
X136000000Y-131500000D01*
X136000000Y-121500000D02*
X136500000Y-121000000D01*
X136000000Y-131500000D02*
X136500000Y-131000000D01*
X135500000Y-111500000D02*
X136000000Y-111500000D01*
X146000000Y-107040000D02*
X137960000Y-107040000D01*
%TD*%
%TA.AperFunction,Conductor*%
%TO.N,GND*%
G36*
X125006061Y-101000597D02*
G01*
X125182935Y-101018018D01*
X125206776Y-101022760D01*
X125370999Y-101072576D01*
X125393457Y-101081879D01*
X125544798Y-101162772D01*
X125565007Y-101176274D01*
X125697671Y-101285149D01*
X125714851Y-101302329D01*
X125823724Y-101434991D01*
X125837228Y-101455202D01*
X125918121Y-101606543D01*
X125927424Y-101629001D01*
X125977240Y-101793224D01*
X125981982Y-101817065D01*
X125999403Y-101993939D01*
X126000000Y-102006093D01*
X126000000Y-137993907D01*
X125999403Y-138006061D01*
X125981982Y-138182935D01*
X125977240Y-138206776D01*
X125927424Y-138370999D01*
X125918121Y-138393457D01*
X125863329Y-138495967D01*
X125837228Y-138544798D01*
X125823726Y-138565007D01*
X125714851Y-138697671D01*
X125697671Y-138714851D01*
X125565009Y-138823724D01*
X125544800Y-138837227D01*
X125456879Y-138884222D01*
X125393457Y-138918121D01*
X125370999Y-138927424D01*
X125206776Y-138977240D01*
X125182935Y-138981982D01*
X125006061Y-138999403D01*
X124993907Y-139000000D01*
X115987356Y-139000000D01*
X115920317Y-138980315D01*
X115874562Y-138927511D01*
X115864618Y-138858353D01*
X115872305Y-138829749D01*
X115874728Y-138823724D01*
X115931461Y-138682597D01*
X115948196Y-138565007D01*
X115954773Y-138518797D01*
X115954773Y-138518791D01*
X115955345Y-138514775D01*
X115955500Y-138500000D01*
X115935135Y-138331715D01*
X115932428Y-138324549D01*
X115877859Y-138180136D01*
X115877858Y-138180134D01*
X115875217Y-138173145D01*
X115870988Y-138166992D01*
X115870986Y-138166988D01*
X115783435Y-138039602D01*
X115779203Y-138033444D01*
X115773624Y-138028473D01*
X115773622Y-138028471D01*
X115658225Y-137925656D01*
X115658221Y-137925653D01*
X115652638Y-137920679D01*
X115646031Y-137917181D01*
X115646027Y-137917178D01*
X115552098Y-137867446D01*
X115502829Y-137841359D01*
X115338423Y-137800063D01*
X115251859Y-137799610D01*
X115176386Y-137799215D01*
X115176385Y-137799215D01*
X115168912Y-137799176D01*
X115161649Y-137800920D01*
X115161646Y-137800920D01*
X115082620Y-137819893D01*
X115004082Y-137838748D01*
X114853450Y-137916495D01*
X114847818Y-137921408D01*
X114736012Y-138018942D01*
X114672553Y-138048178D01*
X114654498Y-138049500D01*
X107594450Y-138049500D01*
X107527411Y-138029815D01*
X107511969Y-138018089D01*
X107402638Y-137920679D01*
X107396031Y-137917181D01*
X107396027Y-137917178D01*
X107302098Y-137867446D01*
X107252829Y-137841359D01*
X107088423Y-137800063D01*
X107001859Y-137799610D01*
X106926386Y-137799215D01*
X106926385Y-137799215D01*
X106918912Y-137799176D01*
X106911649Y-137800920D01*
X106911646Y-137800920D01*
X106832620Y-137819893D01*
X106754082Y-137838748D01*
X106603450Y-137916495D01*
X106597818Y-137921408D01*
X106481347Y-138023011D01*
X106481345Y-138023013D01*
X106475711Y-138027928D01*
X106378240Y-138166615D01*
X106316665Y-138324549D01*
X106294539Y-138492612D01*
X106313140Y-138661102D01*
X106315706Y-138668114D01*
X106315707Y-138668118D01*
X106318298Y-138675198D01*
X106371395Y-138820290D01*
X106372532Y-138821982D01*
X106385001Y-138888372D01*
X106358726Y-138953113D01*
X106301620Y-138993371D01*
X106261620Y-139000000D01*
X102006093Y-139000000D01*
X101993939Y-138999403D01*
X101817065Y-138981982D01*
X101793224Y-138977240D01*
X101629001Y-138927424D01*
X101606543Y-138918121D01*
X101543121Y-138884222D01*
X101455200Y-138837227D01*
X101434991Y-138823724D01*
X101302329Y-138714851D01*
X101285149Y-138697671D01*
X101176274Y-138565007D01*
X101162772Y-138544798D01*
X101136672Y-138495967D01*
X101081879Y-138393457D01*
X101072576Y-138370999D01*
X101022760Y-138206776D01*
X101018018Y-138182935D01*
X101000597Y-138006061D01*
X101000000Y-137993907D01*
X101000000Y-123292612D01*
X114194539Y-123292612D01*
X114213140Y-123461102D01*
X114215706Y-123468114D01*
X114215707Y-123468118D01*
X114218298Y-123475198D01*
X114271395Y-123620290D01*
X114275562Y-123626491D01*
X114275564Y-123626495D01*
X114361769Y-123754782D01*
X114361772Y-123754786D01*
X114365940Y-123760988D01*
X114491317Y-123875073D01*
X114640288Y-123955957D01*
X114647516Y-123957853D01*
X114647518Y-123957854D01*
X114797018Y-123997075D01*
X114804253Y-123998973D01*
X114900271Y-124000481D01*
X114966275Y-124001518D01*
X114966278Y-124001518D01*
X114973745Y-124001635D01*
X115138980Y-123963791D01*
X115290418Y-123887626D01*
X115296099Y-123882774D01*
X115296102Y-123882772D01*
X115299101Y-123880210D01*
X115301731Y-123879031D01*
X115302331Y-123878633D01*
X115302397Y-123878733D01*
X115362863Y-123851639D01*
X115379633Y-123850500D01*
X119218716Y-123850500D01*
X119288942Y-123872912D01*
X119291317Y-123875073D01*
X119440288Y-123955957D01*
X119447516Y-123957853D01*
X119447518Y-123957854D01*
X119597018Y-123997075D01*
X119604253Y-123998973D01*
X119700271Y-124000481D01*
X119766275Y-124001518D01*
X119766278Y-124001518D01*
X119773745Y-124001635D01*
X119938980Y-123963791D01*
X120090418Y-123887626D01*
X120096099Y-123882774D01*
X120096102Y-123882772D01*
X120213634Y-123782389D01*
X120219316Y-123777536D01*
X120235667Y-123754782D01*
X120313871Y-123645949D01*
X120313872Y-123645948D01*
X120318234Y-123639877D01*
X120381461Y-123482597D01*
X120405345Y-123314775D01*
X120405500Y-123300000D01*
X120385135Y-123131715D01*
X120382428Y-123124549D01*
X120327859Y-122980136D01*
X120327858Y-122980134D01*
X120325217Y-122973145D01*
X120320988Y-122966992D01*
X120320986Y-122966988D01*
X120233435Y-122839602D01*
X120229203Y-122833444D01*
X120223624Y-122828473D01*
X120223622Y-122828471D01*
X120108225Y-122725656D01*
X120108221Y-122725653D01*
X120102638Y-122720679D01*
X120096031Y-122717181D01*
X120096027Y-122717178D01*
X120002098Y-122667446D01*
X119952829Y-122641359D01*
X119788423Y-122600063D01*
X119701859Y-122599610D01*
X119626386Y-122599215D01*
X119626385Y-122599215D01*
X119618912Y-122599176D01*
X119611649Y-122600920D01*
X119611646Y-122600920D01*
X119532620Y-122619893D01*
X119454082Y-122638748D01*
X119447441Y-122642176D01*
X119447440Y-122642176D01*
X119310087Y-122713069D01*
X119310085Y-122713071D01*
X119303450Y-122716495D01*
X119297822Y-122721404D01*
X119291634Y-122725610D01*
X119290331Y-122723693D01*
X119237190Y-122748178D01*
X119219130Y-122749500D01*
X115381392Y-122749500D01*
X115310625Y-122727323D01*
X115308216Y-122725649D01*
X115302638Y-122720679D01*
X115152829Y-122641359D01*
X114988423Y-122600063D01*
X114901859Y-122599610D01*
X114826386Y-122599215D01*
X114826385Y-122599215D01*
X114818912Y-122599176D01*
X114811649Y-122600920D01*
X114811646Y-122600920D01*
X114732620Y-122619893D01*
X114654082Y-122638748D01*
X114503450Y-122716495D01*
X114497818Y-122721408D01*
X114381347Y-122823011D01*
X114381345Y-122823013D01*
X114375711Y-122827928D01*
X114278240Y-122966615D01*
X114275528Y-122973572D01*
X114275526Y-122973575D01*
X114230393Y-123089337D01*
X114216665Y-123124549D01*
X114194539Y-123292612D01*
X101000000Y-123292612D01*
X101000000Y-122392612D01*
X101694539Y-122392612D01*
X101713140Y-122561102D01*
X101715706Y-122568114D01*
X101715707Y-122568118D01*
X101742510Y-122641359D01*
X101771395Y-122720290D01*
X101775562Y-122726491D01*
X101775564Y-122726495D01*
X101861769Y-122854782D01*
X101861772Y-122854786D01*
X101865940Y-122860988D01*
X101991317Y-122975073D01*
X102140288Y-123055957D01*
X102147516Y-123057853D01*
X102147518Y-123057854D01*
X102297018Y-123097075D01*
X102304253Y-123098973D01*
X102400271Y-123100481D01*
X102466275Y-123101518D01*
X102466278Y-123101518D01*
X102473745Y-123101635D01*
X102638980Y-123063791D01*
X102790418Y-122987626D01*
X102796099Y-122982774D01*
X102796102Y-122982772D01*
X102799101Y-122980210D01*
X102801731Y-122979031D01*
X102802331Y-122978633D01*
X102802397Y-122978733D01*
X102862863Y-122951639D01*
X102879633Y-122950500D01*
X104718716Y-122950500D01*
X104788942Y-122972912D01*
X104791317Y-122975073D01*
X104940288Y-123055957D01*
X104947516Y-123057853D01*
X104947518Y-123057854D01*
X105097018Y-123097075D01*
X105104253Y-123098973D01*
X105200271Y-123100481D01*
X105266275Y-123101518D01*
X105266278Y-123101518D01*
X105273745Y-123101635D01*
X105438980Y-123063791D01*
X105590418Y-122987626D01*
X105596099Y-122982774D01*
X105596102Y-122982772D01*
X105713634Y-122882389D01*
X105719316Y-122877536D01*
X105735667Y-122854782D01*
X105813871Y-122745949D01*
X105813872Y-122745948D01*
X105818234Y-122739877D01*
X105823970Y-122725610D01*
X105878673Y-122589533D01*
X105878674Y-122589531D01*
X105881461Y-122582597D01*
X105905345Y-122414775D01*
X105905500Y-122400000D01*
X105885135Y-122231715D01*
X105882428Y-122224549D01*
X105827859Y-122080136D01*
X105827858Y-122080134D01*
X105825217Y-122073145D01*
X105820988Y-122066992D01*
X105820986Y-122066988D01*
X105733435Y-121939602D01*
X105729203Y-121933444D01*
X105723624Y-121928473D01*
X105723622Y-121928471D01*
X105608225Y-121825656D01*
X105608221Y-121825653D01*
X105602638Y-121820679D01*
X105596031Y-121817181D01*
X105596027Y-121817178D01*
X105502098Y-121767446D01*
X105452829Y-121741359D01*
X105288423Y-121700063D01*
X105201859Y-121699610D01*
X105126386Y-121699215D01*
X105126385Y-121699215D01*
X105118912Y-121699176D01*
X105111649Y-121700920D01*
X105111646Y-121700920D01*
X105032620Y-121719893D01*
X104954082Y-121738748D01*
X104947441Y-121742176D01*
X104947440Y-121742176D01*
X104810087Y-121813069D01*
X104810085Y-121813071D01*
X104803450Y-121816495D01*
X104797822Y-121821404D01*
X104791634Y-121825610D01*
X104790331Y-121823693D01*
X104737190Y-121848178D01*
X104719130Y-121849500D01*
X102881392Y-121849500D01*
X102810625Y-121827323D01*
X102808216Y-121825649D01*
X102802638Y-121820679D01*
X102652829Y-121741359D01*
X102488423Y-121700063D01*
X102401859Y-121699610D01*
X102326386Y-121699215D01*
X102326385Y-121699215D01*
X102318912Y-121699176D01*
X102311649Y-121700920D01*
X102311646Y-121700920D01*
X102232620Y-121719893D01*
X102154082Y-121738748D01*
X102003450Y-121816495D01*
X101997818Y-121821408D01*
X101881347Y-121923011D01*
X101881345Y-121923013D01*
X101875711Y-121927928D01*
X101778240Y-122066615D01*
X101716665Y-122224549D01*
X101694539Y-122392612D01*
X101000000Y-122392612D01*
X101000000Y-115292612D01*
X114394539Y-115292612D01*
X114395359Y-115300040D01*
X114395359Y-115300042D01*
X114405301Y-115390093D01*
X114413140Y-115461102D01*
X114415706Y-115468114D01*
X114415707Y-115468118D01*
X114452140Y-115567674D01*
X114471395Y-115620290D01*
X114475562Y-115626491D01*
X114475564Y-115626495D01*
X114561769Y-115754782D01*
X114561772Y-115754786D01*
X114565940Y-115760988D01*
X114691317Y-115875073D01*
X114840288Y-115955957D01*
X114847516Y-115957853D01*
X114847518Y-115957854D01*
X114954521Y-115985926D01*
X115004253Y-115998973D01*
X115114168Y-116000699D01*
X115180889Y-116021434D01*
X115199901Y-116037003D01*
X115851147Y-116688250D01*
X115884632Y-116749573D01*
X115879648Y-116819265D01*
X115837776Y-116875198D01*
X115772312Y-116899615D01*
X115762817Y-116899929D01*
X115626386Y-116899215D01*
X115626385Y-116899215D01*
X115618912Y-116899176D01*
X115611649Y-116900920D01*
X115611646Y-116900920D01*
X115532620Y-116919893D01*
X115454082Y-116938748D01*
X115447441Y-116942176D01*
X115447440Y-116942176D01*
X115415787Y-116958513D01*
X115303450Y-117016495D01*
X115297818Y-117021408D01*
X115181347Y-117123011D01*
X115181345Y-117123013D01*
X115175711Y-117127928D01*
X115078240Y-117266615D01*
X115016665Y-117424549D01*
X114994539Y-117592612D01*
X115013140Y-117761102D01*
X115015706Y-117768114D01*
X115015707Y-117768118D01*
X115064754Y-117902142D01*
X115071395Y-117920290D01*
X115075562Y-117926491D01*
X115075564Y-117926495D01*
X115161769Y-118054782D01*
X115161772Y-118054786D01*
X115165940Y-118060988D01*
X115291317Y-118175073D01*
X115440288Y-118255957D01*
X115447516Y-118257853D01*
X115447518Y-118257854D01*
X115597018Y-118297075D01*
X115604253Y-118298973D01*
X115700271Y-118300481D01*
X115766275Y-118301518D01*
X115766278Y-118301518D01*
X115773745Y-118301635D01*
X115938980Y-118263791D01*
X116090418Y-118187626D01*
X116096099Y-118182774D01*
X116096102Y-118182772D01*
X116213634Y-118082389D01*
X116219316Y-118077536D01*
X116235667Y-118054782D01*
X116273493Y-118002141D01*
X116328599Y-117959186D01*
X116374191Y-117950500D01*
X120166655Y-117950500D01*
X120181229Y-117951359D01*
X120205102Y-117954185D01*
X120205105Y-117954185D01*
X120214307Y-117955274D01*
X120272003Y-117944737D01*
X120275833Y-117944099D01*
X120296122Y-117941049D01*
X120324770Y-117936742D01*
X120324771Y-117936742D01*
X120333935Y-117935364D01*
X120340446Y-117932237D01*
X120347544Y-117930941D01*
X120355766Y-117926670D01*
X120355769Y-117926669D01*
X120399636Y-117903882D01*
X120403119Y-117902142D01*
X120456029Y-117876735D01*
X120461250Y-117871908D01*
X120461460Y-117871767D01*
X120467736Y-117868507D01*
X120473628Y-117863474D01*
X120511677Y-117825425D01*
X120515187Y-117822050D01*
X120548677Y-117791092D01*
X120555486Y-117784798D01*
X120559057Y-117778649D01*
X120564253Y-117772849D01*
X120742068Y-117595034D01*
X121694967Y-116642136D01*
X121705880Y-116632438D01*
X121724766Y-116617550D01*
X121724768Y-116617547D01*
X121732045Y-116611811D01*
X121745314Y-116592612D01*
X123594539Y-116592612D01*
X123595359Y-116600040D01*
X123595359Y-116600042D01*
X123596986Y-116614775D01*
X123613140Y-116761102D01*
X123615706Y-116768114D01*
X123615707Y-116768118D01*
X123664904Y-116902554D01*
X123671395Y-116920290D01*
X123675562Y-116926491D01*
X123675564Y-116926495D01*
X123728423Y-117005157D01*
X123749501Y-117074317D01*
X123749500Y-119026005D01*
X123726951Y-119097305D01*
X123682537Y-119160500D01*
X123682535Y-119160504D01*
X123678240Y-119166615D01*
X123616665Y-119324549D01*
X123594539Y-119492612D01*
X123613140Y-119661102D01*
X123615706Y-119668114D01*
X123615707Y-119668118D01*
X123618298Y-119675198D01*
X123671395Y-119820290D01*
X123675562Y-119826491D01*
X123675564Y-119826495D01*
X123761769Y-119954782D01*
X123761772Y-119954786D01*
X123765940Y-119960988D01*
X123891317Y-120075073D01*
X124040288Y-120155957D01*
X124047516Y-120157853D01*
X124047518Y-120157854D01*
X124197018Y-120197075D01*
X124204253Y-120198973D01*
X124300271Y-120200481D01*
X124366275Y-120201518D01*
X124366278Y-120201518D01*
X124373745Y-120201635D01*
X124538980Y-120163791D01*
X124690418Y-120087626D01*
X124696099Y-120082774D01*
X124696102Y-120082772D01*
X124813634Y-119982389D01*
X124819316Y-119977536D01*
X124835667Y-119954782D01*
X124913871Y-119845949D01*
X124913872Y-119845948D01*
X124918234Y-119839877D01*
X124981461Y-119682597D01*
X125005345Y-119514775D01*
X125005500Y-119500000D01*
X124985135Y-119331715D01*
X124982428Y-119324549D01*
X124927859Y-119180136D01*
X124927858Y-119180134D01*
X124925217Y-119173145D01*
X124920988Y-119166992D01*
X124920986Y-119166988D01*
X124872308Y-119096162D01*
X124850500Y-119025928D01*
X124850500Y-117074070D01*
X124873800Y-117001713D01*
X124918234Y-116939877D01*
X124923272Y-116927346D01*
X124978673Y-116789533D01*
X124978674Y-116789531D01*
X124981461Y-116782597D01*
X125001451Y-116642136D01*
X125004773Y-116618797D01*
X125004773Y-116618791D01*
X125005345Y-116614775D01*
X125005500Y-116600000D01*
X124993073Y-116497309D01*
X124986033Y-116439135D01*
X124986033Y-116439134D01*
X124985135Y-116431715D01*
X124982428Y-116424549D01*
X124927859Y-116280136D01*
X124927858Y-116280134D01*
X124925217Y-116273145D01*
X124920988Y-116266992D01*
X124920986Y-116266988D01*
X124833435Y-116139602D01*
X124829203Y-116133444D01*
X124823624Y-116128473D01*
X124823622Y-116128471D01*
X124708225Y-116025656D01*
X124708221Y-116025653D01*
X124702638Y-116020679D01*
X124696031Y-116017181D01*
X124696027Y-116017178D01*
X124599405Y-115966020D01*
X124552829Y-115941359D01*
X124388423Y-115900063D01*
X124301859Y-115899610D01*
X124226386Y-115899215D01*
X124226385Y-115899215D01*
X124218912Y-115899176D01*
X124211649Y-115900920D01*
X124211646Y-115900920D01*
X124146773Y-115916495D01*
X124054082Y-115938748D01*
X123903450Y-116016495D01*
X123897818Y-116021408D01*
X123781347Y-116123011D01*
X123781345Y-116123013D01*
X123775711Y-116127928D01*
X123678240Y-116266615D01*
X123675528Y-116273572D01*
X123675526Y-116273575D01*
X123637443Y-116371256D01*
X123616665Y-116424549D01*
X123594539Y-116592612D01*
X121745314Y-116592612D01*
X121765425Y-116563514D01*
X121767674Y-116560367D01*
X121797049Y-116520597D01*
X121802555Y-116513143D01*
X121804947Y-116506331D01*
X121809052Y-116500392D01*
X121811847Y-116491554D01*
X121811851Y-116491546D01*
X121826761Y-116444399D01*
X121827994Y-116440703D01*
X121836113Y-116417583D01*
X121847432Y-116385352D01*
X121847711Y-116378245D01*
X121847758Y-116378001D01*
X121849892Y-116371256D01*
X121850500Y-116363531D01*
X121850500Y-116309685D01*
X121850596Y-116304817D01*
X121852385Y-116259279D01*
X121852749Y-116250016D01*
X121850927Y-116243146D01*
X121850500Y-116235382D01*
X121850500Y-116093475D01*
X121870185Y-116026436D01*
X121893967Y-115999186D01*
X121919316Y-115977536D01*
X121935667Y-115954782D01*
X122013871Y-115845949D01*
X122013872Y-115845948D01*
X122018234Y-115839877D01*
X122044286Y-115775073D01*
X122078673Y-115689533D01*
X122078674Y-115689531D01*
X122081461Y-115682597D01*
X122086049Y-115650360D01*
X122104773Y-115518797D01*
X122104773Y-115518791D01*
X122105345Y-115514775D01*
X122105500Y-115500000D01*
X122098838Y-115444952D01*
X122086033Y-115339135D01*
X122086033Y-115339134D01*
X122085135Y-115331715D01*
X122082428Y-115324549D01*
X122027859Y-115180136D01*
X122027858Y-115180134D01*
X122025217Y-115173145D01*
X122020988Y-115166992D01*
X122020986Y-115166988D01*
X121933435Y-115039602D01*
X121929203Y-115033444D01*
X121923624Y-115028473D01*
X121923622Y-115028471D01*
X121808225Y-114925656D01*
X121808221Y-114925653D01*
X121802638Y-114920679D01*
X121796031Y-114917181D01*
X121796027Y-114917178D01*
X121701234Y-114866988D01*
X121652829Y-114841359D01*
X121488423Y-114800063D01*
X121401859Y-114799610D01*
X121326386Y-114799215D01*
X121326385Y-114799215D01*
X121318912Y-114799176D01*
X121311649Y-114800920D01*
X121311646Y-114800920D01*
X121232620Y-114819893D01*
X121154082Y-114838748D01*
X121003450Y-114916495D01*
X120997818Y-114921408D01*
X120881347Y-115023011D01*
X120881345Y-115023013D01*
X120875711Y-115027928D01*
X120778240Y-115166615D01*
X120775526Y-115173576D01*
X120775525Y-115173578D01*
X120744964Y-115251964D01*
X120702272Y-115307274D01*
X120636455Y-115330723D01*
X120568408Y-115314866D01*
X120519737Y-115264737D01*
X120506039Y-115208092D01*
X120505680Y-115208112D01*
X120505573Y-115206167D01*
X120505441Y-115205621D01*
X120505457Y-115204064D01*
X120505500Y-115200000D01*
X120497267Y-115131964D01*
X120486033Y-115039135D01*
X120486033Y-115039134D01*
X120485135Y-115031715D01*
X120472671Y-114998728D01*
X120427859Y-114880136D01*
X120427858Y-114880134D01*
X120425217Y-114873145D01*
X120420988Y-114866992D01*
X120420986Y-114866988D01*
X120333436Y-114739603D01*
X120329203Y-114733444D01*
X120323624Y-114728473D01*
X120323622Y-114728471D01*
X120208225Y-114625656D01*
X120208221Y-114625653D01*
X120202638Y-114620679D01*
X120196031Y-114617181D01*
X120196027Y-114617178D01*
X120070448Y-114550688D01*
X120052829Y-114541359D01*
X119970626Y-114520711D01*
X119895673Y-114501884D01*
X119895672Y-114501884D01*
X119888423Y-114500063D01*
X119801859Y-114499610D01*
X119726386Y-114499215D01*
X119726385Y-114499215D01*
X119718912Y-114499176D01*
X119711649Y-114500920D01*
X119711646Y-114500920D01*
X119632620Y-114519893D01*
X119554082Y-114538748D01*
X119403450Y-114616495D01*
X119397818Y-114621408D01*
X119286012Y-114718942D01*
X119222553Y-114748178D01*
X119204498Y-114749500D01*
X117137965Y-114749500D01*
X117070926Y-114729815D01*
X117050284Y-114713181D01*
X116841601Y-114504498D01*
X116808116Y-114443175D01*
X116806143Y-114414783D01*
X116805345Y-114414775D01*
X116805457Y-114404065D01*
X116805500Y-114400000D01*
X116785135Y-114231715D01*
X116782428Y-114224549D01*
X116727859Y-114080136D01*
X116727858Y-114080134D01*
X116725217Y-114073145D01*
X116720988Y-114066992D01*
X116720986Y-114066988D01*
X116633435Y-113939602D01*
X116629203Y-113933444D01*
X116623624Y-113928473D01*
X116623622Y-113928471D01*
X116508225Y-113825656D01*
X116508221Y-113825653D01*
X116502638Y-113820679D01*
X116496031Y-113817181D01*
X116496027Y-113817178D01*
X116402098Y-113767446D01*
X116352829Y-113741359D01*
X116188423Y-113700063D01*
X116101859Y-113699610D01*
X116026386Y-113699215D01*
X116026385Y-113699215D01*
X116018912Y-113699176D01*
X116011649Y-113700920D01*
X116011646Y-113700920D01*
X115932620Y-113719893D01*
X115854082Y-113738748D01*
X115703450Y-113816495D01*
X115697818Y-113821408D01*
X115581347Y-113923011D01*
X115581345Y-113923013D01*
X115575711Y-113927928D01*
X115478240Y-114066615D01*
X115416665Y-114224549D01*
X115394539Y-114392612D01*
X115395359Y-114400040D01*
X115395359Y-114400042D01*
X115404396Y-114481894D01*
X115392187Y-114550688D01*
X115344723Y-114601961D01*
X115277073Y-114619434D01*
X115250938Y-114615765D01*
X115195675Y-114601884D01*
X115195670Y-114601883D01*
X115188423Y-114600063D01*
X115101859Y-114599610D01*
X115026386Y-114599215D01*
X115026385Y-114599215D01*
X115018912Y-114599176D01*
X115011649Y-114600920D01*
X115011646Y-114600920D01*
X114946773Y-114616495D01*
X114854082Y-114638748D01*
X114703450Y-114716495D01*
X114697818Y-114721408D01*
X114581347Y-114823011D01*
X114581345Y-114823013D01*
X114575711Y-114827928D01*
X114478240Y-114966615D01*
X114475528Y-114973572D01*
X114475526Y-114973575D01*
X114433721Y-115080803D01*
X114416665Y-115124549D01*
X114394539Y-115292612D01*
X101000000Y-115292612D01*
X101000000Y-109525263D01*
X101944603Y-109525263D01*
X101961840Y-109730538D01*
X102018621Y-109928555D01*
X102112782Y-110111773D01*
X102240737Y-110273212D01*
X102397612Y-110406723D01*
X102577432Y-110507221D01*
X102773347Y-110570878D01*
X102977895Y-110595269D01*
X102983939Y-110594804D01*
X102983940Y-110594804D01*
X103046008Y-110590028D01*
X103183286Y-110579465D01*
X103314281Y-110542890D01*
X103375854Y-110525699D01*
X103375855Y-110525698D01*
X103381695Y-110524068D01*
X103426180Y-110501597D01*
X103560150Y-110433924D01*
X103560155Y-110433921D01*
X103565565Y-110431188D01*
X103570344Y-110427454D01*
X103570349Y-110427451D01*
X103723112Y-110308098D01*
X103727893Y-110304363D01*
X103862496Y-110148424D01*
X103964247Y-109969311D01*
X104029270Y-109773844D01*
X104055088Y-109569471D01*
X104055500Y-109540000D01*
X104035398Y-109334986D01*
X103975858Y-109137780D01*
X103879148Y-108955895D01*
X103875321Y-108951203D01*
X103875318Y-108951198D01*
X103752781Y-108800954D01*
X103748952Y-108796259D01*
X103590228Y-108664951D01*
X103563034Y-108650247D01*
X103414360Y-108569858D01*
X103414354Y-108569855D01*
X103409023Y-108566973D01*
X103399962Y-108564168D01*
X103218030Y-108507851D01*
X103218031Y-108507851D01*
X103212238Y-108506058D01*
X103007369Y-108484526D01*
X103001336Y-108485075D01*
X103001332Y-108485075D01*
X102876966Y-108496394D01*
X102802219Y-108503196D01*
X102796408Y-108504906D01*
X102796404Y-108504907D01*
X102610423Y-108559644D01*
X102604603Y-108561357D01*
X102422047Y-108656795D01*
X102261505Y-108785874D01*
X102257609Y-108790517D01*
X102132990Y-108939032D01*
X102132987Y-108939036D01*
X102129093Y-108943677D01*
X102029853Y-109124194D01*
X101967565Y-109320549D01*
X101944603Y-109525263D01*
X101000000Y-109525263D01*
X101000000Y-104445263D01*
X101944603Y-104445263D01*
X101961840Y-104650538D01*
X102018621Y-104848555D01*
X102112782Y-105031773D01*
X102116550Y-105036527D01*
X102231705Y-105181816D01*
X102240737Y-105193212D01*
X102397612Y-105326723D01*
X102577432Y-105427221D01*
X102773347Y-105490878D01*
X102977895Y-105515269D01*
X102983939Y-105514804D01*
X102983940Y-105514804D01*
X103046008Y-105510028D01*
X103183286Y-105499465D01*
X103314281Y-105462890D01*
X103375854Y-105445699D01*
X103375855Y-105445698D01*
X103381695Y-105444068D01*
X103426180Y-105421597D01*
X103560150Y-105353924D01*
X103560155Y-105353921D01*
X103565565Y-105351188D01*
X103570344Y-105347454D01*
X103570349Y-105347451D01*
X103672367Y-105267745D01*
X103727893Y-105224363D01*
X103839261Y-105095342D01*
X103858531Y-105073018D01*
X103858533Y-105073015D01*
X103862496Y-105068424D01*
X103964247Y-104889311D01*
X104023908Y-104709963D01*
X104027357Y-104699596D01*
X104027358Y-104699592D01*
X104029270Y-104693844D01*
X104038652Y-104619575D01*
X104054653Y-104492916D01*
X104054653Y-104492912D01*
X104055088Y-104489471D01*
X104055500Y-104460000D01*
X104035398Y-104254986D01*
X103982215Y-104078833D01*
X112476977Y-104078833D01*
X112477812Y-104084289D01*
X112477812Y-104084291D01*
X112508785Y-104286695D01*
X112510741Y-104299479D01*
X112583044Y-104510658D01*
X112691600Y-104705696D01*
X112790058Y-104825987D01*
X112825253Y-104868986D01*
X112832980Y-104878427D01*
X112851900Y-104894586D01*
X112998508Y-105019803D01*
X112998512Y-105019806D01*
X113002712Y-105023393D01*
X113007484Y-105026181D01*
X113007486Y-105026183D01*
X113025188Y-105036527D01*
X113195434Y-105136010D01*
X113405053Y-105212720D01*
X113624942Y-105251097D01*
X113756054Y-105250410D01*
X113842629Y-105249957D01*
X113842630Y-105249957D01*
X113848153Y-105249928D01*
X113918010Y-105236981D01*
X114062198Y-105210258D01*
X114062203Y-105210257D01*
X114067629Y-105209251D01*
X114072796Y-105207299D01*
X114072798Y-105207298D01*
X114271270Y-105132301D01*
X114276433Y-105130350D01*
X114281165Y-105127518D01*
X114281169Y-105127516D01*
X114372228Y-105073018D01*
X114467964Y-105015721D01*
X114636170Y-104868986D01*
X114648216Y-104853951D01*
X114772280Y-104699093D01*
X114775733Y-104694783D01*
X114778365Y-104689935D01*
X114778368Y-104689931D01*
X114879605Y-104503474D01*
X114882241Y-104498619D01*
X114883975Y-104493376D01*
X114886169Y-104488306D01*
X114888136Y-104489157D01*
X114922564Y-104439356D01*
X114987060Y-104412486D01*
X115055845Y-104424751D01*
X115107079Y-104472257D01*
X115117881Y-104495580D01*
X115118922Y-104498619D01*
X115123044Y-104510658D01*
X115231600Y-104705696D01*
X115330058Y-104825987D01*
X115365253Y-104868986D01*
X115372980Y-104878427D01*
X115391900Y-104894586D01*
X115538508Y-105019803D01*
X115538512Y-105019806D01*
X115542712Y-105023393D01*
X115547484Y-105026181D01*
X115547486Y-105026183D01*
X115565188Y-105036527D01*
X115735434Y-105136010D01*
X115945053Y-105212720D01*
X116164942Y-105251097D01*
X116296054Y-105250410D01*
X116382629Y-105249957D01*
X116382630Y-105249957D01*
X116388153Y-105249928D01*
X116458010Y-105236981D01*
X116602198Y-105210258D01*
X116602203Y-105210257D01*
X116607629Y-105209251D01*
X116612796Y-105207299D01*
X116612798Y-105207298D01*
X116811270Y-105132301D01*
X116816433Y-105130350D01*
X116821165Y-105127518D01*
X116821169Y-105127516D01*
X116912228Y-105073018D01*
X117007964Y-105015721D01*
X117176170Y-104868986D01*
X117188216Y-104853951D01*
X117312280Y-104699093D01*
X117315733Y-104694783D01*
X117321528Y-104684110D01*
X117370815Y-104634589D01*
X117439053Y-104619575D01*
X117504575Y-104643837D01*
X117546579Y-104699671D01*
X117554500Y-104743280D01*
X117554500Y-104950000D01*
X117555803Y-104978188D01*
X117557765Y-104985083D01*
X117581963Y-105070128D01*
X117586528Y-105086173D01*
X117593452Y-105095342D01*
X117647262Y-105166599D01*
X117647264Y-105166601D01*
X117654186Y-105175767D01*
X117663954Y-105181815D01*
X117663955Y-105181816D01*
X117701914Y-105205319D01*
X117749641Y-105234870D01*
X117760934Y-105236981D01*
X117854370Y-105254448D01*
X117854375Y-105254448D01*
X117860000Y-105255500D01*
X119760000Y-105255500D01*
X119778050Y-105254666D01*
X119781029Y-105254528D01*
X119781030Y-105254528D01*
X119788188Y-105254197D01*
X119848695Y-105236981D01*
X119885121Y-105226617D01*
X119885123Y-105226616D01*
X119896173Y-105223472D01*
X119910411Y-105212720D01*
X119976599Y-105162738D01*
X119976601Y-105162736D01*
X119985767Y-105155814D01*
X120044870Y-105060359D01*
X120052684Y-105018559D01*
X120064448Y-104955630D01*
X120064448Y-104955625D01*
X120065500Y-104950000D01*
X120065500Y-103050000D01*
X120064197Y-103021812D01*
X120040817Y-102939641D01*
X120036617Y-102924879D01*
X120036616Y-102924877D01*
X120033472Y-102913827D01*
X119980882Y-102844186D01*
X119972738Y-102833401D01*
X119972736Y-102833399D01*
X119965814Y-102824233D01*
X119956046Y-102818185D01*
X119956045Y-102818184D01*
X119888767Y-102776528D01*
X119870359Y-102765130D01*
X119830351Y-102757651D01*
X119765630Y-102745552D01*
X119765625Y-102745552D01*
X119760000Y-102744500D01*
X117860000Y-102744500D01*
X117841950Y-102745334D01*
X117838971Y-102745472D01*
X117838970Y-102745472D01*
X117831812Y-102745803D01*
X117797362Y-102755605D01*
X117734879Y-102773383D01*
X117734877Y-102773384D01*
X117723827Y-102776528D01*
X117714658Y-102783452D01*
X117643401Y-102837262D01*
X117643399Y-102837264D01*
X117634233Y-102844186D01*
X117575130Y-102939641D01*
X117573019Y-102950934D01*
X117559306Y-103024293D01*
X117554500Y-103050000D01*
X117554500Y-103259510D01*
X117534815Y-103326549D01*
X117482011Y-103372304D01*
X117412853Y-103382248D01*
X117349297Y-103353223D01*
X117329802Y-103331869D01*
X117223630Y-103184115D01*
X117223629Y-103184114D01*
X117220407Y-103179630D01*
X117060112Y-103024293D01*
X117055532Y-103021215D01*
X117055529Y-103021213D01*
X116879426Y-102902877D01*
X116879423Y-102902876D01*
X116874842Y-102899797D01*
X116670453Y-102810077D01*
X116453407Y-102757969D01*
X116447892Y-102757651D01*
X116236081Y-102745438D01*
X116236080Y-102745438D01*
X116230564Y-102745120D01*
X116127013Y-102757651D01*
X116014451Y-102771272D01*
X116014447Y-102771273D01*
X116008967Y-102771936D01*
X115795621Y-102837569D01*
X115790717Y-102840100D01*
X115790715Y-102840101D01*
X115679359Y-102897576D01*
X115597269Y-102939946D01*
X115420182Y-103075830D01*
X115269957Y-103240926D01*
X115151341Y-103430015D01*
X115149284Y-103435133D01*
X115149282Y-103435136D01*
X115115971Y-103518001D01*
X115072702Y-103572861D01*
X115006642Y-103595619D01*
X114938766Y-103579050D01*
X114888998Y-103525134D01*
X114867301Y-103479644D01*
X114840114Y-103422647D01*
X114813038Y-103365880D01*
X114813037Y-103365878D01*
X114810662Y-103360899D01*
X114680407Y-103179630D01*
X114520112Y-103024293D01*
X114515532Y-103021215D01*
X114515529Y-103021213D01*
X114339426Y-102902877D01*
X114339423Y-102902876D01*
X114334842Y-102899797D01*
X114130453Y-102810077D01*
X113913407Y-102757969D01*
X113907892Y-102757651D01*
X113696081Y-102745438D01*
X113696080Y-102745438D01*
X113690564Y-102745120D01*
X113587013Y-102757651D01*
X113474451Y-102771272D01*
X113474447Y-102771273D01*
X113468967Y-102771936D01*
X113255621Y-102837569D01*
X113250717Y-102840100D01*
X113250715Y-102840101D01*
X113139359Y-102897576D01*
X113057269Y-102939946D01*
X112880182Y-103075830D01*
X112729957Y-103240926D01*
X112611341Y-103430015D01*
X112609284Y-103435133D01*
X112609282Y-103435136D01*
X112549057Y-103584951D01*
X112528085Y-103637121D01*
X112482820Y-103855696D01*
X112482676Y-103861210D01*
X112477321Y-104065708D01*
X112476977Y-104078833D01*
X103982215Y-104078833D01*
X103975858Y-104057780D01*
X103879148Y-103875895D01*
X103875321Y-103871203D01*
X103875318Y-103871198D01*
X103752781Y-103720954D01*
X103748952Y-103716259D01*
X103653291Y-103637121D01*
X103594898Y-103588814D01*
X103594896Y-103588812D01*
X103590228Y-103584951D01*
X103466408Y-103518001D01*
X103414360Y-103489858D01*
X103414354Y-103489855D01*
X103409023Y-103486973D01*
X103399962Y-103484168D01*
X103218030Y-103427851D01*
X103218031Y-103427851D01*
X103212238Y-103426058D01*
X103205407Y-103425340D01*
X103185007Y-103423196D01*
X103007369Y-103404526D01*
X103001336Y-103405075D01*
X103001332Y-103405075D01*
X102876966Y-103416394D01*
X102802219Y-103423196D01*
X102796408Y-103424906D01*
X102796404Y-103424907D01*
X102610423Y-103479644D01*
X102604603Y-103481357D01*
X102422047Y-103576795D01*
X102261505Y-103705874D01*
X102257609Y-103710517D01*
X102132990Y-103859032D01*
X102132987Y-103859036D01*
X102129093Y-103863677D01*
X102029853Y-104044194D01*
X102028019Y-104049976D01*
X102028018Y-104049978D01*
X102020615Y-104073317D01*
X101967565Y-104240549D01*
X101966889Y-104246577D01*
X101946904Y-104424751D01*
X101944603Y-104445263D01*
X101000000Y-104445263D01*
X101000000Y-102006093D01*
X101000597Y-101993939D01*
X101018018Y-101817065D01*
X101022760Y-101793224D01*
X101072576Y-101629001D01*
X101081879Y-101606543D01*
X101162772Y-101455202D01*
X101176276Y-101434991D01*
X101285149Y-101302329D01*
X101302329Y-101285149D01*
X101434993Y-101176274D01*
X101455202Y-101162772D01*
X101606543Y-101081879D01*
X101629001Y-101072576D01*
X101793224Y-101022760D01*
X101817065Y-101018018D01*
X101993939Y-101000597D01*
X102006093Y-101000000D01*
X124993907Y-101000000D01*
X125006061Y-101000597D01*
G37*
%TD.AperFunction*%
%TD*%
M02*
