%TF.GenerationSoftware,KiCad,Pcbnew,5.99.0-unknown-5db75805bd~106~ubuntu20.04.1*%
%TF.CreationDate,2021-01-04T23:22:10+00:00*%
%TF.ProjectId,minidriver,6d696e69-6472-4697-9665-722e6b696361,rev?*%
%TF.SameCoordinates,Original*%
%TF.FileFunction,Profile,NP*%
%FSLAX46Y46*%
G04 Gerber Fmt 4.6, Leading zero omitted, Abs format (unit mm)*
G04 Created by KiCad (PCBNEW 5.99.0-unknown-5db75805bd~106~ubuntu20.04.1) date 2021-01-04 23:22:10*
%MOMM*%
%LPD*%
G01*
G04 APERTURE LIST*
%TA.AperFunction,Profile*%
%ADD10C,0.050000*%
%TD*%
G04 APERTURE END LIST*
D10*
X100000000Y-109000000D02*
G75*
G03*
X99000000Y-108000000I-1000000J0D01*
G01*
X93000000Y-142000000D02*
X99000000Y-142000000D01*
X93000000Y-142000000D02*
G75*
G03*
X92000000Y-143000000I0J-1000000D01*
G01*
X92000000Y-149000000D02*
X92000000Y-143000000D01*
X151000000Y-142000000D02*
X157000000Y-142000000D01*
X158000000Y-101000000D02*
G75*
G03*
X157000000Y-100000000I-1000000J0D01*
G01*
X150000000Y-141000000D02*
X150000000Y-109000000D01*
X151000000Y-142000000D02*
G75*
G02*
X150000000Y-141000000I0J1000000D01*
G01*
X92000000Y-101000000D02*
X92000000Y-107000000D01*
X93000000Y-100000000D02*
G75*
G03*
X92000000Y-101000000I0J-1000000D01*
G01*
X157000000Y-108000000D02*
G75*
G03*
X158000000Y-107000000I0J1000000D01*
G01*
X158000000Y-107000000D02*
X158000000Y-101000000D01*
X158000000Y-143000000D02*
X158000000Y-149000000D01*
X93000000Y-150000000D02*
X157000000Y-150000000D01*
X92000000Y-107000000D02*
G75*
G03*
X93000000Y-108000000I1000000J0D01*
G01*
X157000000Y-100000000D02*
X93000000Y-100000000D01*
X158000000Y-143000000D02*
G75*
G03*
X157000000Y-142000000I-1000000J0D01*
G01*
X92000000Y-149000000D02*
G75*
G03*
X93000000Y-150000000I1000000J0D01*
G01*
X150000000Y-109000000D02*
G75*
G02*
X151000000Y-108000000I1000000J0D01*
G01*
X157000000Y-150000000D02*
G75*
G03*
X158000000Y-149000000I0J1000000D01*
G01*
X93000000Y-108000000D02*
X99000000Y-108000000D01*
X100000000Y-141000000D02*
G75*
G02*
X99000000Y-142000000I-1000000J0D01*
G01*
X151000000Y-108000000D02*
X157000000Y-108000000D01*
X100000000Y-109000000D02*
X100000000Y-141000000D01*
M02*
