%TF.GenerationSoftware,KiCad,Pcbnew,5.99.0-unknown-5db75805bd~106~ubuntu20.04.1*%
%TF.CreationDate,2021-01-04T23:22:09+00:00*%
%TF.ProjectId,minidriver,6d696e69-6472-4697-9665-722e6b696361,rev?*%
%TF.SameCoordinates,Original*%
%TF.FileFunction,Soldermask,Bot*%
%TF.FilePolarity,Negative*%
%FSLAX46Y46*%
G04 Gerber Fmt 4.6, Leading zero omitted, Abs format (unit mm)*
G04 Created by KiCad (PCBNEW 5.99.0-unknown-5db75805bd~106~ubuntu20.04.1) date 2021-01-04 23:22:09*
%MOMM*%
%LPD*%
G01*
G04 APERTURE LIST*
%ADD10R,1.900000X1.900000*%
%ADD11C,1.900000*%
%ADD12C,1.500000*%
%ADD13C,0.600000*%
%ADD14C,6.300000*%
%ADD15O,2.100000X1.400000*%
%ADD16O,1.400000X2.100000*%
G04 APERTURE END LIST*
D10*
%TO.C,J1*%
X146000000Y-107040000D03*
D11*
X146000000Y-101960000D03*
%TD*%
D12*
%TO.C,IC1*%
X103000000Y-104460000D03*
X103000000Y-107000000D03*
X103000000Y-109540000D03*
%TD*%
D13*
%TO.C,X1*%
X94200000Y-147800000D03*
D14*
X96000000Y-146000000D03*
D13*
X98500000Y-146000000D03*
X97800000Y-144200000D03*
X97800000Y-147800000D03*
X96000000Y-148500000D03*
X93500000Y-146000000D03*
X96000000Y-143500000D03*
X94200000Y-144200000D03*
%TD*%
%TO.C,X4*%
X155800000Y-105800000D03*
X154000000Y-106500000D03*
D14*
X154000000Y-104000000D03*
D13*
X155800000Y-102200000D03*
X151500000Y-104000000D03*
X154000000Y-101500000D03*
X152200000Y-102200000D03*
X152200000Y-105800000D03*
X156500000Y-104000000D03*
%TD*%
D15*
%TO.C,J4*%
X146000000Y-128810000D03*
X146000000Y-126270000D03*
X146000000Y-123730000D03*
X146000000Y-121190000D03*
%TD*%
D13*
%TO.C,X3*%
X155800000Y-144200000D03*
X156500000Y-146000000D03*
X151500000Y-146000000D03*
D14*
X154000000Y-146000000D03*
D13*
X154000000Y-143500000D03*
X154000000Y-148500000D03*
X155800000Y-147800000D03*
X152200000Y-147800000D03*
X152200000Y-144200000D03*
%TD*%
D10*
%TO.C,J2*%
X118810000Y-104000000D03*
D11*
X116270000Y-104000000D03*
X113730000Y-104000000D03*
X111190000Y-104000000D03*
%TD*%
D10*
%TO.C,TP4*%
X122500000Y-107250000D03*
%TD*%
D16*
%TO.C,J5*%
X111190000Y-146000000D03*
X113730000Y-146000000D03*
X116270000Y-146000000D03*
X118810000Y-146000000D03*
%TD*%
D13*
%TO.C,X2*%
X96000000Y-101500000D03*
X98500000Y-104000000D03*
D14*
X96000000Y-104000000D03*
D13*
X97800000Y-105800000D03*
X94200000Y-105800000D03*
X93500000Y-104000000D03*
X94200000Y-102200000D03*
X96000000Y-106500000D03*
X97800000Y-102200000D03*
%TD*%
M02*
