M48
; DRILL file {KiCad 5.99.0-unknown-5db75805bd~106~ubuntu20.04.1} date Mon Jan  4 23:22:24 2021
; FORMAT={-:-/ absolute / inch / decimal}
; #@! TF.CreationDate,2021-01-04T23:22:24+00:00
; #@! TF.GenerationSoftware,Kicad,Pcbnew,5.99.0-unknown-5db75805bd~106~ubuntu20.04.1
; #@! TF.FileFunction,NonPlated,1,2,NPTH
FMAT,2
INCH
T1C0.0236
T2C0.1299
%
G90
G05
T1
X3.6811Y-4.0945
X3.6811Y-5.748
X3.7087Y-4.0236
X3.7087Y-4.1654
X3.7087Y-5.6772
X3.7087Y-5.8189
X3.7795Y-3.9961
X3.7795Y-4.1929
X3.7795Y-5.6496
X3.7795Y-5.8465
X3.8504Y-4.0236
X3.8504Y-4.1654
X3.8504Y-5.6772
X3.8504Y-5.8189
X3.878Y-4.0945
X3.878Y-5.748
X5.9646Y-4.0945
X5.9646Y-5.748
X5.9921Y-4.0236
X5.9921Y-4.1654
X5.9921Y-5.6772
X5.9921Y-5.8189
X6.063Y-3.9961
X6.063Y-4.1929
X6.063Y-5.6496
X6.063Y-5.8465
X6.1339Y-4.0236
X6.1339Y-4.1654
X6.1339Y-5.6772
X6.1339Y-5.8189
X6.1614Y-4.0945
X6.1614Y-5.748
T2
X3.7795Y-4.0945
X3.7795Y-5.748
X6.063Y-4.0945
X6.063Y-5.748
T0
M30
