M48
; DRILL file {KiCad 5.99.0-unknown-5db75805bd~106~ubuntu20.04.1} date Mon Jan  4 23:22:24 2021
; FORMAT={-:-/ absolute / inch / decimal}
; #@! TF.CreationDate,2021-01-04T23:22:24+00:00
; #@! TF.GenerationSoftware,Kicad,Pcbnew,5.99.0-unknown-5db75805bd~106~ubuntu20.04.1
; #@! TF.FileFunction,Plated,1,2,PTH
FMAT,2
INCH
T1C0.0157
T2C0.0315
T3C0.0394
%
G90
G05
T1
X3.9724Y-5.2638
X3.9724Y-5.315
X3.9724Y-5.4173
X3.9961Y-5.4528
X3.9961Y-5.6693
X4.0315Y-4.8189
X4.126Y-5.6693
X4.126Y-5.8465
X4.1417Y-4.8189
X4.1772Y-4.5
X4.2126Y-5.4528
X4.4606Y-4.4291
X4.4685Y-4.3858
X4.5236Y-4.8543
X4.5276Y-4.6969
X4.5276Y-4.7874
X4.5315Y-4.5394
X4.5374Y-5.4528
X4.5551Y-4.6299
X4.5709Y-4.5039
X4.6339Y-5.1378
X4.7126Y-4.8543
X4.7165Y-4.5354
X4.7165Y-4.5866
X4.7795Y-4.5472
X4.8622Y-4.0551
X4.8937Y-4.5906
X4.8937Y-4.7047
X4.9213Y-4.4685
X4.9291Y-5.5906
X4.9291Y-5.7677
X5.0394Y-4.0551
X5.1929Y-4.5394
X5.1929Y-4.9331
X5.1929Y-5.3268
X5.1929Y-5.7205
X5.3346Y-4.3898
X5.3346Y-4.7835
X5.3346Y-5.1772
X5.3346Y-5.5709
T2
X4.0551Y-4.1126
X4.0551Y-4.2126
X4.0551Y-4.3126
T3
X4.3776Y-4.0945
X4.3776Y-5.748
X4.4776Y-4.0945
X4.4776Y-5.748
X4.5776Y-4.0945
X4.5776Y-5.748
X4.6776Y-4.0945
X4.6776Y-5.748
X4.8228Y-4.2224
X5.748Y-4.0142
X5.748Y-4.2142
X5.748Y-4.7713
X5.748Y-4.8713
X5.748Y-4.9713
X5.748Y-5.0713
T0
M30
