M48
; DRILL file {KiCad 5.1.4-e60b266~84~ubuntu18.04.1} date Thu 12 Sep 2019 23:07:36 BST
; FORMAT={-:-/ absolute / inch / decimal}
; #@! TF.CreationDate,2019-09-12T23:07:36+01:00
; #@! TF.GenerationSoftware,Kicad,Pcbnew,5.1.4-e60b266~84~ubuntu18.04.1
; #@! TF.FileFunction,NonPlated,1,2,NPTH
FMAT,2
INCH
T1C0.0236
T2C0.1299
%
G90
G05
T1
X1.8701Y-5.5118
X1.8976Y-5.4409
X1.8976Y-5.5827
X1.9685Y-5.4134
X1.9685Y-5.6102
X2.0394Y-5.4409
X2.0394Y-5.5827
X2.0669Y-5.5118
X5.4134Y-1.9685
X5.4409Y-1.8976
X5.4409Y-2.0394
X5.5118Y-1.8701
X5.5118Y-2.0669
X5.5827Y-1.8976
X5.5827Y-2.0394
X5.6102Y-1.9685
X1.8701Y-1.9685
X1.8976Y-1.8976
X1.8976Y-2.0394
X1.9685Y-1.8701
X1.9685Y-2.0669
X2.0394Y-1.8976
X2.0394Y-2.0394
X2.0669Y-1.9685
X5.4134Y-5.5118
X5.4409Y-5.4409
X5.4409Y-5.5827
X5.5118Y-5.4134
X5.5118Y-5.6102
X5.5827Y-5.4409
X5.5827Y-5.5827
X5.6102Y-5.5118
T2
X1.9685Y-5.5118
X5.5118Y-1.9685
X1.9685Y-1.9685
X5.5118Y-5.5118
T0
M30
