M48
; DRILL file {KiCad 5.1.4-e60b266~84~ubuntu18.04.1} date Thu 12 Sep 2019 23:07:36 BST
; FORMAT={-:-/ absolute / inch / decimal}
; #@! TF.CreationDate,2019-09-12T23:07:36+01:00
; #@! TF.GenerationSoftware,Kicad,Pcbnew,5.1.4-e60b266~84~ubuntu18.04.1
; #@! TF.FileFunction,Plated,1,2,PTH
FMAT,2
INCH
T1C0.0394
%
G90
G05
T1
X4.9213Y-5.0681
X4.9213Y-5.1681
X3.3465Y-2.5091
X3.3465Y-2.6091
X2.3516Y-5.1772
X2.4516Y-5.1772
X4.9213Y-2.5091
X4.9213Y-2.6091
X4.1339Y-5.0681
X4.1339Y-5.1681
X2.3622Y-3.7386
X2.3622Y-3.9386
X2.9528Y-5.0681
X2.9528Y-5.1681
X4.5276Y-2.5091
X4.5276Y-2.6091
X3.7402Y-2.5091
X3.7402Y-2.6091
X4.5276Y-5.0681
X4.5276Y-5.1681
X2.9528Y-2.5091
X2.9528Y-2.6091
X4.1339Y-2.5091
X4.1339Y-2.6091
X3.3465Y-5.0681
X3.3465Y-5.1681
X3.7402Y-5.0681
X3.7402Y-5.1681
T0
M30
