G04 #@! TF.GenerationSoftware,KiCad,Pcbnew,5.1.4-e60b266~84~ubuntu18.04.1*
G04 #@! TF.CreationDate,2019-09-12T23:07:35+01:00*
G04 #@! TF.ProjectId,load,6c6f6164-2e6b-4696-9361-645f70636258,rev?*
G04 #@! TF.SameCoordinates,Original*
G04 #@! TF.FileFunction,Soldermask,Bot*
G04 #@! TF.FilePolarity,Negative*
%FSLAX46Y46*%
G04 Gerber Fmt 4.6, Leading zero omitted, Abs format (unit mm)*
G04 Created by KiCad (PCBNEW 5.1.4-e60b266~84~ubuntu18.04.1) date 2019-09-12 23:07:35*
%MOMM*%
%LPD*%
G04 APERTURE LIST*
%ADD10C,0.100000*%
G04 APERTURE END LIST*
D10*
G36*
X140396849Y-136867226D02*
G01*
X140918821Y-136971052D01*
X141492085Y-137208506D01*
X142008008Y-137553235D01*
X142446765Y-137991992D01*
X142791494Y-138507915D01*
X143028948Y-139081179D01*
X143150000Y-139689752D01*
X143150000Y-140310248D01*
X143028948Y-140918821D01*
X142791494Y-141492085D01*
X142446765Y-142008008D01*
X142008008Y-142446765D01*
X141492085Y-142791494D01*
X140918821Y-143028948D01*
X140396849Y-143132774D01*
X140310249Y-143150000D01*
X139689751Y-143150000D01*
X139603151Y-143132774D01*
X139081179Y-143028948D01*
X138507915Y-142791494D01*
X137991992Y-142446765D01*
X137553235Y-142008008D01*
X137208506Y-141492085D01*
X136971052Y-140918821D01*
X136850000Y-140310248D01*
X136850000Y-139689752D01*
X136971052Y-139081179D01*
X137208506Y-138507915D01*
X137553235Y-137991992D01*
X137991992Y-137553235D01*
X138507915Y-137208506D01*
X139081179Y-136971052D01*
X139603151Y-136867226D01*
X139689751Y-136850000D01*
X140310249Y-136850000D01*
X140396849Y-136867226D01*
X140396849Y-136867226D01*
G37*
G36*
X50396849Y-136867226D02*
G01*
X50918821Y-136971052D01*
X51492085Y-137208506D01*
X52008008Y-137553235D01*
X52446765Y-137991992D01*
X52791494Y-138507915D01*
X53028948Y-139081179D01*
X53150000Y-139689752D01*
X53150000Y-140310248D01*
X53028948Y-140918821D01*
X52791494Y-141492085D01*
X52446765Y-142008008D01*
X52008008Y-142446765D01*
X51492085Y-142791494D01*
X50918821Y-143028948D01*
X50396849Y-143132774D01*
X50310249Y-143150000D01*
X49689751Y-143150000D01*
X49603151Y-143132774D01*
X49081179Y-143028948D01*
X48507915Y-142791494D01*
X47991992Y-142446765D01*
X47553235Y-142008008D01*
X47208506Y-141492085D01*
X46971052Y-140918821D01*
X46850000Y-140310248D01*
X46850000Y-139689752D01*
X46971052Y-139081179D01*
X47208506Y-138507915D01*
X47553235Y-137991992D01*
X47991992Y-137553235D01*
X48507915Y-137208506D01*
X49081179Y-136971052D01*
X49603151Y-136867226D01*
X49689751Y-136850000D01*
X50310249Y-136850000D01*
X50396849Y-136867226D01*
X50396849Y-136867226D01*
G37*
G36*
X60690000Y-132460000D02*
G01*
X58770000Y-132460000D01*
X58770000Y-130540000D01*
X60690000Y-130540000D01*
X60690000Y-132460000D01*
X60690000Y-132460000D01*
G37*
G36*
X62457287Y-130558446D02*
G01*
X62550022Y-130576892D01*
X62724731Y-130649259D01*
X62881964Y-130754319D01*
X63015681Y-130888036D01*
X63120741Y-131045269D01*
X63193108Y-131219978D01*
X63230000Y-131405448D01*
X63230000Y-131594552D01*
X63193108Y-131780022D01*
X63120741Y-131954731D01*
X63015681Y-132111964D01*
X62881964Y-132245681D01*
X62724731Y-132350741D01*
X62550022Y-132423108D01*
X62457287Y-132441554D01*
X62364553Y-132460000D01*
X62175447Y-132460000D01*
X62082713Y-132441554D01*
X61989978Y-132423108D01*
X61815269Y-132350741D01*
X61658036Y-132245681D01*
X61524319Y-132111964D01*
X61419259Y-131954731D01*
X61346892Y-131780022D01*
X61310000Y-131594552D01*
X61310000Y-131405448D01*
X61346892Y-131219978D01*
X61419259Y-131045269D01*
X61524319Y-130888036D01*
X61658036Y-130754319D01*
X61815269Y-130649259D01*
X61989978Y-130576892D01*
X62082713Y-130558446D01*
X62175447Y-130540000D01*
X62364553Y-130540000D01*
X62457287Y-130558446D01*
X62457287Y-130558446D01*
G37*
G36*
X95960000Y-132230000D02*
G01*
X94040000Y-132230000D01*
X94040000Y-130310000D01*
X95960000Y-130310000D01*
X95960000Y-132230000D01*
X95960000Y-132230000D01*
G37*
G36*
X75960000Y-132230000D02*
G01*
X74040000Y-132230000D01*
X74040000Y-130310000D01*
X75960000Y-130310000D01*
X75960000Y-132230000D01*
X75960000Y-132230000D01*
G37*
G36*
X105960000Y-132230000D02*
G01*
X104040000Y-132230000D01*
X104040000Y-130310000D01*
X105960000Y-130310000D01*
X105960000Y-132230000D01*
X105960000Y-132230000D01*
G37*
G36*
X125960000Y-132230000D02*
G01*
X124040000Y-132230000D01*
X124040000Y-130310000D01*
X125960000Y-130310000D01*
X125960000Y-132230000D01*
X125960000Y-132230000D01*
G37*
G36*
X115960000Y-132230000D02*
G01*
X114040000Y-132230000D01*
X114040000Y-130310000D01*
X115960000Y-130310000D01*
X115960000Y-132230000D01*
X115960000Y-132230000D01*
G37*
G36*
X85960000Y-132230000D02*
G01*
X84040000Y-132230000D01*
X84040000Y-130310000D01*
X85960000Y-130310000D01*
X85960000Y-132230000D01*
X85960000Y-132230000D01*
G37*
G36*
X105187287Y-127788446D02*
G01*
X105280022Y-127806892D01*
X105454731Y-127879259D01*
X105611964Y-127984319D01*
X105745681Y-128118036D01*
X105850741Y-128275269D01*
X105923108Y-128449978D01*
X105960000Y-128635448D01*
X105960000Y-128824552D01*
X105923108Y-129010022D01*
X105850741Y-129184731D01*
X105745681Y-129341964D01*
X105611964Y-129475681D01*
X105454731Y-129580741D01*
X105280022Y-129653108D01*
X105187287Y-129671554D01*
X105094553Y-129690000D01*
X104905447Y-129690000D01*
X104812713Y-129671554D01*
X104719978Y-129653108D01*
X104545269Y-129580741D01*
X104388036Y-129475681D01*
X104254319Y-129341964D01*
X104149259Y-129184731D01*
X104076892Y-129010022D01*
X104040000Y-128824552D01*
X104040000Y-128635448D01*
X104076892Y-128449978D01*
X104149259Y-128275269D01*
X104254319Y-128118036D01*
X104388036Y-127984319D01*
X104545269Y-127879259D01*
X104719978Y-127806892D01*
X104812713Y-127788446D01*
X104905447Y-127770000D01*
X105094553Y-127770000D01*
X105187287Y-127788446D01*
X105187287Y-127788446D01*
G37*
G36*
X115187287Y-127788446D02*
G01*
X115280022Y-127806892D01*
X115454731Y-127879259D01*
X115611964Y-127984319D01*
X115745681Y-128118036D01*
X115850741Y-128275269D01*
X115923108Y-128449978D01*
X115960000Y-128635448D01*
X115960000Y-128824552D01*
X115923108Y-129010022D01*
X115850741Y-129184731D01*
X115745681Y-129341964D01*
X115611964Y-129475681D01*
X115454731Y-129580741D01*
X115280022Y-129653108D01*
X115187287Y-129671554D01*
X115094553Y-129690000D01*
X114905447Y-129690000D01*
X114812713Y-129671554D01*
X114719978Y-129653108D01*
X114545269Y-129580741D01*
X114388036Y-129475681D01*
X114254319Y-129341964D01*
X114149259Y-129184731D01*
X114076892Y-129010022D01*
X114040000Y-128824552D01*
X114040000Y-128635448D01*
X114076892Y-128449978D01*
X114149259Y-128275269D01*
X114254319Y-128118036D01*
X114388036Y-127984319D01*
X114545269Y-127879259D01*
X114719978Y-127806892D01*
X114812713Y-127788446D01*
X114905447Y-127770000D01*
X115094553Y-127770000D01*
X115187287Y-127788446D01*
X115187287Y-127788446D01*
G37*
G36*
X95187287Y-127788446D02*
G01*
X95280022Y-127806892D01*
X95454731Y-127879259D01*
X95611964Y-127984319D01*
X95745681Y-128118036D01*
X95850741Y-128275269D01*
X95923108Y-128449978D01*
X95960000Y-128635448D01*
X95960000Y-128824552D01*
X95923108Y-129010022D01*
X95850741Y-129184731D01*
X95745681Y-129341964D01*
X95611964Y-129475681D01*
X95454731Y-129580741D01*
X95280022Y-129653108D01*
X95187287Y-129671554D01*
X95094553Y-129690000D01*
X94905447Y-129690000D01*
X94812713Y-129671554D01*
X94719978Y-129653108D01*
X94545269Y-129580741D01*
X94388036Y-129475681D01*
X94254319Y-129341964D01*
X94149259Y-129184731D01*
X94076892Y-129010022D01*
X94040000Y-128824552D01*
X94040000Y-128635448D01*
X94076892Y-128449978D01*
X94149259Y-128275269D01*
X94254319Y-128118036D01*
X94388036Y-127984319D01*
X94545269Y-127879259D01*
X94719978Y-127806892D01*
X94812713Y-127788446D01*
X94905447Y-127770000D01*
X95094553Y-127770000D01*
X95187287Y-127788446D01*
X95187287Y-127788446D01*
G37*
G36*
X85187287Y-127788446D02*
G01*
X85280022Y-127806892D01*
X85454731Y-127879259D01*
X85611964Y-127984319D01*
X85745681Y-128118036D01*
X85850741Y-128275269D01*
X85923108Y-128449978D01*
X85960000Y-128635448D01*
X85960000Y-128824552D01*
X85923108Y-129010022D01*
X85850741Y-129184731D01*
X85745681Y-129341964D01*
X85611964Y-129475681D01*
X85454731Y-129580741D01*
X85280022Y-129653108D01*
X85187287Y-129671554D01*
X85094553Y-129690000D01*
X84905447Y-129690000D01*
X84812713Y-129671554D01*
X84719978Y-129653108D01*
X84545269Y-129580741D01*
X84388036Y-129475681D01*
X84254319Y-129341964D01*
X84149259Y-129184731D01*
X84076892Y-129010022D01*
X84040000Y-128824552D01*
X84040000Y-128635448D01*
X84076892Y-128449978D01*
X84149259Y-128275269D01*
X84254319Y-128118036D01*
X84388036Y-127984319D01*
X84545269Y-127879259D01*
X84719978Y-127806892D01*
X84812713Y-127788446D01*
X84905447Y-127770000D01*
X85094553Y-127770000D01*
X85187287Y-127788446D01*
X85187287Y-127788446D01*
G37*
G36*
X125187287Y-127788446D02*
G01*
X125280022Y-127806892D01*
X125454731Y-127879259D01*
X125611964Y-127984319D01*
X125745681Y-128118036D01*
X125850741Y-128275269D01*
X125923108Y-128449978D01*
X125960000Y-128635448D01*
X125960000Y-128824552D01*
X125923108Y-129010022D01*
X125850741Y-129184731D01*
X125745681Y-129341964D01*
X125611964Y-129475681D01*
X125454731Y-129580741D01*
X125280022Y-129653108D01*
X125187287Y-129671554D01*
X125094553Y-129690000D01*
X124905447Y-129690000D01*
X124812713Y-129671554D01*
X124719978Y-129653108D01*
X124545269Y-129580741D01*
X124388036Y-129475681D01*
X124254319Y-129341964D01*
X124149259Y-129184731D01*
X124076892Y-129010022D01*
X124040000Y-128824552D01*
X124040000Y-128635448D01*
X124076892Y-128449978D01*
X124149259Y-128275269D01*
X124254319Y-128118036D01*
X124388036Y-127984319D01*
X124545269Y-127879259D01*
X124719978Y-127806892D01*
X124812713Y-127788446D01*
X124905447Y-127770000D01*
X125094553Y-127770000D01*
X125187287Y-127788446D01*
X125187287Y-127788446D01*
G37*
G36*
X75187287Y-127788446D02*
G01*
X75280022Y-127806892D01*
X75454731Y-127879259D01*
X75611964Y-127984319D01*
X75745681Y-128118036D01*
X75850741Y-128275269D01*
X75923108Y-128449978D01*
X75960000Y-128635448D01*
X75960000Y-128824552D01*
X75923108Y-129010022D01*
X75850741Y-129184731D01*
X75745681Y-129341964D01*
X75611964Y-129475681D01*
X75454731Y-129580741D01*
X75280022Y-129653108D01*
X75187287Y-129671554D01*
X75094553Y-129690000D01*
X74905447Y-129690000D01*
X74812713Y-129671554D01*
X74719978Y-129653108D01*
X74545269Y-129580741D01*
X74388036Y-129475681D01*
X74254319Y-129341964D01*
X74149259Y-129184731D01*
X74076892Y-129010022D01*
X74040000Y-128824552D01*
X74040000Y-128635448D01*
X74076892Y-128449978D01*
X74149259Y-128275269D01*
X74254319Y-128118036D01*
X74388036Y-127984319D01*
X74545269Y-127879259D01*
X74719978Y-127806892D01*
X74812713Y-127788446D01*
X74905447Y-127770000D01*
X75094553Y-127770000D01*
X75187287Y-127788446D01*
X75187287Y-127788446D01*
G37*
G36*
X60187287Y-99098446D02*
G01*
X60280022Y-99116892D01*
X60454731Y-99189259D01*
X60611964Y-99294319D01*
X60745681Y-99428036D01*
X60850741Y-99585269D01*
X60923108Y-99759978D01*
X60960000Y-99945448D01*
X60960000Y-100134552D01*
X60923108Y-100320022D01*
X60850741Y-100494731D01*
X60745681Y-100651964D01*
X60611964Y-100785681D01*
X60454731Y-100890741D01*
X60280022Y-100963108D01*
X60187287Y-100981554D01*
X60094553Y-101000000D01*
X59905447Y-101000000D01*
X59812713Y-100981554D01*
X59719978Y-100963108D01*
X59545269Y-100890741D01*
X59388036Y-100785681D01*
X59254319Y-100651964D01*
X59149259Y-100494731D01*
X59076892Y-100320022D01*
X59040000Y-100134552D01*
X59040000Y-99945448D01*
X59076892Y-99759978D01*
X59149259Y-99585269D01*
X59254319Y-99428036D01*
X59388036Y-99294319D01*
X59545269Y-99189259D01*
X59719978Y-99116892D01*
X59812713Y-99098446D01*
X59905447Y-99080000D01*
X60094553Y-99080000D01*
X60187287Y-99098446D01*
X60187287Y-99098446D01*
G37*
G36*
X60960000Y-95920000D02*
G01*
X59040000Y-95920000D01*
X59040000Y-94000000D01*
X60960000Y-94000000D01*
X60960000Y-95920000D01*
X60960000Y-95920000D01*
G37*
G36*
X115960000Y-67230000D02*
G01*
X114040000Y-67230000D01*
X114040000Y-65310000D01*
X115960000Y-65310000D01*
X115960000Y-67230000D01*
X115960000Y-67230000D01*
G37*
G36*
X75960000Y-67230000D02*
G01*
X74040000Y-67230000D01*
X74040000Y-65310000D01*
X75960000Y-65310000D01*
X75960000Y-67230000D01*
X75960000Y-67230000D01*
G37*
G36*
X125960000Y-67230000D02*
G01*
X124040000Y-67230000D01*
X124040000Y-65310000D01*
X125960000Y-65310000D01*
X125960000Y-67230000D01*
X125960000Y-67230000D01*
G37*
G36*
X105960000Y-67230000D02*
G01*
X104040000Y-67230000D01*
X104040000Y-65310000D01*
X105960000Y-65310000D01*
X105960000Y-67230000D01*
X105960000Y-67230000D01*
G37*
G36*
X95960000Y-67230000D02*
G01*
X94040000Y-67230000D01*
X94040000Y-65310000D01*
X95960000Y-65310000D01*
X95960000Y-67230000D01*
X95960000Y-67230000D01*
G37*
G36*
X85960000Y-67230000D02*
G01*
X84040000Y-67230000D01*
X84040000Y-65310000D01*
X85960000Y-65310000D01*
X85960000Y-67230000D01*
X85960000Y-67230000D01*
G37*
G36*
X125187287Y-62788446D02*
G01*
X125280022Y-62806892D01*
X125454731Y-62879259D01*
X125611964Y-62984319D01*
X125745681Y-63118036D01*
X125850741Y-63275269D01*
X125923108Y-63449978D01*
X125960000Y-63635448D01*
X125960000Y-63824552D01*
X125923108Y-64010022D01*
X125850741Y-64184731D01*
X125745681Y-64341964D01*
X125611964Y-64475681D01*
X125454731Y-64580741D01*
X125280022Y-64653108D01*
X125187287Y-64671554D01*
X125094553Y-64690000D01*
X124905447Y-64690000D01*
X124812713Y-64671554D01*
X124719978Y-64653108D01*
X124545269Y-64580741D01*
X124388036Y-64475681D01*
X124254319Y-64341964D01*
X124149259Y-64184731D01*
X124076892Y-64010022D01*
X124040000Y-63824552D01*
X124040000Y-63635448D01*
X124076892Y-63449978D01*
X124149259Y-63275269D01*
X124254319Y-63118036D01*
X124388036Y-62984319D01*
X124545269Y-62879259D01*
X124719978Y-62806892D01*
X124812713Y-62788446D01*
X124905447Y-62770000D01*
X125094553Y-62770000D01*
X125187287Y-62788446D01*
X125187287Y-62788446D01*
G37*
G36*
X115187287Y-62788446D02*
G01*
X115280022Y-62806892D01*
X115454731Y-62879259D01*
X115611964Y-62984319D01*
X115745681Y-63118036D01*
X115850741Y-63275269D01*
X115923108Y-63449978D01*
X115960000Y-63635448D01*
X115960000Y-63824552D01*
X115923108Y-64010022D01*
X115850741Y-64184731D01*
X115745681Y-64341964D01*
X115611964Y-64475681D01*
X115454731Y-64580741D01*
X115280022Y-64653108D01*
X115187287Y-64671554D01*
X115094553Y-64690000D01*
X114905447Y-64690000D01*
X114812713Y-64671554D01*
X114719978Y-64653108D01*
X114545269Y-64580741D01*
X114388036Y-64475681D01*
X114254319Y-64341964D01*
X114149259Y-64184731D01*
X114076892Y-64010022D01*
X114040000Y-63824552D01*
X114040000Y-63635448D01*
X114076892Y-63449978D01*
X114149259Y-63275269D01*
X114254319Y-63118036D01*
X114388036Y-62984319D01*
X114545269Y-62879259D01*
X114719978Y-62806892D01*
X114812713Y-62788446D01*
X114905447Y-62770000D01*
X115094553Y-62770000D01*
X115187287Y-62788446D01*
X115187287Y-62788446D01*
G37*
G36*
X75187287Y-62788446D02*
G01*
X75280022Y-62806892D01*
X75454731Y-62879259D01*
X75611964Y-62984319D01*
X75745681Y-63118036D01*
X75850741Y-63275269D01*
X75923108Y-63449978D01*
X75960000Y-63635448D01*
X75960000Y-63824552D01*
X75923108Y-64010022D01*
X75850741Y-64184731D01*
X75745681Y-64341964D01*
X75611964Y-64475681D01*
X75454731Y-64580741D01*
X75280022Y-64653108D01*
X75187287Y-64671554D01*
X75094553Y-64690000D01*
X74905447Y-64690000D01*
X74812713Y-64671554D01*
X74719978Y-64653108D01*
X74545269Y-64580741D01*
X74388036Y-64475681D01*
X74254319Y-64341964D01*
X74149259Y-64184731D01*
X74076892Y-64010022D01*
X74040000Y-63824552D01*
X74040000Y-63635448D01*
X74076892Y-63449978D01*
X74149259Y-63275269D01*
X74254319Y-63118036D01*
X74388036Y-62984319D01*
X74545269Y-62879259D01*
X74719978Y-62806892D01*
X74812713Y-62788446D01*
X74905447Y-62770000D01*
X75094553Y-62770000D01*
X75187287Y-62788446D01*
X75187287Y-62788446D01*
G37*
G36*
X105187287Y-62788446D02*
G01*
X105280022Y-62806892D01*
X105454731Y-62879259D01*
X105611964Y-62984319D01*
X105745681Y-63118036D01*
X105850741Y-63275269D01*
X105923108Y-63449978D01*
X105960000Y-63635448D01*
X105960000Y-63824552D01*
X105923108Y-64010022D01*
X105850741Y-64184731D01*
X105745681Y-64341964D01*
X105611964Y-64475681D01*
X105454731Y-64580741D01*
X105280022Y-64653108D01*
X105187287Y-64671554D01*
X105094553Y-64690000D01*
X104905447Y-64690000D01*
X104812713Y-64671554D01*
X104719978Y-64653108D01*
X104545269Y-64580741D01*
X104388036Y-64475681D01*
X104254319Y-64341964D01*
X104149259Y-64184731D01*
X104076892Y-64010022D01*
X104040000Y-63824552D01*
X104040000Y-63635448D01*
X104076892Y-63449978D01*
X104149259Y-63275269D01*
X104254319Y-63118036D01*
X104388036Y-62984319D01*
X104545269Y-62879259D01*
X104719978Y-62806892D01*
X104812713Y-62788446D01*
X104905447Y-62770000D01*
X105094553Y-62770000D01*
X105187287Y-62788446D01*
X105187287Y-62788446D01*
G37*
G36*
X95187287Y-62788446D02*
G01*
X95280022Y-62806892D01*
X95454731Y-62879259D01*
X95611964Y-62984319D01*
X95745681Y-63118036D01*
X95850741Y-63275269D01*
X95923108Y-63449978D01*
X95960000Y-63635448D01*
X95960000Y-63824552D01*
X95923108Y-64010022D01*
X95850741Y-64184731D01*
X95745681Y-64341964D01*
X95611964Y-64475681D01*
X95454731Y-64580741D01*
X95280022Y-64653108D01*
X95187287Y-64671554D01*
X95094553Y-64690000D01*
X94905447Y-64690000D01*
X94812713Y-64671554D01*
X94719978Y-64653108D01*
X94545269Y-64580741D01*
X94388036Y-64475681D01*
X94254319Y-64341964D01*
X94149259Y-64184731D01*
X94076892Y-64010022D01*
X94040000Y-63824552D01*
X94040000Y-63635448D01*
X94076892Y-63449978D01*
X94149259Y-63275269D01*
X94254319Y-63118036D01*
X94388036Y-62984319D01*
X94545269Y-62879259D01*
X94719978Y-62806892D01*
X94812713Y-62788446D01*
X94905447Y-62770000D01*
X95094553Y-62770000D01*
X95187287Y-62788446D01*
X95187287Y-62788446D01*
G37*
G36*
X85187287Y-62788446D02*
G01*
X85280022Y-62806892D01*
X85454731Y-62879259D01*
X85611964Y-62984319D01*
X85745681Y-63118036D01*
X85850741Y-63275269D01*
X85923108Y-63449978D01*
X85960000Y-63635448D01*
X85960000Y-63824552D01*
X85923108Y-64010022D01*
X85850741Y-64184731D01*
X85745681Y-64341964D01*
X85611964Y-64475681D01*
X85454731Y-64580741D01*
X85280022Y-64653108D01*
X85187287Y-64671554D01*
X85094553Y-64690000D01*
X84905447Y-64690000D01*
X84812713Y-64671554D01*
X84719978Y-64653108D01*
X84545269Y-64580741D01*
X84388036Y-64475681D01*
X84254319Y-64341964D01*
X84149259Y-64184731D01*
X84076892Y-64010022D01*
X84040000Y-63824552D01*
X84040000Y-63635448D01*
X84076892Y-63449978D01*
X84149259Y-63275269D01*
X84254319Y-63118036D01*
X84388036Y-62984319D01*
X84545269Y-62879259D01*
X84719978Y-62806892D01*
X84812713Y-62788446D01*
X84905447Y-62770000D01*
X85094553Y-62770000D01*
X85187287Y-62788446D01*
X85187287Y-62788446D01*
G37*
G36*
X140396849Y-46867226D02*
G01*
X140918821Y-46971052D01*
X141492085Y-47208506D01*
X142008008Y-47553235D01*
X142446765Y-47991992D01*
X142791494Y-48507915D01*
X143028948Y-49081179D01*
X143150000Y-49689752D01*
X143150000Y-50310248D01*
X143028948Y-50918821D01*
X142791494Y-51492085D01*
X142446765Y-52008008D01*
X142008008Y-52446765D01*
X141492085Y-52791494D01*
X140918821Y-53028948D01*
X140396849Y-53132774D01*
X140310249Y-53150000D01*
X139689751Y-53150000D01*
X139603151Y-53132774D01*
X139081179Y-53028948D01*
X138507915Y-52791494D01*
X137991992Y-52446765D01*
X137553235Y-52008008D01*
X137208506Y-51492085D01*
X136971052Y-50918821D01*
X136850000Y-50310248D01*
X136850000Y-49689752D01*
X136971052Y-49081179D01*
X137208506Y-48507915D01*
X137553235Y-47991992D01*
X137991992Y-47553235D01*
X138507915Y-47208506D01*
X139081179Y-46971052D01*
X139603151Y-46867226D01*
X139689751Y-46850000D01*
X140310249Y-46850000D01*
X140396849Y-46867226D01*
X140396849Y-46867226D01*
G37*
G36*
X50396849Y-46867226D02*
G01*
X50918821Y-46971052D01*
X51492085Y-47208506D01*
X52008008Y-47553235D01*
X52446765Y-47991992D01*
X52791494Y-48507915D01*
X53028948Y-49081179D01*
X53150000Y-49689752D01*
X53150000Y-50310248D01*
X53028948Y-50918821D01*
X52791494Y-51492085D01*
X52446765Y-52008008D01*
X52008008Y-52446765D01*
X51492085Y-52791494D01*
X50918821Y-53028948D01*
X50396849Y-53132774D01*
X50310249Y-53150000D01*
X49689751Y-53150000D01*
X49603151Y-53132774D01*
X49081179Y-53028948D01*
X48507915Y-52791494D01*
X47991992Y-52446765D01*
X47553235Y-52008008D01*
X47208506Y-51492085D01*
X46971052Y-50918821D01*
X46850000Y-50310248D01*
X46850000Y-49689752D01*
X46971052Y-49081179D01*
X47208506Y-48507915D01*
X47553235Y-47991992D01*
X47991992Y-47553235D01*
X48507915Y-47208506D01*
X49081179Y-46971052D01*
X49603151Y-46867226D01*
X49689751Y-46850000D01*
X50310249Y-46850000D01*
X50396849Y-46867226D01*
X50396849Y-46867226D01*
G37*
M02*
