G04 #@! TF.GenerationSoftware,KiCad,Pcbnew,5.1.4-e60b266~84~ubuntu18.04.1*
G04 #@! TF.CreationDate,2019-09-12T23:07:35+01:00*
G04 #@! TF.ProjectId,load,6c6f6164-2e6b-4696-9361-645f70636258,rev?*
G04 #@! TF.SameCoordinates,Original*
G04 #@! TF.FileFunction,Copper,L1,Top*
G04 #@! TF.FilePolarity,Positive*
%FSLAX46Y46*%
G04 Gerber Fmt 4.6, Leading zero omitted, Abs format (unit mm)*
G04 Created by KiCad (PCBNEW 5.1.4-e60b266~84~ubuntu18.04.1) date 2019-09-12 23:07:35*
%MOMM*%
%LPD*%
G04 APERTURE LIST*
%ADD10C,1.900000*%
%ADD11R,1.900000X1.900000*%
%ADD12C,0.100000*%
%ADD13C,3.400000*%
%ADD14R,3.400000X1.250000*%
%ADD15C,1.500000*%
G04 APERTURE END LIST*
D10*
X60000000Y-100040000D03*
D11*
X60000000Y-94960000D03*
D12*
G36*
X61583315Y-110804093D02*
G01*
X61665827Y-110816333D01*
X61746742Y-110836601D01*
X61825281Y-110864702D01*
X61900687Y-110900367D01*
X61972235Y-110943251D01*
X62039234Y-110992941D01*
X62101041Y-111048959D01*
X62157059Y-111110766D01*
X62206749Y-111177765D01*
X62249633Y-111249313D01*
X62285298Y-111324719D01*
X62313399Y-111403258D01*
X62333667Y-111484173D01*
X62345907Y-111566685D01*
X62350000Y-111650000D01*
X62350000Y-113350000D01*
X62345907Y-113433315D01*
X62333667Y-113515827D01*
X62313399Y-113596742D01*
X62285298Y-113675281D01*
X62249633Y-113750687D01*
X62206749Y-113822235D01*
X62157059Y-113889234D01*
X62101041Y-113951041D01*
X62039234Y-114007059D01*
X61972235Y-114056749D01*
X61900687Y-114099633D01*
X61825281Y-114135298D01*
X61746742Y-114163399D01*
X61665827Y-114183667D01*
X61583315Y-114195907D01*
X61500000Y-114200000D01*
X58500000Y-114200000D01*
X58416685Y-114195907D01*
X58334173Y-114183667D01*
X58253258Y-114163399D01*
X58174719Y-114135298D01*
X58099313Y-114099633D01*
X58027765Y-114056749D01*
X57960766Y-114007059D01*
X57898959Y-113951041D01*
X57842941Y-113889234D01*
X57793251Y-113822235D01*
X57750367Y-113750687D01*
X57714702Y-113675281D01*
X57686601Y-113596742D01*
X57666333Y-113515827D01*
X57654093Y-113433315D01*
X57650000Y-113350000D01*
X57650000Y-111650000D01*
X57654093Y-111566685D01*
X57666333Y-111484173D01*
X57686601Y-111403258D01*
X57714702Y-111324719D01*
X57750367Y-111249313D01*
X57793251Y-111177765D01*
X57842941Y-111110766D01*
X57898959Y-111048959D01*
X57960766Y-110992941D01*
X58027765Y-110943251D01*
X58099313Y-110900367D01*
X58174719Y-110864702D01*
X58253258Y-110836601D01*
X58334173Y-110816333D01*
X58416685Y-110804093D01*
X58500000Y-110800000D01*
X61500000Y-110800000D01*
X61583315Y-110804093D01*
X61583315Y-110804093D01*
G37*
D13*
X60000000Y-112500000D03*
D12*
G36*
X61583315Y-80804093D02*
G01*
X61665827Y-80816333D01*
X61746742Y-80836601D01*
X61825281Y-80864702D01*
X61900687Y-80900367D01*
X61972235Y-80943251D01*
X62039234Y-80992941D01*
X62101041Y-81048959D01*
X62157059Y-81110766D01*
X62206749Y-81177765D01*
X62249633Y-81249313D01*
X62285298Y-81324719D01*
X62313399Y-81403258D01*
X62333667Y-81484173D01*
X62345907Y-81566685D01*
X62350000Y-81650000D01*
X62350000Y-83350000D01*
X62345907Y-83433315D01*
X62333667Y-83515827D01*
X62313399Y-83596742D01*
X62285298Y-83675281D01*
X62249633Y-83750687D01*
X62206749Y-83822235D01*
X62157059Y-83889234D01*
X62101041Y-83951041D01*
X62039234Y-84007059D01*
X61972235Y-84056749D01*
X61900687Y-84099633D01*
X61825281Y-84135298D01*
X61746742Y-84163399D01*
X61665827Y-84183667D01*
X61583315Y-84195907D01*
X61500000Y-84200000D01*
X58500000Y-84200000D01*
X58416685Y-84195907D01*
X58334173Y-84183667D01*
X58253258Y-84163399D01*
X58174719Y-84135298D01*
X58099313Y-84099633D01*
X58027765Y-84056749D01*
X57960766Y-84007059D01*
X57898959Y-83951041D01*
X57842941Y-83889234D01*
X57793251Y-83822235D01*
X57750367Y-83750687D01*
X57714702Y-83675281D01*
X57686601Y-83596742D01*
X57666333Y-83515827D01*
X57654093Y-83433315D01*
X57650000Y-83350000D01*
X57650000Y-81650000D01*
X57654093Y-81566685D01*
X57666333Y-81484173D01*
X57686601Y-81403258D01*
X57714702Y-81324719D01*
X57750367Y-81249313D01*
X57793251Y-81177765D01*
X57842941Y-81110766D01*
X57898959Y-81048959D01*
X57960766Y-80992941D01*
X58027765Y-80943251D01*
X58099313Y-80900367D01*
X58174719Y-80864702D01*
X58253258Y-80836601D01*
X58334173Y-80816333D01*
X58416685Y-80804093D01*
X58500000Y-80800000D01*
X61500000Y-80800000D01*
X61583315Y-80804093D01*
X61583315Y-80804093D01*
G37*
D13*
X60000000Y-82500000D03*
D14*
X125000000Y-123050000D03*
X125000000Y-116950000D03*
X125000000Y-108050000D03*
X125000000Y-101950000D03*
X125000000Y-93050000D03*
X125000000Y-86950000D03*
X125000000Y-78050000D03*
X125000000Y-71950000D03*
X115000000Y-123050000D03*
X115000000Y-116950000D03*
X115000000Y-108050000D03*
X115000000Y-101950000D03*
X115000000Y-93050000D03*
X115000000Y-86950000D03*
X115000000Y-78050000D03*
X115000000Y-71950000D03*
X105000000Y-123050000D03*
X105000000Y-116950000D03*
X105000000Y-108050000D03*
X105000000Y-101950000D03*
X105000000Y-93050000D03*
X105000000Y-86950000D03*
X105000000Y-78050000D03*
X105000000Y-71950000D03*
X95000000Y-123050000D03*
X95000000Y-116950000D03*
X95000000Y-108050000D03*
X95000000Y-101950000D03*
X95000000Y-93050000D03*
X95000000Y-86950000D03*
X95000000Y-78050000D03*
X95000000Y-71950000D03*
X85000000Y-123050000D03*
X85000000Y-116950000D03*
X85000000Y-108050000D03*
X85000000Y-101950000D03*
X85000000Y-93050000D03*
X85000000Y-86950000D03*
X85000000Y-78050000D03*
X85000000Y-71950000D03*
X75000000Y-123050000D03*
X75000000Y-116950000D03*
X75000000Y-108050000D03*
X75000000Y-101950000D03*
X75000000Y-93050000D03*
X75000000Y-86950000D03*
X75000000Y-78050000D03*
X75000000Y-71950000D03*
D10*
X125000000Y-128730000D03*
D11*
X125000000Y-131270000D03*
D10*
X125000000Y-63730000D03*
D11*
X125000000Y-66270000D03*
D10*
X115000000Y-63730000D03*
D11*
X115000000Y-66270000D03*
D10*
X115000000Y-128730000D03*
D11*
X115000000Y-131270000D03*
D10*
X105000000Y-63730000D03*
D11*
X105000000Y-66270000D03*
D10*
X105000000Y-128730000D03*
D11*
X105000000Y-131270000D03*
D10*
X95000000Y-63730000D03*
D11*
X95000000Y-66270000D03*
D10*
X95000000Y-128730000D03*
D11*
X95000000Y-131270000D03*
D10*
X85000000Y-63730000D03*
D11*
X85000000Y-66270000D03*
D10*
X85000000Y-128730000D03*
D11*
X85000000Y-131270000D03*
D10*
X75000000Y-63730000D03*
D11*
X75000000Y-66270000D03*
D10*
X75000000Y-128730000D03*
D11*
X75000000Y-131270000D03*
D10*
X62270000Y-131500000D03*
D11*
X59730000Y-131500000D03*
D15*
X59730000Y-100270000D02*
X60000000Y-100000000D01*
X59730000Y-131500000D02*
X59730000Y-100270000D01*
X84730000Y-63730000D02*
X85000000Y-64000000D01*
X75000000Y-63730000D02*
X124770000Y-63730000D01*
X124770000Y-63730000D02*
X125000000Y-63500000D01*
X60000000Y-94960000D02*
X60000000Y-92510000D01*
X60000000Y-92510000D02*
X60000000Y-82500000D01*
X60000000Y-82000000D02*
X60000000Y-66500000D01*
X60000000Y-66500000D02*
X62800000Y-63700000D01*
X62800000Y-63700000D02*
X74900000Y-63700000D01*
X125000000Y-131270000D02*
X75230000Y-131270000D01*
X75230000Y-131270000D02*
X75000000Y-131500000D01*
X62270000Y-131500000D02*
X74500000Y-131500000D01*
X75000000Y-123050000D02*
X75000000Y-128500000D01*
X75000000Y-66270000D02*
X75000000Y-71500000D01*
X85000000Y-123050000D02*
X85000000Y-125175000D01*
X85000000Y-125175000D02*
X85000000Y-129000000D01*
X85000000Y-66270000D02*
X85000000Y-72000000D01*
X95000000Y-123050000D02*
X95000000Y-125175000D01*
X95000000Y-125175000D02*
X95000000Y-128500000D01*
X95000000Y-66270000D02*
X95000000Y-72000000D01*
X105000000Y-123050000D02*
X105000000Y-125175000D01*
X105000000Y-125175000D02*
X105000000Y-128500000D01*
X105000000Y-66270000D02*
X105000000Y-68720000D01*
X105000000Y-68720000D02*
X105000000Y-72000000D01*
X115000000Y-123050000D02*
X115000000Y-125175000D01*
X115000000Y-125175000D02*
X115000000Y-128500000D01*
X115000000Y-66270000D02*
X115000000Y-68720000D01*
X115000000Y-68720000D02*
X115000000Y-71500000D01*
X125000000Y-66270000D02*
X125000000Y-68720000D01*
X125000000Y-68720000D02*
X125000000Y-71500000D01*
X125000000Y-123050000D02*
X125000000Y-128500000D01*
X75000000Y-78050000D02*
X75000000Y-80175000D01*
X75000000Y-80175000D02*
X75000000Y-86500000D01*
X75000000Y-93050000D02*
X75000000Y-101500000D01*
X75000000Y-108050000D02*
X75000000Y-110175000D01*
X75000000Y-110175000D02*
X75000000Y-117000000D01*
X85000000Y-78050000D02*
X85000000Y-87000000D01*
X85000000Y-93050000D02*
X85000000Y-95175000D01*
X85000000Y-95175000D02*
X85000000Y-101500000D01*
X85000000Y-108050000D02*
X85000000Y-110175000D01*
X85000000Y-110175000D02*
X85000000Y-116500000D01*
X95000000Y-78050000D02*
X95000000Y-87000000D01*
X95000000Y-93050000D02*
X95000000Y-101500000D01*
X95000000Y-108050000D02*
X95000000Y-110175000D01*
X95000000Y-110175000D02*
X95000000Y-117000000D01*
X105000000Y-78050000D02*
X105000000Y-87000000D01*
X105000000Y-93050000D02*
X105000000Y-95175000D01*
X105000000Y-95175000D02*
X105000000Y-101500000D01*
X105000000Y-108050000D02*
X105000000Y-110175000D01*
X105000000Y-110175000D02*
X105000000Y-117000000D01*
X115000000Y-78050000D02*
X115000000Y-78000000D01*
X115000000Y-78000000D02*
X115000000Y-86500000D01*
X115000000Y-93050000D02*
X115000000Y-95175000D01*
X115000000Y-95175000D02*
X115000000Y-101500000D01*
X115000000Y-108050000D02*
X115000000Y-117000000D01*
X125000000Y-78050000D02*
X125000000Y-87000000D01*
X125000000Y-93050000D02*
X125000000Y-101500000D01*
X125000000Y-108050000D02*
X125000000Y-110175000D01*
X125000000Y-110175000D02*
X125000000Y-117000000D01*
M02*
