%TF.GenerationSoftware,KiCad,Pcbnew,5.99.0-unknown-5db75805bd~106~ubuntu20.04.1*%
%TF.CreationDate,2021-01-04T23:22:08+00:00*%
%TF.ProjectId,minidriver,6d696e69-6472-4697-9665-722e6b696361,rev?*%
%TF.SameCoordinates,Original*%
%TF.FileFunction,Copper,L1,Top*%
%TF.FilePolarity,Positive*%
%FSLAX46Y46*%
G04 Gerber Fmt 4.6, Leading zero omitted, Abs format (unit mm)*
G04 Created by KiCad (PCBNEW 5.99.0-unknown-5db75805bd~106~ubuntu20.04.1) date 2021-01-04 23:22:08*
%MOMM*%
%LPD*%
G01*
G04 APERTURE LIST*
G04 Aperture macros list*
%AMRoundRect*
0 Rectangle with rounded corners*
0 $1 Rounding radius*
0 $2 $3 $4 $5 $6 $7 $8 $9 X,Y pos of 4 corners*
0 Add a 4 corners polygon primitive as box body*
4,1,4,$2,$3,$4,$5,$6,$7,$8,$9,$2,$3,0*
0 Add four circle primitives for the rounded corners*
1,1,$1+$1,$2,$3,0*
1,1,$1+$1,$4,$5,0*
1,1,$1+$1,$6,$7,0*
1,1,$1+$1,$8,$9,0*
0 Add four rect primitives between the rounded corners*
20,1,$1+$1,$2,$3,$4,$5,0*
20,1,$1+$1,$4,$5,$6,$7,0*
20,1,$1+$1,$6,$7,$8,$9,0*
20,1,$1+$1,$8,$9,$2,$3,0*%
G04 Aperture macros list end*
%TA.AperFunction,SMDPad,CuDef*%
%ADD10R,1.800000X1.150000*%
%TD*%
%TA.AperFunction,SMDPad,CuDef*%
%ADD11R,1.150000X1.800000*%
%TD*%
%TA.AperFunction,ComponentPad*%
%ADD12R,1.900000X1.900000*%
%TD*%
%TA.AperFunction,ComponentPad*%
%ADD13C,1.900000*%
%TD*%
%TA.AperFunction,SMDPad,CuDef*%
%ADD14R,1.000000X0.600000*%
%TD*%
%TA.AperFunction,SMDPad,CuDef*%
%ADD15R,0.620000X0.620000*%
%TD*%
%TA.AperFunction,SMDPad,CuDef*%
%ADD16R,0.950000X1.000000*%
%TD*%
%TA.AperFunction,ComponentPad*%
%ADD17C,1.500000*%
%TD*%
%TA.AperFunction,SMDPad,CuDef*%
%ADD18RoundRect,0.850000X-1.500000X-0.850000X1.500000X-0.850000X1.500000X0.850000X-1.500000X0.850000X0*%
%TD*%
%TA.AperFunction,ComponentPad*%
%ADD19O,2.100000X1.400000*%
%TD*%
%TA.AperFunction,SMDPad,CuDef*%
%ADD20C,1.000000*%
%TD*%
%TA.AperFunction,SMDPad,CuDef*%
%ADD21R,1.200000X0.500000*%
%TD*%
%TA.AperFunction,SMDPad,CuDef*%
%ADD22R,0.500000X1.200000*%
%TD*%
%TA.AperFunction,SMDPad,CuDef*%
%ADD23R,2.790000X0.740000*%
%TD*%
%TA.AperFunction,SMDPad,CuDef*%
%ADD24RoundRect,0.850000X1.500000X0.850000X-1.500000X0.850000X-1.500000X-0.850000X1.500000X-0.850000X0*%
%TD*%
%TA.AperFunction,ComponentPad*%
%ADD25O,1.400000X2.100000*%
%TD*%
%TA.AperFunction,SMDPad,CuDef*%
%ADD26R,2.200000X0.650000*%
%TD*%
%TA.AperFunction,ViaPad*%
%ADD27C,0.800000*%
%TD*%
%TA.AperFunction,Conductor*%
%ADD28C,0.500000*%
%TD*%
%TA.AperFunction,Conductor*%
%ADD29C,0.800000*%
%TD*%
%TA.AperFunction,Conductor*%
%ADD30C,0.300000*%
%TD*%
%TA.AperFunction,Conductor*%
%ADD31C,0.250000*%
%TD*%
G04 APERTURE END LIST*
%TA.AperFunction,SMDPad,CuDef*%
%TO.P,J7,2,2*%
%TO.N,GND*%
G36*
X102000000Y-140450001D02*
G01*
X101999999Y-141450000D01*
X101500000Y-140950000D01*
X101000000Y-141450000D01*
X101000000Y-140450000D01*
X102000000Y-140450001D01*
G37*
%TD.AperFunction*%
%TA.AperFunction,SMDPad,CuDef*%
%TO.P,J7,1,1*%
%TO.N,/HV-*%
G36*
X101500000Y-141350000D02*
G01*
X102000000Y-141850001D01*
X101999999Y-142850000D01*
X101000000Y-142849999D01*
X101000001Y-141850000D01*
X101500000Y-141350000D01*
G37*
%TD.AperFunction*%
%TD*%
%TA.AperFunction,SMDPad,CuDef*%
%TO.P,J3,1,1*%
%TO.N,/~E*%
G36*
X120350000Y-113500000D02*
G01*
X120850001Y-113000000D01*
X121850000Y-113000001D01*
X121849999Y-114000000D01*
X120850000Y-113999999D01*
X120350000Y-113500000D01*
G37*
%TD.AperFunction*%
%TA.AperFunction,SMDPad,CuDef*%
%TO.P,J3,2,2*%
%TO.N,/LE*%
G36*
X119450001Y-113000000D02*
G01*
X120450000Y-113000001D01*
X119950000Y-113500000D01*
X120449999Y-114000000D01*
X119450000Y-114000000D01*
X119450001Y-113000000D01*
G37*
%TD.AperFunction*%
%TD*%
D10*
%TO.P,R10,1*%
%TO.N,Net-(Q8-Pad3)*%
X132500000Y-140500000D03*
%TO.P,R10,2*%
%TO.N,Net-(Q11-Pad1)*%
X132500000Y-137500000D03*
%TD*%
%TO.P,R12,1*%
%TO.N,Net-(Q11-Pad1)*%
X135500000Y-137500000D03*
%TO.P,R12,2*%
%TO.N,/HV+*%
X135500000Y-140500000D03*
%TD*%
D11*
%TO.P,R7,1*%
%TO.N,Net-(Q3-Pad3)*%
X137000000Y-113500000D03*
%TO.P,R7,2*%
%TO.N,/AN1*%
X140000000Y-113500000D03*
%TD*%
D12*
%TO.P,J1,1,1*%
%TO.N,/HV+*%
X146000000Y-107040000D03*
D13*
%TO.P,J1,3,3*%
%TO.N,/HV-*%
X146000000Y-101960000D03*
%TD*%
D14*
%TO.P,Q9,1,B*%
%TO.N,Net-(Q9-Pad1)*%
X137850000Y-118050000D03*
%TO.P,Q9,2,E*%
%TO.N,/HV+*%
X137850000Y-119950000D03*
%TO.P,Q9,3,C*%
%TO.N,Net-(Q9-Pad3)*%
X140150000Y-119000000D03*
%TD*%
D11*
%TO.P,R8,1*%
%TO.N,Net-(Q5-Pad3)*%
X137000000Y-133500000D03*
%TO.P,R8,2*%
%TO.N,/AN3*%
X140000000Y-133500000D03*
%TD*%
D15*
%TO.P,C5,1*%
%TO.N,/nRST*%
X114000000Y-120250000D03*
%TO.P,C5,2*%
%TO.N,GND*%
X114000000Y-119350000D03*
%TD*%
D14*
%TO.P,Q11,1,B*%
%TO.N,Net-(Q11-Pad1)*%
X137850000Y-138050000D03*
%TO.P,Q11,2,E*%
%TO.N,/HV+*%
X137850000Y-139950000D03*
%TO.P,Q11,3,C*%
%TO.N,Net-(Q11-Pad3)*%
X140150000Y-139000000D03*
%TD*%
D10*
%TO.P,R9,1*%
%TO.N,Net-(Q7-Pad3)*%
X132500000Y-120500000D03*
%TO.P,R9,2*%
%TO.N,Net-(Q9-Pad1)*%
X132500000Y-117500000D03*
%TD*%
%TO.P,R11,1*%
%TO.N,Net-(Q9-Pad1)*%
X135500000Y-117500000D03*
%TO.P,R11,2*%
%TO.N,/HV+*%
X135500000Y-120500000D03*
%TD*%
D16*
%TO.P,D1,1*%
%TO.N,GND*%
X104800000Y-114250000D03*
%TO.P,D1,2*%
%TO.N,Net-(D1-Pad2)*%
X103200000Y-114250000D03*
%TD*%
D17*
%TO.P,IC1,1,VIN*%
%TO.N,24v*%
X103000000Y-104460000D03*
%TO.P,IC1,2,GND*%
%TO.N,GND*%
X103000000Y-107000000D03*
%TO.P,IC1,3,VOUT*%
%TO.N,3v3*%
X103000000Y-109540000D03*
%TD*%
D15*
%TO.P,C2,1*%
%TO.N,3v3*%
X114000000Y-122450000D03*
%TO.P,C2,2*%
%TO.N,GND*%
X114000000Y-121550000D03*
%TD*%
D14*
%TO.P,Q4,1,G*%
%TO.N,/GK1*%
X105850000Y-146550000D03*
%TO.P,Q4,2,S*%
%TO.N,/HV-*%
X105850000Y-148450000D03*
%TO.P,Q4,3,D*%
%TO.N,/K1*%
X108150000Y-147500000D03*
%TD*%
D18*
%TO.P,TP2,1,TP*%
%TO.N,/HV-*%
X138000000Y-102400000D03*
%TD*%
D15*
%TO.P,C4,1*%
%TO.N,3v3*%
X126950000Y-113500000D03*
%TO.P,C4,2*%
%TO.N,GND*%
X126050000Y-113500000D03*
%TD*%
D19*
%TO.P,J4,1,1*%
%TO.N,/AN4*%
X146000000Y-128810000D03*
%TO.P,J4,2,2*%
%TO.N,/AN3*%
X146000000Y-126270000D03*
%TO.P,J4,3,3*%
%TO.N,/AN2*%
X146000000Y-123730000D03*
%TO.P,J4,4,4*%
%TO.N,/AN1*%
X146000000Y-121190000D03*
%TD*%
D14*
%TO.P,Q2,1,G*%
%TO.N,/GA3*%
X131850000Y-132550000D03*
%TO.P,Q2,2,S*%
%TO.N,/HV-*%
X131850000Y-134450000D03*
%TO.P,Q2,3,D*%
%TO.N,Net-(Q2-Pad3)*%
X134150000Y-133500000D03*
%TD*%
%TO.P,Q7,1,G*%
%TO.N,/GA2*%
X131850000Y-122550000D03*
%TO.P,Q7,2,S*%
%TO.N,/HV-*%
X131850000Y-124450000D03*
%TO.P,Q7,3,D*%
%TO.N,Net-(Q7-Pad3)*%
X134150000Y-123500000D03*
%TD*%
%TA.AperFunction,SMDPad,CuDef*%
%TO.P,J6,1,1*%
%TO.N,/HV-*%
G36*
X125350000Y-103000000D02*
G01*
X125850001Y-102500000D01*
X126850000Y-102500001D01*
X126849999Y-103500000D01*
X125850000Y-103499999D01*
X125350000Y-103000000D01*
G37*
%TD.AperFunction*%
%TA.AperFunction,SMDPad,CuDef*%
%TO.P,J6,2,2*%
%TO.N,GND*%
G36*
X124450001Y-102500000D02*
G01*
X125450000Y-102500001D01*
X124950000Y-103000000D01*
X125449999Y-103500000D01*
X124450000Y-103500000D01*
X124450001Y-102500000D01*
G37*
%TD.AperFunction*%
%TD*%
D11*
%TO.P,C1,1*%
%TO.N,24v*%
X110500000Y-110000000D03*
%TO.P,C1,2*%
%TO.N,GND*%
X113500000Y-110000000D03*
%TD*%
D14*
%TO.P,Q6,1,G*%
%TO.N,/GK3*%
X124150000Y-143950000D03*
%TO.P,Q6,2,S*%
%TO.N,/HV-*%
X124150000Y-142050000D03*
%TO.P,Q6,3,D*%
%TO.N,/K3*%
X121850000Y-143000000D03*
%TD*%
D20*
%TO.P,TP3,1,TP*%
%TO.N,3v3*%
X122500000Y-109750000D03*
%TD*%
D14*
%TO.P,Q1,1,G*%
%TO.N,/GA1*%
X131850000Y-112550000D03*
%TO.P,Q1,2,S*%
%TO.N,/HV-*%
X131850000Y-114450000D03*
%TO.P,Q1,3,D*%
%TO.N,Net-(Q1-Pad3)*%
X134150000Y-113500000D03*
%TD*%
D21*
%TO.P,IC2,1,PB9*%
%TO.N,no_connect_49*%
X112200000Y-124800000D03*
%TO.P,IC2,2,PC14*%
%TO.N,no_connect_53*%
X112200000Y-124000000D03*
%TO.P,IC2,3,PC15*%
%TO.N,no_connect_61*%
X112200000Y-123200000D03*
%TO.P,IC2,4,VDD/VDDA*%
%TO.N,3v3*%
X112200000Y-122400000D03*
%TO.P,IC2,5,VSS/VSSA*%
%TO.N,GND*%
X112200000Y-121600000D03*
%TO.P,IC2,6,NRST*%
%TO.N,/nRST*%
X112200000Y-120800000D03*
%TO.P,IC2,7,PA0*%
%TO.N,no_connect_62*%
X112200000Y-120000000D03*
%TO.P,IC2,8,PA1*%
%TO.N,/A1*%
X112200000Y-119200000D03*
D22*
%TO.P,IC2,9,PA2*%
%TO.N,/A0*%
X110800000Y-117800000D03*
%TO.P,IC2,10,PA3*%
%TO.N,/LE*%
X110000000Y-117800000D03*
%TO.P,IC2,11,PA4*%
%TO.N,/A2*%
X109200000Y-117800000D03*
%TO.P,IC2,12,PA5*%
%TO.N,/A3*%
X108400000Y-117800000D03*
%TO.P,IC2,13,PA6*%
%TO.N,no_connect_50*%
X107600000Y-117800000D03*
%TO.P,IC2,14,PA7*%
%TO.N,/PSU_~RUN*%
X106800000Y-117800000D03*
%TO.P,IC2,15,PB0*%
%TO.N,/PSU_UART_TX*%
X106000000Y-117800000D03*
%TO.P,IC2,16,PB1*%
%TO.N,/LED*%
X105200000Y-117800000D03*
D21*
%TO.P,IC2,17,PB2*%
%TO.N,no_connect_51*%
X103800000Y-119200000D03*
%TO.P,IC2,18,PA8*%
%TO.N,/~E*%
X103800000Y-120000000D03*
%TO.P,IC2,19,PA9*%
%TO.N,no_connect_52*%
X103800000Y-120800000D03*
%TO.P,IC2,20,PC6*%
%TO.N,no_connect_54*%
X103800000Y-121600000D03*
%TO.P,IC2,21,PA10*%
%TO.N,no_connect_55*%
X103800000Y-122400000D03*
%TO.P,IC2,22,PA9/PA11*%
%TO.N,no_connect_56*%
X103800000Y-123200000D03*
%TO.P,IC2,23,PA10/PA12*%
%TO.N,no_connect_57*%
X103800000Y-124000000D03*
%TO.P,IC2,24,PA13*%
%TO.N,/SWDIO*%
X103800000Y-124800000D03*
D22*
%TO.P,IC2,25,BOOT0/PA14*%
%TO.N,/SWCLK*%
X105200000Y-126200000D03*
%TO.P,IC2,26,PA15*%
%TO.N,no_connect_58*%
X106000000Y-126200000D03*
%TO.P,IC2,27,PB3*%
%TO.N,no_connect_59*%
X106800000Y-126200000D03*
%TO.P,IC2,28,PB4*%
%TO.N,no_connect_60*%
X107600000Y-126200000D03*
%TO.P,IC2,29,PB5*%
%TO.N,/GK1*%
X108400000Y-126200000D03*
%TO.P,IC2,30,PB6*%
%TO.N,/GK2*%
X109200000Y-126200000D03*
%TO.P,IC2,31,PB7*%
%TO.N,/GK3*%
X110000000Y-126200000D03*
%TO.P,IC2,32,PB8*%
%TO.N,/GK4*%
X110800000Y-126200000D03*
%TD*%
D10*
%TO.P,R5,1*%
%TO.N,Net-(Q3-Pad1)*%
X135500000Y-107500000D03*
%TO.P,R5,2*%
%TO.N,/HV+*%
X135500000Y-110500000D03*
%TD*%
D12*
%TO.P,J2,1,1*%
%TO.N,24v*%
X118810000Y-104000000D03*
D13*
%TO.P,J2,2,2*%
%TO.N,Net-(J2-Pad2)*%
X116270000Y-104000000D03*
%TO.P,J2,3,3*%
%TO.N,Net-(J2-Pad3)*%
X113730000Y-104000000D03*
%TO.P,J2,4,4*%
%TO.N,GND*%
X111190000Y-104000000D03*
%TD*%
D10*
%TO.P,R3,1*%
%TO.N,Net-(Q1-Pad3)*%
X132500000Y-110500000D03*
%TO.P,R3,2*%
%TO.N,Net-(Q3-Pad1)*%
X132500000Y-107500000D03*
%TD*%
D15*
%TO.P,R1,1*%
%TO.N,Net-(J2-Pad2)*%
X116750000Y-109550000D03*
%TO.P,R1,2*%
%TO.N,/PSU_~RUN*%
X116750000Y-110450000D03*
%TD*%
D12*
%TO.P,TP4,1,TP*%
%TO.N,GND*%
X122500000Y-107250000D03*
%TD*%
D23*
%TO.P,P1,1,VTref*%
%TO.N,3v3*%
X102965000Y-132460000D03*
%TO.P,P1,2,SWDIO/TMS*%
%TO.N,/SWDIO*%
X107035000Y-132460000D03*
%TO.P,P1,3,GND*%
%TO.N,GND*%
X102965000Y-133730000D03*
%TO.P,P1,4,SWDCLK/TCK*%
%TO.N,/SWCLK*%
X107035000Y-133730000D03*
%TO.P,P1,5,GND*%
%TO.N,GND*%
X102965000Y-135000000D03*
%TO.P,P1,6,SWO/TDO*%
%TO.N,no_connect_76*%
X107035000Y-135000000D03*
%TO.P,P1,7*%
%TO.N,N/C*%
X102965000Y-136270000D03*
%TO.P,P1,8,TDI*%
%TO.N,no_connect_77*%
X107035000Y-136270000D03*
%TO.P,P1,9,GND*%
%TO.N,GND*%
X102965000Y-137540000D03*
%TO.P,P1,10,nRESET*%
%TO.N,/nRST*%
X107035000Y-137540000D03*
%TD*%
D14*
%TO.P,Q3,1,B*%
%TO.N,Net-(Q3-Pad1)*%
X137850000Y-108050000D03*
%TO.P,Q3,2,E*%
%TO.N,/HV+*%
X137850000Y-109950000D03*
%TO.P,Q3,3,C*%
%TO.N,Net-(Q3-Pad3)*%
X140150000Y-109000000D03*
%TD*%
%TO.P,Q12,1,G*%
%TO.N,/GK4*%
X124150000Y-148450000D03*
%TO.P,Q12,2,S*%
%TO.N,/HV-*%
X124150000Y-146550000D03*
%TO.P,Q12,3,D*%
%TO.N,/K4*%
X121850000Y-147500000D03*
%TD*%
D24*
%TO.P,TP1,1,TP*%
%TO.N,/HV+*%
X145600000Y-110700000D03*
%TD*%
D25*
%TO.P,J5,1,1*%
%TO.N,/K1*%
X111190000Y-146000000D03*
%TO.P,J5,2,2*%
%TO.N,/K2*%
X113730000Y-146000000D03*
%TO.P,J5,3,3*%
%TO.N,/K3*%
X116270000Y-146000000D03*
%TO.P,J5,4,4*%
%TO.N,/K4*%
X118810000Y-146000000D03*
%TD*%
D11*
%TO.P,R14,1*%
%TO.N,Net-(Q11-Pad3)*%
X137000000Y-143500000D03*
%TO.P,R14,2*%
%TO.N,/AN4*%
X140000000Y-143500000D03*
%TD*%
D15*
%TO.P,R15,1*%
%TO.N,/LED*%
X104450000Y-115900000D03*
%TO.P,R15,2*%
%TO.N,Net-(D1-Pad2)*%
X103550000Y-115900000D03*
%TD*%
D14*
%TO.P,Q10,1,G*%
%TO.N,/GK2*%
X105850000Y-142050000D03*
%TO.P,Q10,2,S*%
%TO.N,/HV-*%
X105850000Y-143950000D03*
%TO.P,Q10,3,D*%
%TO.N,/K2*%
X108150000Y-143000000D03*
%TD*%
D10*
%TO.P,R6,1*%
%TO.N,Net-(Q5-Pad1)*%
X135500000Y-127500000D03*
%TO.P,R6,2*%
%TO.N,/HV+*%
X135500000Y-130500000D03*
%TD*%
D11*
%TO.P,R13,1*%
%TO.N,Net-(Q9-Pad3)*%
X137000000Y-123500000D03*
%TO.P,R13,2*%
%TO.N,/AN2*%
X140000000Y-123500000D03*
%TD*%
D14*
%TO.P,Q5,1,B*%
%TO.N,Net-(Q5-Pad1)*%
X137850000Y-128050000D03*
%TO.P,Q5,2,E*%
%TO.N,/HV+*%
X137850000Y-129950000D03*
%TO.P,Q5,3,C*%
%TO.N,Net-(Q5-Pad3)*%
X140150000Y-129000000D03*
%TD*%
%TO.P,Q8,1,G*%
%TO.N,/GA4*%
X131850000Y-142550000D03*
%TO.P,Q8,2,S*%
%TO.N,/HV-*%
X131850000Y-144450000D03*
%TO.P,Q8,3,D*%
%TO.N,Net-(Q8-Pad3)*%
X134150000Y-143500000D03*
%TD*%
D26*
%TO.P,IC3,1,LE*%
%TO.N,/LE*%
X117700000Y-115515000D03*
%TO.P,IC3,2,A0*%
%TO.N,/A0*%
X117700000Y-116785000D03*
%TO.P,IC3,3,A1*%
%TO.N,/A1*%
X117700000Y-118055000D03*
%TO.P,IC3,4,Q7*%
%TO.N,no_connect_69*%
X117700000Y-119325000D03*
%TO.P,IC3,5,Q6*%
%TO.N,no_connect_70*%
X117700000Y-120595000D03*
%TO.P,IC3,6,Q5*%
%TO.N,no_connect_71*%
X117700000Y-121865000D03*
%TO.P,IC3,7,Q4*%
%TO.N,no_connect_72*%
X117700000Y-123135000D03*
%TO.P,IC3,8,Q3*%
%TO.N,no_connect_73*%
X117700000Y-124405000D03*
%TO.P,IC3,9,Q1*%
%TO.N,no_connect_74*%
X117700000Y-125675000D03*
%TO.P,IC3,10,Q2*%
%TO.N,no_connect_63*%
X117700000Y-126945000D03*
%TO.P,IC3,11,Q0*%
%TO.N,no_connect_64*%
X117700000Y-128215000D03*
%TO.P,IC3,12,GND*%
%TO.N,GND*%
X117700000Y-129485000D03*
%TO.P,IC3,13,Q13*%
%TO.N,/GA4*%
X127300000Y-129485000D03*
%TO.P,IC3,14,Q12*%
%TO.N,/GA3*%
X127300000Y-128215000D03*
%TO.P,IC3,15,Q15*%
%TO.N,no_connect_65*%
X127300000Y-126945000D03*
%TO.P,IC3,16,Q14*%
%TO.N,no_connect_66*%
X127300000Y-125675000D03*
%TO.P,IC3,17,Q9*%
%TO.N,no_connect_67*%
X127300000Y-124405000D03*
%TO.P,IC3,18,Q8*%
%TO.N,no_connect_68*%
X127300000Y-123135000D03*
%TO.P,IC3,19,Q11*%
%TO.N,/GA2*%
X127300000Y-121865000D03*
%TO.P,IC3,20,Q10*%
%TO.N,/GA1*%
X127300000Y-120595000D03*
%TO.P,IC3,21,A2*%
%TO.N,/A2*%
X127300000Y-119325000D03*
%TO.P,IC3,22,A3*%
%TO.N,/A3*%
X127300000Y-118055000D03*
%TO.P,IC3,23,~E*%
%TO.N,/~E*%
X127300000Y-116785000D03*
%TO.P,IC3,24,VCC*%
%TO.N,3v3*%
X127300000Y-115515000D03*
%TD*%
D16*
%TO.P,C3,1*%
%TO.N,3v3*%
X110700000Y-112500000D03*
%TO.P,C3,2*%
%TO.N,GND*%
X112300000Y-112500000D03*
%TD*%
D10*
%TO.P,R4,1*%
%TO.N,Net-(Q2-Pad3)*%
X132500000Y-130500000D03*
%TO.P,R4,2*%
%TO.N,Net-(Q5-Pad1)*%
X132500000Y-127500000D03*
%TD*%
D15*
%TO.P,R2,1*%
%TO.N,Net-(J2-Pad3)*%
X115250000Y-109550000D03*
%TO.P,R2,2*%
%TO.N,/PSU_UART_TX*%
X115250000Y-110450000D03*
%TD*%
D27*
%TO.N,GND*%
X101500000Y-138500000D03*
%TO.N,/HV-*%
X101500000Y-144000000D03*
%TO.N,GND*%
X113300000Y-112500000D03*
X100900000Y-135000000D03*
X106100000Y-114300000D03*
X100900000Y-133700000D03*
X113500000Y-111400000D03*
X115000000Y-119300000D03*
X123500000Y-103000000D03*
X125000000Y-113500000D03*
X100900000Y-137600000D03*
X117700000Y-130500000D03*
X115000000Y-121600000D03*
%TO.N,3v3*%
X102400000Y-122400000D03*
X124300000Y-119500000D03*
X124300000Y-116600000D03*
X119700000Y-123300000D03*
X114900000Y-123300000D03*
X105200000Y-122400000D03*
%TO.N,/nRST*%
X115250000Y-138500000D03*
X107000000Y-138500000D03*
%TO.N,/~E*%
X115700000Y-117600000D03*
X121400000Y-115500000D03*
%TO.N,/A3*%
X119800000Y-115200000D03*
X116100000Y-114400000D03*
%TO.N,/A2*%
X115100000Y-115300000D03*
X119800000Y-116500000D03*
%TO.N,/HV-*%
X131900000Y-135300000D03*
X104800000Y-144000000D03*
X131900000Y-115300000D03*
X128000000Y-103000000D03*
X131900000Y-145300000D03*
X125200000Y-146500000D03*
X104800000Y-148500000D03*
X125200000Y-142000000D03*
X131900000Y-125300000D03*
%TO.N,/HV+*%
X135500000Y-131500000D03*
X135500000Y-141500000D03*
X135500000Y-111500000D03*
X135500000Y-121500000D03*
%TD*%
D28*
%TO.N,GND*%
X101500000Y-140650000D02*
X101500000Y-138500000D01*
D29*
%TO.N,/HV-*%
X101500000Y-144000000D02*
X101500000Y-142350000D01*
D30*
%TO.N,GND*%
X102905000Y-137600000D02*
X100900000Y-137600000D01*
X114950000Y-119350000D02*
X115000000Y-119300000D01*
X117700000Y-129485000D02*
X117700000Y-130500000D01*
X100930000Y-133730000D02*
X100900000Y-133700000D01*
X102965000Y-135000000D02*
X100900000Y-135000000D01*
D29*
X113500000Y-110000000D02*
X113500000Y-111400000D01*
D28*
X112200000Y-121600000D02*
X113950000Y-121600000D01*
D30*
X104800000Y-114250000D02*
X106050000Y-114250000D01*
X102965000Y-137540000D02*
X102905000Y-137600000D01*
D28*
X124650000Y-103000000D02*
X123500000Y-103000000D01*
D29*
X112300000Y-112500000D02*
X113300000Y-112500000D01*
D30*
X106050000Y-114250000D02*
X106100000Y-114300000D01*
X113950000Y-121600000D02*
X114000000Y-121550000D01*
X102965000Y-133730000D02*
X100930000Y-133730000D01*
X114950000Y-121550000D02*
X115000000Y-121600000D01*
D28*
X114000000Y-121550000D02*
X114950000Y-121550000D01*
X114000000Y-119350000D02*
X114950000Y-119350000D01*
D30*
X126050000Y-113500000D02*
X125000000Y-113500000D01*
D29*
%TO.N,24v*%
X108750000Y-102000000D02*
X109050000Y-101700000D01*
X109050000Y-101700000D02*
X105760000Y-101700000D01*
X118810000Y-102310000D02*
X118200000Y-101700000D01*
X108750000Y-105750000D02*
X108750000Y-102000000D01*
X105760000Y-101700000D02*
X103000000Y-104460000D01*
X118810000Y-104000000D02*
X118810000Y-102310000D01*
X118200000Y-101700000D02*
X109050000Y-101700000D01*
X110500000Y-110000000D02*
X110500000Y-107500000D01*
X110500000Y-107500000D02*
X108750000Y-105750000D01*
D28*
%TO.N,3v3*%
X114000000Y-122450000D02*
X114850000Y-123300000D01*
X122200000Y-123300000D02*
X124300000Y-121200000D01*
X114850000Y-123300000D02*
X114900000Y-123300000D01*
X119700000Y-123300000D02*
X122200000Y-123300000D01*
D30*
X123750000Y-115350000D02*
X124300000Y-115900000D01*
X123750000Y-111000000D02*
X123750000Y-115350000D01*
D28*
X124300000Y-115900000D02*
X124300000Y-116600000D01*
X112200000Y-122400000D02*
X105200000Y-122400000D01*
X102400000Y-122400000D02*
X101100000Y-122400000D01*
X102965000Y-132460000D02*
X101360000Y-132460000D01*
X124300000Y-121200000D02*
X124300000Y-119500000D01*
D30*
X122500000Y-109750000D02*
X123750000Y-111000000D01*
X113950000Y-122400000D02*
X114000000Y-122450000D01*
X127300000Y-113850000D02*
X127300000Y-115515000D01*
D28*
X124685000Y-115515000D02*
X124300000Y-115900000D01*
X101000000Y-122300000D02*
X101000000Y-111540000D01*
X101000000Y-111540000D02*
X103000000Y-109540000D01*
D30*
X101100000Y-122400000D02*
X101000000Y-122300000D01*
D28*
X127300000Y-115515000D02*
X124685000Y-115515000D01*
D29*
X105960000Y-112500000D02*
X103000000Y-109540000D01*
D30*
X126950000Y-113500000D02*
X127300000Y-113850000D01*
D29*
X110700000Y-112500000D02*
X105960000Y-112500000D01*
D28*
X101000000Y-132100000D02*
X101000000Y-122300000D01*
X101360000Y-132460000D02*
X101000000Y-132100000D01*
X112200000Y-122400000D02*
X113950000Y-122400000D01*
D30*
%TO.N,/nRST*%
X113600000Y-137500000D02*
X113600000Y-126000000D01*
X115900000Y-123700000D02*
X115900000Y-120900000D01*
X115900000Y-120900000D02*
X115250000Y-120250000D01*
X113450000Y-120800000D02*
X114000000Y-120250000D01*
X107035000Y-137540000D02*
X107035000Y-138465000D01*
X113600000Y-126000000D02*
X115900000Y-123700000D01*
X115250000Y-138500000D02*
X114600000Y-138500000D01*
X107035000Y-138465000D02*
X107000000Y-138500000D01*
X115250000Y-120250000D02*
X114000000Y-120250000D01*
X114600000Y-138500000D02*
X113600000Y-137500000D01*
X112200000Y-120800000D02*
X113450000Y-120800000D01*
%TO.N,/SWCLK*%
X105200000Y-129000000D02*
X106800000Y-130600000D01*
X109100000Y-130600000D02*
X109700000Y-131200000D01*
X109700000Y-131200000D02*
X109700000Y-133000000D01*
X109700000Y-133000000D02*
X108970000Y-133730000D01*
X106800000Y-130600000D02*
X109100000Y-130600000D01*
X108970000Y-133730000D02*
X107035000Y-133730000D01*
X105200000Y-126200000D02*
X105200000Y-129000000D01*
%TO.N,/SWDIO*%
X109000000Y-131500000D02*
X108800000Y-131300000D01*
X109000000Y-132200000D02*
X109000000Y-131500000D01*
X108740000Y-132460000D02*
X109000000Y-132200000D01*
X106500000Y-131300000D02*
X103800000Y-128600000D01*
X103800000Y-128600000D02*
X103800000Y-124800000D01*
X107035000Y-132460000D02*
X108740000Y-132460000D01*
X108800000Y-131300000D02*
X106500000Y-131300000D01*
%TO.N,/PSU_~RUN*%
X109400000Y-114300000D02*
X113900000Y-114300000D01*
X113900000Y-114300000D02*
X116750000Y-111450000D01*
X106800000Y-116900000D02*
X109400000Y-114300000D01*
X106800000Y-117800000D02*
X106800000Y-116900000D01*
X116750000Y-111450000D02*
X116750000Y-110450000D01*
%TO.N,/PSU_UART_TX*%
X113700000Y-113700000D02*
X115250000Y-112150000D01*
X115250000Y-112150000D02*
X115250000Y-110450000D01*
X106000000Y-116900000D02*
X109200000Y-113700000D01*
X109200000Y-113700000D02*
X113700000Y-113700000D01*
X106000000Y-117800000D02*
X106000000Y-116900000D01*
%TO.N,/LE*%
X117700000Y-113900000D02*
X117700000Y-115515000D01*
X118100000Y-113500000D02*
X117700000Y-113900000D01*
X115500000Y-116200000D02*
X116185000Y-115515000D01*
X110500000Y-116200000D02*
X115500000Y-116200000D01*
X110000000Y-117800000D02*
X110000000Y-116700000D01*
X110000000Y-116700000D02*
X110500000Y-116200000D01*
X119650000Y-113500000D02*
X118100000Y-113500000D01*
X116185000Y-115515000D02*
X117700000Y-115515000D01*
%TO.N,/~E*%
X125815000Y-116785000D02*
X127300000Y-116785000D01*
X112400000Y-117600000D02*
X110000000Y-120000000D01*
X115700000Y-117600000D02*
X112400000Y-117600000D01*
X125100000Y-117500000D02*
X125815000Y-116785000D01*
X110000000Y-120000000D02*
X103800000Y-120000000D01*
X121350000Y-113500000D02*
X121400000Y-113550000D01*
X121400000Y-116000000D02*
X122900000Y-117500000D01*
X122900000Y-117500000D02*
X125100000Y-117500000D01*
X121400000Y-113550000D02*
X121400000Y-115500000D01*
X121400000Y-115500000D02*
X121400000Y-116000000D01*
%TO.N,Net-(D1-Pad2)*%
X103200000Y-114250000D02*
X103200000Y-115550000D01*
X103200000Y-115550000D02*
X103550000Y-115900000D01*
%TO.N,/LED*%
X104650000Y-115900000D02*
X104450000Y-115900000D01*
X105200000Y-117800000D02*
X105200000Y-116450000D01*
X105200000Y-116450000D02*
X104650000Y-115900000D01*
%TO.N,/A3*%
X109700000Y-114900000D02*
X114200000Y-114900000D01*
X127300000Y-118055000D02*
X122655000Y-118055000D01*
X108400000Y-116200000D02*
X109700000Y-114900000D01*
X108400000Y-117800000D02*
X108400000Y-116200000D01*
X114200000Y-114900000D02*
X114700000Y-114400000D01*
X122655000Y-118055000D02*
X119800000Y-115200000D01*
X114700000Y-114400000D02*
X116100000Y-114400000D01*
%TO.N,/A2*%
X109200000Y-116400000D02*
X110000000Y-115600000D01*
X114800000Y-115600000D02*
X115100000Y-115300000D01*
X110000000Y-115600000D02*
X114800000Y-115600000D01*
X125200000Y-118600000D02*
X125925000Y-119325000D01*
X120300000Y-116500000D02*
X122400000Y-118600000D01*
X119800000Y-116500000D02*
X120300000Y-116500000D01*
X122400000Y-118600000D02*
X125200000Y-118600000D01*
X109200000Y-117800000D02*
X109200000Y-116400000D01*
X125925000Y-119325000D02*
X127300000Y-119325000D01*
%TO.N,/A1*%
X112200000Y-119200000D02*
X112700000Y-119200000D01*
X112700000Y-119200000D02*
X113500000Y-118400000D01*
X113500000Y-118400000D02*
X116100000Y-118400000D01*
X116100000Y-118400000D02*
X116445000Y-118055000D01*
X116445000Y-118055000D02*
X117700000Y-118055000D01*
%TO.N,/A0*%
X117700000Y-116785000D02*
X111015000Y-116785000D01*
X111015000Y-116785000D02*
X110800000Y-117000000D01*
X110800000Y-117000000D02*
X110800000Y-117800000D01*
%TO.N,/GK4*%
X114900000Y-139800000D02*
X125900000Y-139800000D01*
X127200000Y-147800000D02*
X126550000Y-148450000D01*
X110800000Y-127400000D02*
X112900000Y-129500000D01*
X126550000Y-148450000D02*
X124150000Y-148450000D01*
X110800000Y-126200000D02*
X110800000Y-127400000D01*
X112900000Y-129500000D02*
X112900000Y-137800000D01*
X112900000Y-137800000D02*
X114900000Y-139800000D01*
X125900000Y-139800000D02*
X127200000Y-141100000D01*
X127200000Y-141100000D02*
X127200000Y-147800000D01*
%TO.N,/GK3*%
X124200000Y-143900000D02*
X124150000Y-143950000D01*
X114600000Y-140500000D02*
X125600000Y-140500000D01*
X110000000Y-127700000D02*
X112200000Y-129900000D01*
X112200000Y-129900000D02*
X112200000Y-138100000D01*
X125800000Y-143900000D02*
X124200000Y-143900000D01*
X126500000Y-143200000D02*
X125800000Y-143900000D01*
X126500000Y-141400000D02*
X126500000Y-143200000D01*
X125600000Y-140500000D02*
X126500000Y-141400000D01*
X110000000Y-126200000D02*
X110000000Y-127700000D01*
X112200000Y-138100000D02*
X114600000Y-140500000D01*
%TO.N,/GK2*%
X109200000Y-126200000D02*
X109200000Y-128000000D01*
X109200000Y-128000000D02*
X111500000Y-130300000D01*
X104000000Y-141600000D02*
X104450000Y-142050000D01*
X104450000Y-142050000D02*
X105850000Y-142050000D01*
X104500000Y-140500000D02*
X104000000Y-141000000D01*
X111500000Y-138100000D02*
X109100000Y-140500000D01*
X109100000Y-140500000D02*
X104500000Y-140500000D01*
X104000000Y-141000000D02*
X104000000Y-141600000D01*
X111500000Y-130300000D02*
X111500000Y-138100000D01*
%TO.N,/GK1*%
X108400000Y-128200000D02*
X110800000Y-130600000D01*
X110800000Y-130600000D02*
X110800000Y-137700000D01*
X103300000Y-140600000D02*
X103300000Y-145800000D01*
X104100000Y-146600000D02*
X105800000Y-146600000D01*
X103300000Y-145800000D02*
X104100000Y-146600000D01*
X104100000Y-139800000D02*
X103300000Y-140600000D01*
X108700000Y-139800000D02*
X104100000Y-139800000D01*
X105800000Y-146600000D02*
X105850000Y-146550000D01*
X108400000Y-126200000D02*
X108400000Y-128200000D01*
X110800000Y-137700000D02*
X108700000Y-139800000D01*
%TO.N,/GA1*%
X129400000Y-113500000D02*
X130400000Y-112500000D01*
X127300000Y-120595000D02*
X129005000Y-120595000D01*
X129005000Y-120595000D02*
X129400000Y-120200000D01*
X131800000Y-112500000D02*
X131850000Y-112550000D01*
X129400000Y-120200000D02*
X129400000Y-113500000D01*
X130400000Y-112500000D02*
X131800000Y-112500000D01*
%TO.N,/GA3*%
X129400000Y-128700000D02*
X129400000Y-131900000D01*
X128915000Y-128215000D02*
X129400000Y-128700000D01*
X130050000Y-132550000D02*
X131850000Y-132550000D01*
X129400000Y-131900000D02*
X130050000Y-132550000D01*
X127300000Y-128215000D02*
X128915000Y-128215000D01*
%TO.N,/GA2*%
X131800000Y-122600000D02*
X131850000Y-122550000D01*
X129065000Y-121865000D02*
X129800000Y-122600000D01*
X127300000Y-121865000D02*
X129065000Y-121865000D01*
X129800000Y-122600000D02*
X131800000Y-122600000D01*
%TO.N,/GA4*%
X128000000Y-129800000D02*
X127685000Y-129485000D01*
X129850000Y-142550000D02*
X128000000Y-140700000D01*
X127685000Y-129485000D02*
X127300000Y-129485000D01*
X131850000Y-142550000D02*
X129850000Y-142550000D01*
X128000000Y-140700000D02*
X128000000Y-129800000D01*
D28*
%TO.N,/HV-*%
X125150000Y-146550000D02*
X125200000Y-146500000D01*
X125150000Y-142050000D02*
X125200000Y-142000000D01*
X105850000Y-148450000D02*
X104850000Y-148450000D01*
X131850000Y-135250000D02*
X131900000Y-135300000D01*
X131850000Y-115250000D02*
X131900000Y-115300000D01*
D29*
X138440000Y-101960000D02*
X146000000Y-101960000D01*
X138000000Y-102400000D02*
X138440000Y-101960000D01*
D28*
X131850000Y-134450000D02*
X131850000Y-135250000D01*
X131850000Y-124450000D02*
X131850000Y-125250000D01*
D29*
X126350000Y-103000000D02*
X128000000Y-103000000D01*
D28*
X131850000Y-144450000D02*
X131850000Y-145250000D01*
X104850000Y-143950000D02*
X104800000Y-144000000D01*
X124150000Y-142050000D02*
X125150000Y-142050000D01*
X131850000Y-114450000D02*
X131850000Y-115250000D01*
X131850000Y-125250000D02*
X131900000Y-125300000D01*
X104850000Y-148450000D02*
X104800000Y-148500000D01*
X131850000Y-145250000D02*
X131900000Y-145300000D01*
X124150000Y-146550000D02*
X125150000Y-146550000D01*
X105850000Y-143950000D02*
X104850000Y-143950000D01*
%TO.N,/HV+*%
X135500000Y-130500000D02*
X135500000Y-131500000D01*
X137300000Y-110500000D02*
X137850000Y-109950000D01*
X135500000Y-140500000D02*
X135500000Y-141500000D01*
X137300000Y-140500000D02*
X137850000Y-139950000D01*
X135500000Y-130500000D02*
X137300000Y-130500000D01*
X135500000Y-110500000D02*
X137300000Y-110500000D01*
X135500000Y-110500000D02*
X135500000Y-111500000D01*
X135500000Y-120500000D02*
X137300000Y-120500000D01*
X135500000Y-120500000D02*
X135500000Y-121500000D01*
X135500000Y-140500000D02*
X137300000Y-140500000D01*
D29*
X146000000Y-110300000D02*
X145600000Y-110700000D01*
D28*
X137300000Y-130500000D02*
X137850000Y-129950000D01*
D29*
X146000000Y-107040000D02*
X146000000Y-110300000D01*
D28*
X137300000Y-120500000D02*
X137850000Y-119950000D01*
%TO.N,Net-(J2-Pad3)*%
X115250000Y-105520000D02*
X113730000Y-104000000D01*
X115250000Y-109550000D02*
X115250000Y-105520000D01*
%TO.N,Net-(J2-Pad2)*%
X116750000Y-104480000D02*
X116270000Y-104000000D01*
X116750000Y-109550000D02*
X116750000Y-104480000D01*
D29*
%TO.N,/AN4*%
X145707107Y-142292893D02*
X144792893Y-143207107D01*
X146000000Y-128810000D02*
X146000000Y-141585786D01*
X144085786Y-143500000D02*
X140000000Y-143500000D01*
X145707107Y-142292893D02*
G75*
G03*
X146000000Y-141585786I-707106J707106D01*
G01*
X144085786Y-143499999D02*
G75*
G03*
X144792892Y-143207106I3J999993D01*
G01*
%TO.N,/AN3*%
X143000000Y-132085786D02*
X143000000Y-127914214D01*
X140000000Y-133500000D02*
X141585786Y-133500000D01*
X144644214Y-126270000D02*
X146000000Y-126270000D01*
X143292893Y-127207107D02*
X143937107Y-126562893D01*
X142292893Y-133207107D02*
X142707107Y-132792893D01*
X142707107Y-132792893D02*
G75*
G03*
X143000000Y-132085786I-707106J707106D01*
G01*
X141585786Y-133499999D02*
G75*
G03*
X142292892Y-133207106I3J999993D01*
G01*
X143000001Y-127914214D02*
G75*
G02*
X143292894Y-127207108I999993J3D01*
G01*
X144644214Y-126270001D02*
G75*
G03*
X143937108Y-126562894I-3J-999993D01*
G01*
%TO.N,/AN2*%
X146000000Y-123730000D02*
X140230000Y-123730000D01*
X140230000Y-123730000D02*
X140000000Y-123500000D01*
%TO.N,/AN1*%
X146000000Y-119500000D02*
X146000000Y-121190000D01*
X140000000Y-113500000D02*
X146000000Y-119500000D01*
D28*
%TO.N,/K4*%
X120310000Y-147500000D02*
X118810000Y-146000000D01*
X121850000Y-147500000D02*
X120310000Y-147500000D01*
%TO.N,/K3*%
X116270000Y-144230000D02*
X116270000Y-146000000D01*
X121850000Y-143000000D02*
X117500000Y-143000000D01*
X117500000Y-143000000D02*
X116270000Y-144230000D01*
%TO.N,/K2*%
X108150000Y-143000000D02*
X112500000Y-143000000D01*
X113730000Y-144230000D02*
X113730000Y-146000000D01*
X112500000Y-143000000D02*
X113730000Y-144230000D01*
%TO.N,/K1*%
X108150000Y-147500000D02*
X109690000Y-147500000D01*
X109690000Y-147500000D02*
X111190000Y-146000000D01*
D31*
%TO.N,Net-(Q1-Pad3)*%
X132500000Y-110500000D02*
X132700000Y-110500000D01*
X132700000Y-110500000D02*
X133800000Y-111600000D01*
X133800000Y-111600000D02*
X133800000Y-113150000D01*
X133800000Y-113150000D02*
X134150000Y-113500000D01*
%TO.N,Net-(Q2-Pad3)*%
X132700000Y-130500000D02*
X133800000Y-131600000D01*
X133800000Y-131600000D02*
X133800000Y-133150000D01*
X133800000Y-133150000D02*
X134150000Y-133500000D01*
X132500000Y-130500000D02*
X132700000Y-130500000D01*
D28*
%TO.N,Net-(Q3-Pad3)*%
X137000000Y-113300000D02*
X140150000Y-110150000D01*
X140150000Y-110150000D02*
X140150000Y-109000000D01*
X137000000Y-113500000D02*
X137000000Y-113300000D01*
%TO.N,Net-(Q3-Pad1)*%
X135500000Y-107500000D02*
X137300000Y-107500000D01*
X132500000Y-107500000D02*
X135500000Y-107500000D01*
X137300000Y-107500000D02*
X137850000Y-108050000D01*
%TO.N,Net-(Q5-Pad3)*%
X137000000Y-133200000D02*
X140150000Y-130050000D01*
X140150000Y-130050000D02*
X140150000Y-129000000D01*
X137000000Y-133500000D02*
X137000000Y-133200000D01*
%TO.N,Net-(Q5-Pad1)*%
X137300000Y-127500000D02*
X137850000Y-128050000D01*
X132500000Y-127500000D02*
X135500000Y-127500000D01*
X135500000Y-127500000D02*
X137300000Y-127500000D01*
D31*
%TO.N,Net-(Q7-Pad3)*%
X132700000Y-120500000D02*
X133800000Y-121600000D01*
X133800000Y-123150000D02*
X134150000Y-123500000D01*
X133800000Y-121600000D02*
X133800000Y-123150000D01*
X132500000Y-120500000D02*
X132700000Y-120500000D01*
%TO.N,Net-(Q8-Pad3)*%
X132500000Y-140500000D02*
X132700000Y-140500000D01*
X133800000Y-141600000D02*
X133800000Y-143150000D01*
X133800000Y-143150000D02*
X134150000Y-143500000D01*
X132700000Y-140500000D02*
X133800000Y-141600000D01*
D28*
%TO.N,Net-(Q9-Pad3)*%
X137000000Y-123200000D02*
X140150000Y-120050000D01*
X137000000Y-123500000D02*
X137000000Y-123200000D01*
X140150000Y-120050000D02*
X140150000Y-119000000D01*
%TO.N,Net-(Q9-Pad1)*%
X137300000Y-117500000D02*
X137850000Y-118050000D01*
X132500000Y-117500000D02*
X135500000Y-117500000D01*
X135500000Y-117500000D02*
X137300000Y-117500000D01*
%TO.N,Net-(Q11-Pad3)*%
X140150000Y-140050000D02*
X140150000Y-139000000D01*
X137000000Y-143500000D02*
X137000000Y-143200000D01*
X137000000Y-143200000D02*
X140150000Y-140050000D01*
%TO.N,Net-(Q11-Pad1)*%
X132500000Y-137500000D02*
X135500000Y-137500000D01*
X137300000Y-137500000D02*
X137850000Y-138050000D01*
X135500000Y-137500000D02*
X137300000Y-137500000D01*
%TD*%
M02*
