%TF.GenerationSoftware,KiCad,Pcbnew,5.99.0-unknown-5db75805bd~106~ubuntu20.04.1*%
%TF.CreationDate,2021-01-04T23:22:08+00:00*%
%TF.ProjectId,minidriver,6d696e69-6472-4697-9665-722e6b696361,rev?*%
%TF.SameCoordinates,Original*%
%TF.FileFunction,Paste,Top*%
%TF.FilePolarity,Positive*%
%FSLAX46Y46*%
G04 Gerber Fmt 4.6, Leading zero omitted, Abs format (unit mm)*
G04 Created by KiCad (PCBNEW 5.99.0-unknown-5db75805bd~106~ubuntu20.04.1) date 2021-01-04 23:22:08*
%MOMM*%
%LPD*%
G01*
G04 APERTURE LIST*
G04 Aperture macros list*
%AMRoundRect*
0 Rectangle with rounded corners*
0 $1 Rounding radius*
0 $2 $3 $4 $5 $6 $7 $8 $9 X,Y pos of 4 corners*
0 Add a 4 corners polygon primitive as box body*
4,1,4,$2,$3,$4,$5,$6,$7,$8,$9,$2,$3,0*
0 Add four circle primitives for the rounded corners*
1,1,$1+$1,$2,$3,0*
1,1,$1+$1,$4,$5,0*
1,1,$1+$1,$6,$7,0*
1,1,$1+$1,$8,$9,0*
0 Add four rect primitives between the rounded corners*
20,1,$1+$1,$2,$3,$4,$5,0*
20,1,$1+$1,$4,$5,$6,$7,0*
20,1,$1+$1,$6,$7,$8,$9,0*
20,1,$1+$1,$8,$9,$2,$3,0*%
G04 Aperture macros list end*
%ADD10R,1.800000X1.150000*%
%ADD11R,1.150000X1.800000*%
%ADD12R,1.000000X0.600000*%
%ADD13R,0.620000X0.620000*%
%ADD14R,0.950000X1.000000*%
%ADD15RoundRect,0.850000X-1.500000X-0.850000X1.500000X-0.850000X1.500000X0.850000X-1.500000X0.850000X0*%
%ADD16R,1.200000X0.500000*%
%ADD17R,0.500000X1.200000*%
%ADD18R,2.790000X0.740000*%
%ADD19RoundRect,0.850000X1.500000X0.850000X-1.500000X0.850000X-1.500000X-0.850000X1.500000X-0.850000X0*%
%ADD20R,2.200000X0.650000*%
G04 APERTURE END LIST*
D10*
%TO.C,R10*%
X132500000Y-140500000D03*
X132500000Y-137500000D03*
%TD*%
%TO.C,R12*%
X135500000Y-137500000D03*
X135500000Y-140500000D03*
%TD*%
D11*
%TO.C,R7*%
X137000000Y-113500000D03*
X140000000Y-113500000D03*
%TD*%
D12*
%TO.C,Q9*%
X137850000Y-118050000D03*
X137850000Y-119950000D03*
X140150000Y-119000000D03*
%TD*%
D11*
%TO.C,R8*%
X137000000Y-133500000D03*
X140000000Y-133500000D03*
%TD*%
D13*
%TO.C,C5*%
X114000000Y-120250000D03*
X114000000Y-119350000D03*
%TD*%
D12*
%TO.C,Q11*%
X137850000Y-138050000D03*
X137850000Y-139950000D03*
X140150000Y-139000000D03*
%TD*%
D10*
%TO.C,R9*%
X132500000Y-120500000D03*
X132500000Y-117500000D03*
%TD*%
%TO.C,R11*%
X135500000Y-117500000D03*
X135500000Y-120500000D03*
%TD*%
D14*
%TO.C,D1*%
X104800000Y-114250000D03*
X103200000Y-114250000D03*
%TD*%
D13*
%TO.C,C2*%
X114000000Y-122450000D03*
X114000000Y-121550000D03*
%TD*%
D12*
%TO.C,Q4*%
X105850000Y-146550000D03*
X105850000Y-148450000D03*
X108150000Y-147500000D03*
%TD*%
D15*
%TO.C,TP2*%
X138000000Y-102400000D03*
%TD*%
D13*
%TO.C,C4*%
X126950000Y-113500000D03*
X126050000Y-113500000D03*
%TD*%
D12*
%TO.C,Q2*%
X131850000Y-132550000D03*
X131850000Y-134450000D03*
X134150000Y-133500000D03*
%TD*%
%TO.C,Q7*%
X131850000Y-122550000D03*
X131850000Y-124450000D03*
X134150000Y-123500000D03*
%TD*%
D11*
%TO.C,C1*%
X110500000Y-110000000D03*
X113500000Y-110000000D03*
%TD*%
D12*
%TO.C,Q6*%
X124150000Y-143950000D03*
X124150000Y-142050000D03*
X121850000Y-143000000D03*
%TD*%
%TO.C,Q1*%
X131850000Y-112550000D03*
X131850000Y-114450000D03*
X134150000Y-113500000D03*
%TD*%
D16*
%TO.C,IC2*%
X112200000Y-124800000D03*
X112200000Y-124000000D03*
X112200000Y-123200000D03*
X112200000Y-122400000D03*
X112200000Y-121600000D03*
X112200000Y-120800000D03*
X112200000Y-120000000D03*
X112200000Y-119200000D03*
D17*
X110800000Y-117800000D03*
X110000000Y-117800000D03*
X109200000Y-117800000D03*
X108400000Y-117800000D03*
X107600000Y-117800000D03*
X106800000Y-117800000D03*
X106000000Y-117800000D03*
X105200000Y-117800000D03*
D16*
X103800000Y-119200000D03*
X103800000Y-120000000D03*
X103800000Y-120800000D03*
X103800000Y-121600000D03*
X103800000Y-122400000D03*
X103800000Y-123200000D03*
X103800000Y-124000000D03*
X103800000Y-124800000D03*
D17*
X105200000Y-126200000D03*
X106000000Y-126200000D03*
X106800000Y-126200000D03*
X107600000Y-126200000D03*
X108400000Y-126200000D03*
X109200000Y-126200000D03*
X110000000Y-126200000D03*
X110800000Y-126200000D03*
%TD*%
D10*
%TO.C,R5*%
X135500000Y-107500000D03*
X135500000Y-110500000D03*
%TD*%
%TO.C,R3*%
X132500000Y-110500000D03*
X132500000Y-107500000D03*
%TD*%
D13*
%TO.C,R1*%
X116750000Y-109550000D03*
X116750000Y-110450000D03*
%TD*%
D18*
%TO.C,P1*%
X102965000Y-132460000D03*
X107035000Y-132460000D03*
X102965000Y-133730000D03*
X107035000Y-133730000D03*
X102965000Y-135000000D03*
X107035000Y-135000000D03*
X102965000Y-136270000D03*
X107035000Y-136270000D03*
X102965000Y-137540000D03*
X107035000Y-137540000D03*
%TD*%
D12*
%TO.C,Q3*%
X137850000Y-108050000D03*
X137850000Y-109950000D03*
X140150000Y-109000000D03*
%TD*%
%TO.C,Q12*%
X124150000Y-148450000D03*
X124150000Y-146550000D03*
X121850000Y-147500000D03*
%TD*%
D19*
%TO.C,TP1*%
X145600000Y-110700000D03*
%TD*%
D11*
%TO.C,R14*%
X137000000Y-143500000D03*
X140000000Y-143500000D03*
%TD*%
D13*
%TO.C,R15*%
X104450000Y-115900000D03*
X103550000Y-115900000D03*
%TD*%
D12*
%TO.C,Q10*%
X105850000Y-142050000D03*
X105850000Y-143950000D03*
X108150000Y-143000000D03*
%TD*%
D10*
%TO.C,R6*%
X135500000Y-127500000D03*
X135500000Y-130500000D03*
%TD*%
D11*
%TO.C,R13*%
X137000000Y-123500000D03*
X140000000Y-123500000D03*
%TD*%
D12*
%TO.C,Q5*%
X137850000Y-128050000D03*
X137850000Y-129950000D03*
X140150000Y-129000000D03*
%TD*%
%TO.C,Q8*%
X131850000Y-142550000D03*
X131850000Y-144450000D03*
X134150000Y-143500000D03*
%TD*%
D20*
%TO.C,IC3*%
X117700000Y-115515000D03*
X117700000Y-116785000D03*
X117700000Y-118055000D03*
X117700000Y-119325000D03*
X117700000Y-120595000D03*
X117700000Y-121865000D03*
X117700000Y-123135000D03*
X117700000Y-124405000D03*
X117700000Y-125675000D03*
X117700000Y-126945000D03*
X117700000Y-128215000D03*
X117700000Y-129485000D03*
X127300000Y-129485000D03*
X127300000Y-128215000D03*
X127300000Y-126945000D03*
X127300000Y-125675000D03*
X127300000Y-124405000D03*
X127300000Y-123135000D03*
X127300000Y-121865000D03*
X127300000Y-120595000D03*
X127300000Y-119325000D03*
X127300000Y-118055000D03*
X127300000Y-116785000D03*
X127300000Y-115515000D03*
%TD*%
D14*
%TO.C,C3*%
X110700000Y-112500000D03*
X112300000Y-112500000D03*
%TD*%
D10*
%TO.C,R4*%
X132500000Y-130500000D03*
X132500000Y-127500000D03*
%TD*%
D13*
%TO.C,R2*%
X115250000Y-109550000D03*
X115250000Y-110450000D03*
%TD*%
M02*
