M48
; DRILL file {KiCad 5.1.4-e60b266~84~ubuntu18.04.1} date Thu 05 Sep 2019 01:59:38 BST
; FORMAT={-:-/ absolute / inch / decimal}
; #@! TF.CreationDate,2019-09-05T01:59:38+01:00
; #@! TF.GenerationSoftware,Kicad,Pcbnew,5.1.4-e60b266~84~ubuntu18.04.1
; #@! TF.FileFunction,NonPlated,1,2,NPTH
FMAT,2
INCH
T1C0.0236
T2C0.1299
%
G90
G05
T1
X3.9961Y-2.126
X4.0236Y-2.0551
X4.0236Y-2.1969
X4.0945Y-2.0276
X4.0945Y-2.2244
X4.1654Y-2.0551
X4.1654Y-2.1969
X4.1929Y-2.126
X7.6181Y-5.748
X7.6457Y-5.6772
X7.6457Y-5.8189
X7.7165Y-5.6496
X7.7165Y-5.8465
X7.7874Y-5.6772
X7.7874Y-5.8189
X7.815Y-5.748
X3.9961Y-5.748
X4.0236Y-5.6772
X4.0236Y-5.8189
X4.0945Y-5.6496
X4.0945Y-5.8465
X4.1654Y-5.6772
X4.1654Y-5.8189
X4.1929Y-5.748
X7.6181Y-2.126
X7.6457Y-2.0551
X7.6457Y-2.1969
X7.7165Y-2.0276
X7.7165Y-2.2244
X7.7874Y-2.0551
X7.7874Y-2.1969
X7.815Y-2.126
T2
X4.0945Y-2.126
X7.7165Y-5.748
X4.0945Y-5.748
X7.7165Y-2.126
T0
M30
