G04 #@! TF.GenerationSoftware,KiCad,Pcbnew,5.1.4-e60b266~84~ubuntu18.04.1*
G04 #@! TF.CreationDate,2019-09-05T01:59:36+01:00*
G04 #@! TF.ProjectId,psu,7073752e-6b69-4636-9164-5f7063625858,1*
G04 #@! TF.SameCoordinates,Original*
G04 #@! TF.FileFunction,Copper,L1,Top*
G04 #@! TF.FilePolarity,Positive*
%FSLAX46Y46*%
G04 Gerber Fmt 4.6, Leading zero omitted, Abs format (unit mm)*
G04 Created by KiCad (PCBNEW 5.1.4-e60b266~84~ubuntu18.04.1) date 2019-09-05 01:59:36*
%MOMM*%
%LPD*%
G04 APERTURE LIST*
%ADD10R,0.600000X1.100000*%
%ADD11R,1.300000X0.800000*%
%ADD12R,3.000000X2.100000*%
%ADD13R,1.550000X0.600000*%
%ADD14R,0.950000X1.000000*%
%ADD15R,2.700000X1.150000*%
%ADD16R,1.000000X0.950000*%
%ADD17C,0.100000*%
%ADD18C,3.400000*%
%ADD19C,1.900000*%
%ADD20R,1.900000X1.900000*%
%ADD21R,1.800000X1.150000*%
%ADD22R,1.150000X1.800000*%
%ADD23R,1.000000X0.800000*%
%ADD24C,1.000000*%
%ADD25R,2.000000X2.750000*%
%ADD26R,1.000000X0.600000*%
%ADD27C,1.600000*%
%ADD28C,9.750000*%
%ADD29R,0.740000X2.790000*%
%ADD30C,2.000000*%
%ADD31R,1.100000X0.600000*%
%ADD32C,1.500000*%
%ADD33R,1.200000X0.500000*%
%ADD34R,0.500000X1.200000*%
%ADD35R,0.600000X1.000000*%
%ADD36R,6.700000X6.700000*%
%ADD37R,2.800000X1.600000*%
%ADD38R,0.800000X1.000000*%
%ADD39R,3.300000X2.500000*%
%ADD40R,2.500000X1.700000*%
%ADD41R,1.450000X1.150000*%
%ADD42R,5.400000X1.550000*%
%ADD43R,2.500000X7.500000*%
%ADD44R,4.100000X2.000000*%
%ADD45R,1.150000X1.450000*%
%ADD46C,0.800000*%
%ADD47C,1.200000*%
%ADD48C,2.000000*%
%ADD49C,1.000000*%
%ADD50C,0.300000*%
%ADD51C,1.500000*%
%ADD52C,0.500000*%
%ADD53C,0.800000*%
%ADD54C,0.200000*%
G04 APERTURE END LIST*
D10*
X107950000Y-107800000D03*
X106050000Y-107800000D03*
X106050000Y-105200000D03*
X107000000Y-105200000D03*
X107950000Y-105200000D03*
D11*
X196500000Y-134875000D03*
X196500000Y-133625000D03*
X196500000Y-132375000D03*
X196500000Y-131125000D03*
D12*
X193750000Y-137425000D03*
X193750000Y-128575000D03*
D13*
X188700000Y-131095000D03*
X188700000Y-132365000D03*
X188700000Y-133635000D03*
X188700000Y-134905000D03*
X183300000Y-134905000D03*
X183300000Y-133635000D03*
X183300000Y-132365000D03*
X183300000Y-131095000D03*
D14*
X188200000Y-129250000D03*
X189800000Y-129250000D03*
X182600000Y-136750000D03*
X184200000Y-136750000D03*
D15*
X146000000Y-144500000D03*
X146000000Y-141500000D03*
D10*
X175550000Y-116200000D03*
X177450000Y-116200000D03*
X177450000Y-118800000D03*
X176500000Y-118800000D03*
X175550000Y-118800000D03*
D16*
X174000000Y-118300000D03*
X174000000Y-116700000D03*
X172500000Y-118300000D03*
X172500000Y-116700000D03*
D17*
G36*
X112433315Y-91154093D02*
G01*
X112515827Y-91166333D01*
X112596742Y-91186601D01*
X112675281Y-91214702D01*
X112750687Y-91250367D01*
X112822235Y-91293251D01*
X112889234Y-91342941D01*
X112951041Y-91398959D01*
X113007059Y-91460766D01*
X113056749Y-91527765D01*
X113099633Y-91599313D01*
X113135298Y-91674719D01*
X113163399Y-91753258D01*
X113183667Y-91834173D01*
X113195907Y-91916685D01*
X113200000Y-92000000D01*
X113200000Y-95000000D01*
X113195907Y-95083315D01*
X113183667Y-95165827D01*
X113163399Y-95246742D01*
X113135298Y-95325281D01*
X113099633Y-95400687D01*
X113056749Y-95472235D01*
X113007059Y-95539234D01*
X112951041Y-95601041D01*
X112889234Y-95657059D01*
X112822235Y-95706749D01*
X112750687Y-95749633D01*
X112675281Y-95785298D01*
X112596742Y-95813399D01*
X112515827Y-95833667D01*
X112433315Y-95845907D01*
X112350000Y-95850000D01*
X110650000Y-95850000D01*
X110566685Y-95845907D01*
X110484173Y-95833667D01*
X110403258Y-95813399D01*
X110324719Y-95785298D01*
X110249313Y-95749633D01*
X110177765Y-95706749D01*
X110110766Y-95657059D01*
X110048959Y-95601041D01*
X109992941Y-95539234D01*
X109943251Y-95472235D01*
X109900367Y-95400687D01*
X109864702Y-95325281D01*
X109836601Y-95246742D01*
X109816333Y-95165827D01*
X109804093Y-95083315D01*
X109800000Y-95000000D01*
X109800000Y-92000000D01*
X109804093Y-91916685D01*
X109816333Y-91834173D01*
X109836601Y-91753258D01*
X109864702Y-91674719D01*
X109900367Y-91599313D01*
X109943251Y-91527765D01*
X109992941Y-91460766D01*
X110048959Y-91398959D01*
X110110766Y-91342941D01*
X110177765Y-91293251D01*
X110249313Y-91250367D01*
X110324719Y-91214702D01*
X110403258Y-91186601D01*
X110484173Y-91166333D01*
X110566685Y-91154093D01*
X110650000Y-91150000D01*
X112350000Y-91150000D01*
X112433315Y-91154093D01*
X112433315Y-91154093D01*
G37*
D18*
X111500000Y-93500000D03*
D17*
G36*
X112433315Y-104154093D02*
G01*
X112515827Y-104166333D01*
X112596742Y-104186601D01*
X112675281Y-104214702D01*
X112750687Y-104250367D01*
X112822235Y-104293251D01*
X112889234Y-104342941D01*
X112951041Y-104398959D01*
X113007059Y-104460766D01*
X113056749Y-104527765D01*
X113099633Y-104599313D01*
X113135298Y-104674719D01*
X113163399Y-104753258D01*
X113183667Y-104834173D01*
X113195907Y-104916685D01*
X113200000Y-105000000D01*
X113200000Y-108000000D01*
X113195907Y-108083315D01*
X113183667Y-108165827D01*
X113163399Y-108246742D01*
X113135298Y-108325281D01*
X113099633Y-108400687D01*
X113056749Y-108472235D01*
X113007059Y-108539234D01*
X112951041Y-108601041D01*
X112889234Y-108657059D01*
X112822235Y-108706749D01*
X112750687Y-108749633D01*
X112675281Y-108785298D01*
X112596742Y-108813399D01*
X112515827Y-108833667D01*
X112433315Y-108845907D01*
X112350000Y-108850000D01*
X110650000Y-108850000D01*
X110566685Y-108845907D01*
X110484173Y-108833667D01*
X110403258Y-108813399D01*
X110324719Y-108785298D01*
X110249313Y-108749633D01*
X110177765Y-108706749D01*
X110110766Y-108657059D01*
X110048959Y-108601041D01*
X109992941Y-108539234D01*
X109943251Y-108472235D01*
X109900367Y-108400687D01*
X109864702Y-108325281D01*
X109836601Y-108246742D01*
X109816333Y-108165827D01*
X109804093Y-108083315D01*
X109800000Y-108000000D01*
X109800000Y-105000000D01*
X109804093Y-104916685D01*
X109816333Y-104834173D01*
X109836601Y-104753258D01*
X109864702Y-104674719D01*
X109900367Y-104599313D01*
X109943251Y-104527765D01*
X109992941Y-104460766D01*
X110048959Y-104398959D01*
X110110766Y-104342941D01*
X110177765Y-104293251D01*
X110249313Y-104250367D01*
X110324719Y-104214702D01*
X110403258Y-104186601D01*
X110484173Y-104166333D01*
X110566685Y-104154093D01*
X110650000Y-104150000D01*
X112350000Y-104150000D01*
X112433315Y-104154093D01*
X112433315Y-104154093D01*
G37*
D18*
X111500000Y-106500000D03*
D17*
G36*
X112433315Y-110654093D02*
G01*
X112515827Y-110666333D01*
X112596742Y-110686601D01*
X112675281Y-110714702D01*
X112750687Y-110750367D01*
X112822235Y-110793251D01*
X112889234Y-110842941D01*
X112951041Y-110898959D01*
X113007059Y-110960766D01*
X113056749Y-111027765D01*
X113099633Y-111099313D01*
X113135298Y-111174719D01*
X113163399Y-111253258D01*
X113183667Y-111334173D01*
X113195907Y-111416685D01*
X113200000Y-111500000D01*
X113200000Y-114500000D01*
X113195907Y-114583315D01*
X113183667Y-114665827D01*
X113163399Y-114746742D01*
X113135298Y-114825281D01*
X113099633Y-114900687D01*
X113056749Y-114972235D01*
X113007059Y-115039234D01*
X112951041Y-115101041D01*
X112889234Y-115157059D01*
X112822235Y-115206749D01*
X112750687Y-115249633D01*
X112675281Y-115285298D01*
X112596742Y-115313399D01*
X112515827Y-115333667D01*
X112433315Y-115345907D01*
X112350000Y-115350000D01*
X110650000Y-115350000D01*
X110566685Y-115345907D01*
X110484173Y-115333667D01*
X110403258Y-115313399D01*
X110324719Y-115285298D01*
X110249313Y-115249633D01*
X110177765Y-115206749D01*
X110110766Y-115157059D01*
X110048959Y-115101041D01*
X109992941Y-115039234D01*
X109943251Y-114972235D01*
X109900367Y-114900687D01*
X109864702Y-114825281D01*
X109836601Y-114746742D01*
X109816333Y-114665827D01*
X109804093Y-114583315D01*
X109800000Y-114500000D01*
X109800000Y-111500000D01*
X109804093Y-111416685D01*
X109816333Y-111334173D01*
X109836601Y-111253258D01*
X109864702Y-111174719D01*
X109900367Y-111099313D01*
X109943251Y-111027765D01*
X109992941Y-110960766D01*
X110048959Y-110898959D01*
X110110766Y-110842941D01*
X110177765Y-110793251D01*
X110249313Y-110750367D01*
X110324719Y-110714702D01*
X110403258Y-110686601D01*
X110484173Y-110666333D01*
X110566685Y-110654093D01*
X110650000Y-110650000D01*
X112350000Y-110650000D01*
X112433315Y-110654093D01*
X112433315Y-110654093D01*
G37*
D18*
X111500000Y-113000000D03*
D17*
G36*
X112433315Y-97654093D02*
G01*
X112515827Y-97666333D01*
X112596742Y-97686601D01*
X112675281Y-97714702D01*
X112750687Y-97750367D01*
X112822235Y-97793251D01*
X112889234Y-97842941D01*
X112951041Y-97898959D01*
X113007059Y-97960766D01*
X113056749Y-98027765D01*
X113099633Y-98099313D01*
X113135298Y-98174719D01*
X113163399Y-98253258D01*
X113183667Y-98334173D01*
X113195907Y-98416685D01*
X113200000Y-98500000D01*
X113200000Y-101500000D01*
X113195907Y-101583315D01*
X113183667Y-101665827D01*
X113163399Y-101746742D01*
X113135298Y-101825281D01*
X113099633Y-101900687D01*
X113056749Y-101972235D01*
X113007059Y-102039234D01*
X112951041Y-102101041D01*
X112889234Y-102157059D01*
X112822235Y-102206749D01*
X112750687Y-102249633D01*
X112675281Y-102285298D01*
X112596742Y-102313399D01*
X112515827Y-102333667D01*
X112433315Y-102345907D01*
X112350000Y-102350000D01*
X110650000Y-102350000D01*
X110566685Y-102345907D01*
X110484173Y-102333667D01*
X110403258Y-102313399D01*
X110324719Y-102285298D01*
X110249313Y-102249633D01*
X110177765Y-102206749D01*
X110110766Y-102157059D01*
X110048959Y-102101041D01*
X109992941Y-102039234D01*
X109943251Y-101972235D01*
X109900367Y-101900687D01*
X109864702Y-101825281D01*
X109836601Y-101746742D01*
X109816333Y-101665827D01*
X109804093Y-101583315D01*
X109800000Y-101500000D01*
X109800000Y-98500000D01*
X109804093Y-98416685D01*
X109816333Y-98334173D01*
X109836601Y-98253258D01*
X109864702Y-98174719D01*
X109900367Y-98099313D01*
X109943251Y-98027765D01*
X109992941Y-97960766D01*
X110048959Y-97898959D01*
X110110766Y-97842941D01*
X110177765Y-97793251D01*
X110249313Y-97750367D01*
X110324719Y-97714702D01*
X110403258Y-97686601D01*
X110484173Y-97666333D01*
X110566685Y-97654093D01*
X110650000Y-97650000D01*
X112350000Y-97650000D01*
X112433315Y-97654093D01*
X112433315Y-97654093D01*
G37*
D18*
X111500000Y-100000000D03*
D17*
G36*
X162583315Y-141304093D02*
G01*
X162665827Y-141316333D01*
X162746742Y-141336601D01*
X162825281Y-141364702D01*
X162900687Y-141400367D01*
X162972235Y-141443251D01*
X163039234Y-141492941D01*
X163101041Y-141548959D01*
X163157059Y-141610766D01*
X163206749Y-141677765D01*
X163249633Y-141749313D01*
X163285298Y-141824719D01*
X163313399Y-141903258D01*
X163333667Y-141984173D01*
X163345907Y-142066685D01*
X163350000Y-142150000D01*
X163350000Y-143850000D01*
X163345907Y-143933315D01*
X163333667Y-144015827D01*
X163313399Y-144096742D01*
X163285298Y-144175281D01*
X163249633Y-144250687D01*
X163206749Y-144322235D01*
X163157059Y-144389234D01*
X163101041Y-144451041D01*
X163039234Y-144507059D01*
X162972235Y-144556749D01*
X162900687Y-144599633D01*
X162825281Y-144635298D01*
X162746742Y-144663399D01*
X162665827Y-144683667D01*
X162583315Y-144695907D01*
X162500000Y-144700000D01*
X159500000Y-144700000D01*
X159416685Y-144695907D01*
X159334173Y-144683667D01*
X159253258Y-144663399D01*
X159174719Y-144635298D01*
X159099313Y-144599633D01*
X159027765Y-144556749D01*
X158960766Y-144507059D01*
X158898959Y-144451041D01*
X158842941Y-144389234D01*
X158793251Y-144322235D01*
X158750367Y-144250687D01*
X158714702Y-144175281D01*
X158686601Y-144096742D01*
X158666333Y-144015827D01*
X158654093Y-143933315D01*
X158650000Y-143850000D01*
X158650000Y-142150000D01*
X158654093Y-142066685D01*
X158666333Y-141984173D01*
X158686601Y-141903258D01*
X158714702Y-141824719D01*
X158750367Y-141749313D01*
X158793251Y-141677765D01*
X158842941Y-141610766D01*
X158898959Y-141548959D01*
X158960766Y-141492941D01*
X159027765Y-141443251D01*
X159099313Y-141400367D01*
X159174719Y-141364702D01*
X159253258Y-141336601D01*
X159334173Y-141316333D01*
X159416685Y-141304093D01*
X159500000Y-141300000D01*
X162500000Y-141300000D01*
X162583315Y-141304093D01*
X162583315Y-141304093D01*
G37*
D18*
X161000000Y-143000000D03*
D19*
X194500000Y-64960000D03*
D20*
X194500000Y-70040000D03*
D21*
X185500000Y-103500000D03*
X185500000Y-100500000D03*
X185500000Y-95500000D03*
X185500000Y-92500000D03*
X185500000Y-87500000D03*
X185500000Y-84500000D03*
X185500000Y-79500000D03*
X185500000Y-76500000D03*
X179500000Y-103500000D03*
X179500000Y-100500000D03*
X179500000Y-95500000D03*
X179500000Y-92500000D03*
X179500000Y-87500000D03*
X179500000Y-84500000D03*
X179500000Y-79500000D03*
X179500000Y-76500000D03*
D22*
X105500000Y-99000000D03*
X108500000Y-99000000D03*
D23*
X136800000Y-116650000D03*
X136800000Y-118350000D03*
X135200000Y-118350000D03*
X135200000Y-116650000D03*
D24*
X122500000Y-59000000D03*
X179000000Y-118500000D03*
X106000000Y-113000000D03*
X178000000Y-138500000D03*
X174000000Y-138500000D03*
X170000000Y-138500000D03*
X166000000Y-138500000D03*
D25*
X125000000Y-64525000D03*
X129000000Y-64525000D03*
X133000000Y-64525000D03*
X137000000Y-64525000D03*
X141000000Y-64525000D03*
X145000000Y-64525000D03*
X145000000Y-95475000D03*
X141000000Y-95475000D03*
X137000000Y-95475000D03*
X133000000Y-95475000D03*
X129000000Y-95475000D03*
X125000000Y-95475000D03*
D22*
X181000000Y-68000000D03*
X184000000Y-68000000D03*
D16*
X135500000Y-58800000D03*
X135500000Y-57200000D03*
X137000000Y-58800000D03*
X137000000Y-57200000D03*
D21*
X182500000Y-103500000D03*
X182500000Y-100500000D03*
X182500000Y-95500000D03*
X182500000Y-92500000D03*
X182500000Y-87500000D03*
X182500000Y-84500000D03*
X182500000Y-79500000D03*
X182500000Y-76500000D03*
D16*
X180500000Y-106800000D03*
X180500000Y-105200000D03*
D14*
X115200000Y-116750000D03*
X116800000Y-116750000D03*
X115200000Y-115250000D03*
X116800000Y-115250000D03*
D16*
X114750000Y-108450000D03*
X114750000Y-110050000D03*
X117250000Y-108450000D03*
X117250000Y-110050000D03*
D14*
X119700000Y-114500000D03*
X121300000Y-114500000D03*
X121300000Y-113000000D03*
X119700000Y-113000000D03*
X119700000Y-111500000D03*
X121300000Y-111500000D03*
D22*
X114500000Y-106500000D03*
X117500000Y-106500000D03*
D21*
X120000000Y-72000000D03*
X120000000Y-69000000D03*
D14*
X115700000Y-102000000D03*
X117300000Y-102000000D03*
X107800000Y-101000000D03*
X106200000Y-101000000D03*
D22*
X108500000Y-91500000D03*
X105500000Y-91500000D03*
D14*
X187300000Y-122000000D03*
X188900000Y-122000000D03*
X187300000Y-119000000D03*
X188900000Y-119000000D03*
D16*
X185600000Y-123800000D03*
X185600000Y-122200000D03*
X178000000Y-142300000D03*
X178000000Y-140700000D03*
X182000000Y-142300000D03*
X182000000Y-140700000D03*
X186000000Y-142300000D03*
X186000000Y-140700000D03*
X174000000Y-142300000D03*
X174000000Y-140700000D03*
X170000000Y-142300000D03*
X170000000Y-140700000D03*
D14*
X106200000Y-116500000D03*
X107800000Y-116500000D03*
X107800000Y-115000000D03*
X106200000Y-115000000D03*
D16*
X166000000Y-142300000D03*
X166000000Y-140700000D03*
D26*
X141850000Y-57000000D03*
X144150000Y-56050000D03*
X144150000Y-57950000D03*
D17*
G36*
X122385523Y-105740478D02*
G01*
X122395153Y-105741906D01*
X122404596Y-105744272D01*
X122413762Y-105747551D01*
X122422563Y-105751713D01*
X122430913Y-105756718D01*
X122438732Y-105762517D01*
X122445945Y-105769055D01*
X122452483Y-105776268D01*
X122458282Y-105784087D01*
X122463287Y-105792437D01*
X122467449Y-105801238D01*
X122470728Y-105810404D01*
X122473094Y-105819847D01*
X122474522Y-105829477D01*
X122475000Y-105839200D01*
X122475000Y-107240800D01*
X122474522Y-107250523D01*
X122473094Y-107260153D01*
X122470728Y-107269596D01*
X122467449Y-107278762D01*
X122463287Y-107287563D01*
X122458282Y-107295913D01*
X122452483Y-107303732D01*
X122445945Y-107310945D01*
X122438732Y-107317483D01*
X122430913Y-107323282D01*
X122422563Y-107328287D01*
X122413762Y-107332449D01*
X122404596Y-107335728D01*
X122395153Y-107338094D01*
X122385523Y-107339522D01*
X122375800Y-107340000D01*
X119074200Y-107340000D01*
X119064477Y-107339522D01*
X119054847Y-107338094D01*
X119045404Y-107335728D01*
X119036238Y-107332449D01*
X119027437Y-107328287D01*
X119019087Y-107323282D01*
X119011268Y-107317483D01*
X119004055Y-107310945D01*
X118997517Y-107303732D01*
X118991718Y-107295913D01*
X118986713Y-107287563D01*
X118982551Y-107278762D01*
X118979272Y-107269596D01*
X118976906Y-107260153D01*
X118975478Y-107250523D01*
X118975000Y-107240800D01*
X118975000Y-105839200D01*
X118975478Y-105829477D01*
X118976906Y-105819847D01*
X118979272Y-105810404D01*
X118982551Y-105801238D01*
X118986713Y-105792437D01*
X118991718Y-105784087D01*
X118997517Y-105776268D01*
X119004055Y-105769055D01*
X119011268Y-105762517D01*
X119019087Y-105756718D01*
X119027437Y-105751713D01*
X119036238Y-105747551D01*
X119045404Y-105744272D01*
X119054847Y-105741906D01*
X119064477Y-105740478D01*
X119074200Y-105740000D01*
X122375800Y-105740000D01*
X122385523Y-105740478D01*
X122385523Y-105740478D01*
G37*
D27*
X120725000Y-106540000D03*
D17*
G36*
X122385523Y-100660478D02*
G01*
X122395153Y-100661906D01*
X122404596Y-100664272D01*
X122413762Y-100667551D01*
X122422563Y-100671713D01*
X122430913Y-100676718D01*
X122438732Y-100682517D01*
X122445945Y-100689055D01*
X122452483Y-100696268D01*
X122458282Y-100704087D01*
X122463287Y-100712437D01*
X122467449Y-100721238D01*
X122470728Y-100730404D01*
X122473094Y-100739847D01*
X122474522Y-100749477D01*
X122475000Y-100759200D01*
X122475000Y-102160800D01*
X122474522Y-102170523D01*
X122473094Y-102180153D01*
X122470728Y-102189596D01*
X122467449Y-102198762D01*
X122463287Y-102207563D01*
X122458282Y-102215913D01*
X122452483Y-102223732D01*
X122445945Y-102230945D01*
X122438732Y-102237483D01*
X122430913Y-102243282D01*
X122422563Y-102248287D01*
X122413762Y-102252449D01*
X122404596Y-102255728D01*
X122395153Y-102258094D01*
X122385523Y-102259522D01*
X122375800Y-102260000D01*
X119074200Y-102260000D01*
X119064477Y-102259522D01*
X119054847Y-102258094D01*
X119045404Y-102255728D01*
X119036238Y-102252449D01*
X119027437Y-102248287D01*
X119019087Y-102243282D01*
X119011268Y-102237483D01*
X119004055Y-102230945D01*
X118997517Y-102223732D01*
X118991718Y-102215913D01*
X118986713Y-102207563D01*
X118982551Y-102198762D01*
X118979272Y-102189596D01*
X118976906Y-102180153D01*
X118975478Y-102170523D01*
X118975000Y-102160800D01*
X118975000Y-100759200D01*
X118975478Y-100749477D01*
X118976906Y-100739847D01*
X118979272Y-100730404D01*
X118982551Y-100721238D01*
X118986713Y-100712437D01*
X118991718Y-100704087D01*
X118997517Y-100696268D01*
X119004055Y-100689055D01*
X119011268Y-100682517D01*
X119019087Y-100676718D01*
X119027437Y-100671713D01*
X119036238Y-100667551D01*
X119045404Y-100664272D01*
X119054847Y-100661906D01*
X119064477Y-100660478D01*
X119074200Y-100660000D01*
X122375800Y-100660000D01*
X122385523Y-100660478D01*
X122385523Y-100660478D01*
G37*
D27*
X120725000Y-101460000D03*
D17*
G36*
X135426490Y-97902394D02*
G01*
X135474759Y-97909555D01*
X135522095Y-97921411D01*
X135568040Y-97937851D01*
X135612153Y-97958715D01*
X135654008Y-97983802D01*
X135693202Y-98012870D01*
X135729359Y-98045641D01*
X135762130Y-98081798D01*
X135791198Y-98120992D01*
X135816285Y-98162847D01*
X135837149Y-98206960D01*
X135853589Y-98252905D01*
X135865445Y-98300241D01*
X135872606Y-98348510D01*
X135875000Y-98397249D01*
X135875000Y-109602751D01*
X135872606Y-109651490D01*
X135865445Y-109699759D01*
X135853589Y-109747095D01*
X135837149Y-109793040D01*
X135816285Y-109837153D01*
X135791198Y-109879008D01*
X135762130Y-109918202D01*
X135729359Y-109954359D01*
X135693202Y-109987130D01*
X135654008Y-110016198D01*
X135612153Y-110041285D01*
X135568040Y-110062149D01*
X135522095Y-110078589D01*
X135474759Y-110090445D01*
X135426490Y-110097606D01*
X135377751Y-110100000D01*
X126622249Y-110100000D01*
X126573510Y-110097606D01*
X126525241Y-110090445D01*
X126477905Y-110078589D01*
X126431960Y-110062149D01*
X126387847Y-110041285D01*
X126345992Y-110016198D01*
X126306798Y-109987130D01*
X126270641Y-109954359D01*
X126237870Y-109918202D01*
X126208802Y-109879008D01*
X126183715Y-109837153D01*
X126162851Y-109793040D01*
X126146411Y-109747095D01*
X126134555Y-109699759D01*
X126127394Y-109651490D01*
X126125000Y-109602751D01*
X126125000Y-98397249D01*
X126127394Y-98348510D01*
X126134555Y-98300241D01*
X126146411Y-98252905D01*
X126162851Y-98206960D01*
X126183715Y-98162847D01*
X126208802Y-98120992D01*
X126237870Y-98081798D01*
X126270641Y-98045641D01*
X126306798Y-98012870D01*
X126345992Y-97983802D01*
X126387847Y-97958715D01*
X126431960Y-97937851D01*
X126477905Y-97921411D01*
X126525241Y-97909555D01*
X126573510Y-97902394D01*
X126622249Y-97900000D01*
X135377751Y-97900000D01*
X135426490Y-97902394D01*
X135426490Y-97902394D01*
G37*
D28*
X131000000Y-104000000D03*
D29*
X153540000Y-130965000D03*
X153540000Y-135035000D03*
X152270000Y-130965000D03*
X152270000Y-135035000D03*
X151000000Y-130965000D03*
X151000000Y-135035000D03*
X149730000Y-130965000D03*
X149730000Y-135035000D03*
X148460000Y-130965000D03*
X148460000Y-135035000D03*
D16*
X133500000Y-116700000D03*
X133500000Y-118300000D03*
D19*
X194500000Y-116690000D03*
X194500000Y-119230000D03*
X194500000Y-121770000D03*
D20*
X194500000Y-124310000D03*
D17*
G36*
X107698018Y-131004815D02*
G01*
X107795091Y-131019215D01*
X107890286Y-131043060D01*
X107982684Y-131076120D01*
X108071398Y-131118079D01*
X108155571Y-131168530D01*
X108234394Y-131226990D01*
X108307108Y-131292893D01*
X108373011Y-131365607D01*
X108431471Y-131444430D01*
X108481922Y-131528603D01*
X108523881Y-131617317D01*
X108556941Y-131709715D01*
X108580786Y-131804910D01*
X108595186Y-131901983D01*
X108600001Y-132000000D01*
X108600001Y-134200000D01*
X108595186Y-134298017D01*
X108580786Y-134395090D01*
X108556941Y-134490285D01*
X108523881Y-134582683D01*
X108481922Y-134671397D01*
X108431471Y-134755570D01*
X108373011Y-134834393D01*
X108307108Y-134907107D01*
X108234394Y-134973010D01*
X108155571Y-135031470D01*
X108071398Y-135081921D01*
X107982684Y-135123880D01*
X107890286Y-135156940D01*
X107795091Y-135180785D01*
X107698018Y-135195185D01*
X107600001Y-135200000D01*
X107599999Y-135200000D01*
X107501982Y-135195185D01*
X107404909Y-135180785D01*
X107309714Y-135156940D01*
X107217316Y-135123880D01*
X107128602Y-135081921D01*
X107044429Y-135031470D01*
X106965606Y-134973010D01*
X106892892Y-134907107D01*
X106826989Y-134834393D01*
X106768529Y-134755570D01*
X106718078Y-134671397D01*
X106676119Y-134582683D01*
X106643059Y-134490285D01*
X106619214Y-134395090D01*
X106604814Y-134298017D01*
X106599999Y-134200000D01*
X106599999Y-132000000D01*
X106604814Y-131901983D01*
X106619214Y-131804910D01*
X106643059Y-131709715D01*
X106676119Y-131617317D01*
X106718078Y-131528603D01*
X106768529Y-131444430D01*
X106826989Y-131365607D01*
X106892892Y-131292893D01*
X106965606Y-131226990D01*
X107044429Y-131168530D01*
X107128602Y-131118079D01*
X107217316Y-131076120D01*
X107309714Y-131043060D01*
X107404909Y-131019215D01*
X107501982Y-131004815D01*
X107599999Y-131000000D01*
X107600001Y-131000000D01*
X107698018Y-131004815D01*
X107698018Y-131004815D01*
G37*
D30*
X107600000Y-133100000D03*
D17*
G36*
X111898017Y-137104814D02*
G01*
X111995090Y-137119214D01*
X112090285Y-137143059D01*
X112182683Y-137176119D01*
X112271397Y-137218078D01*
X112355570Y-137268529D01*
X112434393Y-137326989D01*
X112507107Y-137392892D01*
X112573010Y-137465606D01*
X112631470Y-137544429D01*
X112681921Y-137628602D01*
X112723880Y-137717316D01*
X112756940Y-137809714D01*
X112780785Y-137904909D01*
X112795185Y-138001982D01*
X112800000Y-138099999D01*
X112800000Y-138100001D01*
X112795185Y-138198018D01*
X112780785Y-138295091D01*
X112756940Y-138390286D01*
X112723880Y-138482684D01*
X112681921Y-138571398D01*
X112631470Y-138655571D01*
X112573010Y-138734394D01*
X112507107Y-138807108D01*
X112434393Y-138873011D01*
X112355570Y-138931471D01*
X112271397Y-138981922D01*
X112182683Y-139023881D01*
X112090285Y-139056941D01*
X111995090Y-139080786D01*
X111898017Y-139095186D01*
X111800000Y-139100001D01*
X109600000Y-139100001D01*
X109501983Y-139095186D01*
X109404910Y-139080786D01*
X109309715Y-139056941D01*
X109217317Y-139023881D01*
X109128603Y-138981922D01*
X109044430Y-138931471D01*
X108965607Y-138873011D01*
X108892893Y-138807108D01*
X108826990Y-138734394D01*
X108768530Y-138655571D01*
X108718079Y-138571398D01*
X108676120Y-138482684D01*
X108643060Y-138390286D01*
X108619215Y-138295091D01*
X108604815Y-138198018D01*
X108600000Y-138100001D01*
X108600000Y-138099999D01*
X108604815Y-138001982D01*
X108619215Y-137904909D01*
X108643060Y-137809714D01*
X108676120Y-137717316D01*
X108718079Y-137628602D01*
X108768530Y-137544429D01*
X108826990Y-137465606D01*
X108892893Y-137392892D01*
X108965607Y-137326989D01*
X109044430Y-137268529D01*
X109128603Y-137218078D01*
X109217317Y-137176119D01*
X109309715Y-137143059D01*
X109404910Y-137119214D01*
X109501983Y-137104814D01*
X109600000Y-137099999D01*
X111800000Y-137099999D01*
X111898017Y-137104814D01*
X111898017Y-137104814D01*
G37*
D30*
X110700000Y-138100000D03*
D17*
G36*
X113898018Y-131004815D02*
G01*
X113995091Y-131019215D01*
X114090286Y-131043060D01*
X114182684Y-131076120D01*
X114271398Y-131118079D01*
X114355571Y-131168530D01*
X114434394Y-131226990D01*
X114507108Y-131292893D01*
X114573011Y-131365607D01*
X114631471Y-131444430D01*
X114681922Y-131528603D01*
X114723881Y-131617317D01*
X114756941Y-131709715D01*
X114780786Y-131804910D01*
X114795186Y-131901983D01*
X114800001Y-132000000D01*
X114800001Y-134200000D01*
X114795186Y-134298017D01*
X114780786Y-134395090D01*
X114756941Y-134490285D01*
X114723881Y-134582683D01*
X114681922Y-134671397D01*
X114631471Y-134755570D01*
X114573011Y-134834393D01*
X114507108Y-134907107D01*
X114434394Y-134973010D01*
X114355571Y-135031470D01*
X114271398Y-135081921D01*
X114182684Y-135123880D01*
X114090286Y-135156940D01*
X113995091Y-135180785D01*
X113898018Y-135195185D01*
X113800001Y-135200000D01*
X113799999Y-135200000D01*
X113701982Y-135195185D01*
X113604909Y-135180785D01*
X113509714Y-135156940D01*
X113417316Y-135123880D01*
X113328602Y-135081921D01*
X113244429Y-135031470D01*
X113165606Y-134973010D01*
X113092892Y-134907107D01*
X113026989Y-134834393D01*
X112968529Y-134755570D01*
X112918078Y-134671397D01*
X112876119Y-134582683D01*
X112843059Y-134490285D01*
X112819214Y-134395090D01*
X112804814Y-134298017D01*
X112799999Y-134200000D01*
X112799999Y-132000000D01*
X112804814Y-131901983D01*
X112819214Y-131804910D01*
X112843059Y-131709715D01*
X112876119Y-131617317D01*
X112918078Y-131528603D01*
X112968529Y-131444430D01*
X113026989Y-131365607D01*
X113092892Y-131292893D01*
X113165606Y-131226990D01*
X113244429Y-131168530D01*
X113328602Y-131118079D01*
X113417316Y-131076120D01*
X113509714Y-131043060D01*
X113604909Y-131019215D01*
X113701982Y-131004815D01*
X113799999Y-131000000D01*
X113800001Y-131000000D01*
X113898018Y-131004815D01*
X113898018Y-131004815D01*
G37*
D30*
X113800000Y-133100000D03*
D10*
X129050000Y-56700000D03*
X130950000Y-56700000D03*
X130950000Y-59300000D03*
X130000000Y-59300000D03*
X129050000Y-59300000D03*
D31*
X183800000Y-64050000D03*
X183800000Y-65950000D03*
X181200000Y-65950000D03*
X181200000Y-65000000D03*
X181200000Y-64050000D03*
X114700000Y-113700000D03*
X114700000Y-111800000D03*
X117300000Y-111800000D03*
X117300000Y-112750000D03*
X117300000Y-113700000D03*
D10*
X117450000Y-100300000D03*
X115550000Y-100300000D03*
X115550000Y-97700000D03*
X116500000Y-97700000D03*
X117450000Y-97700000D03*
D31*
X108300000Y-93550000D03*
X108300000Y-95450000D03*
X105700000Y-95450000D03*
X105700000Y-94500000D03*
X105700000Y-93550000D03*
X151300000Y-142050000D03*
X151300000Y-143950000D03*
X148700000Y-143950000D03*
X148700000Y-143000000D03*
X148700000Y-142050000D03*
D32*
X140540000Y-144500000D03*
X138000000Y-144500000D03*
X135460000Y-144500000D03*
D33*
X138200000Y-122700000D03*
X138200000Y-123500000D03*
X138200000Y-124300000D03*
X138200000Y-125100000D03*
X138200000Y-125900000D03*
X138200000Y-126700000D03*
X138200000Y-127500000D03*
X138200000Y-128300000D03*
D34*
X136800000Y-129700000D03*
X136000000Y-129700000D03*
X135200000Y-129700000D03*
X134400000Y-129700000D03*
X133600000Y-129700000D03*
X132800000Y-129700000D03*
X132000000Y-129700000D03*
X131200000Y-129700000D03*
D33*
X129800000Y-128300000D03*
X129800000Y-127500000D03*
X129800000Y-126700000D03*
X129800000Y-125900000D03*
X129800000Y-125100000D03*
X129800000Y-124300000D03*
X129800000Y-123500000D03*
X129800000Y-122700000D03*
D34*
X131200000Y-121300000D03*
X132000000Y-121300000D03*
X132800000Y-121300000D03*
X133600000Y-121300000D03*
X134400000Y-121300000D03*
X135200000Y-121300000D03*
X136000000Y-121300000D03*
X136800000Y-121300000D03*
D32*
X124540000Y-144500000D03*
X122000000Y-144500000D03*
X119460000Y-144500000D03*
D35*
X184500000Y-71350000D03*
X185450000Y-73650000D03*
X183550000Y-73650000D03*
X180500000Y-71350000D03*
X181450000Y-73650000D03*
X179550000Y-73650000D03*
D36*
X159500000Y-63000000D03*
D37*
X151750000Y-60714000D03*
X151750000Y-65286000D03*
D38*
X123500000Y-111700000D03*
X123500000Y-115300000D03*
X126000000Y-115300000D03*
X126000000Y-111700000D03*
D14*
X187300000Y-124000000D03*
X188900000Y-124000000D03*
X187300000Y-120500000D03*
X188900000Y-120500000D03*
X187300000Y-117500000D03*
X188900000Y-117500000D03*
D16*
X178000000Y-144200000D03*
X178000000Y-145800000D03*
X182000000Y-144200000D03*
X182000000Y-145800000D03*
X186000000Y-144200000D03*
X186000000Y-145800000D03*
X174000000Y-144200000D03*
X174000000Y-145800000D03*
X170000000Y-144200000D03*
X170000000Y-145800000D03*
X166000000Y-144200000D03*
X166000000Y-145800000D03*
D39*
X119000000Y-136550000D03*
X119000000Y-129650000D03*
D40*
X109000000Y-126000000D03*
X113000000Y-126000000D03*
D41*
X133500000Y-58900000D03*
X133500000Y-57100000D03*
D16*
X125500000Y-58800000D03*
X125500000Y-57200000D03*
X127000000Y-58800000D03*
X127000000Y-57200000D03*
D14*
X181700000Y-62500000D03*
X183300000Y-62500000D03*
X183300000Y-61000000D03*
X181700000Y-61000000D03*
D16*
X178500000Y-106800000D03*
X178500000Y-105200000D03*
D42*
X173000000Y-104650000D03*
X173000000Y-99350000D03*
X173000000Y-92650000D03*
X173000000Y-87350000D03*
X173000000Y-80650000D03*
X173000000Y-75350000D03*
D14*
X111100000Y-118100000D03*
X112700000Y-118100000D03*
D43*
X159500000Y-94250000D03*
X159500000Y-107750000D03*
X159500000Y-72250000D03*
X159500000Y-85750000D03*
D14*
X111100000Y-116600000D03*
X112700000Y-116600000D03*
D21*
X120000000Y-67000000D03*
X120000000Y-64000000D03*
D14*
X117300000Y-96000000D03*
X115700000Y-96000000D03*
D21*
X115000000Y-67000000D03*
X115000000Y-64000000D03*
D22*
X118000000Y-94000000D03*
X115000000Y-94000000D03*
D21*
X117500000Y-67000000D03*
X117500000Y-64000000D03*
D15*
X108500000Y-67000000D03*
X108500000Y-64000000D03*
X112000000Y-67000000D03*
X112000000Y-64000000D03*
D44*
X107650000Y-73500000D03*
X116350000Y-73500000D03*
X107650000Y-84500000D03*
X116350000Y-84500000D03*
D45*
X107900000Y-103000000D03*
X106100000Y-103000000D03*
D14*
X106200000Y-111000000D03*
X107800000Y-111000000D03*
X106200000Y-97000000D03*
X107800000Y-97000000D03*
X106200000Y-109500000D03*
X107800000Y-109500000D03*
D16*
X153000000Y-143800000D03*
X153000000Y-142200000D03*
D15*
X130000000Y-144500000D03*
X130000000Y-141500000D03*
D16*
X132000000Y-116700000D03*
X132000000Y-118300000D03*
X130500000Y-116700000D03*
X130500000Y-118300000D03*
D15*
X114000000Y-144500000D03*
X114000000Y-141500000D03*
D14*
X129700000Y-132000000D03*
X131300000Y-132000000D03*
D16*
X140500000Y-122800000D03*
X140500000Y-121200000D03*
X138500000Y-118300000D03*
X138500000Y-116700000D03*
D15*
X155500000Y-144500000D03*
X155500000Y-141500000D03*
D14*
X106200000Y-118000000D03*
X107800000Y-118000000D03*
D46*
X158900000Y-144400000D03*
X158900000Y-141600000D03*
X105200000Y-111000000D03*
X130500000Y-115700000D03*
X139700000Y-118300000D03*
X135200000Y-119200000D03*
X181900000Y-134900000D03*
X163100000Y-144400000D03*
X163100000Y-141600000D03*
X172500000Y-119500000D03*
X176500000Y-120100000D03*
X186100000Y-117500000D03*
X186100000Y-120500000D03*
X187300000Y-125200000D03*
X149800000Y-137100000D03*
X150900000Y-137100000D03*
X153500000Y-137100000D03*
D47*
X185500000Y-107750000D03*
X184300000Y-107750000D03*
X183100000Y-107750000D03*
X183100000Y-115600000D03*
X183100000Y-116800000D03*
D46*
X130000000Y-60500000D03*
X124350000Y-58800000D03*
X133500000Y-60150000D03*
D47*
X130000000Y-145750000D03*
D46*
X165000000Y-145800000D03*
X169000000Y-145800000D03*
X173000000Y-145800000D03*
X177000000Y-145800000D03*
X185000000Y-145800000D03*
X147650000Y-143000000D03*
D47*
X146000000Y-145750000D03*
X155500000Y-145750000D03*
D46*
X153000000Y-144750000D03*
X181000000Y-145800000D03*
D47*
X115000000Y-68500000D03*
X116250000Y-68500000D03*
X117500000Y-68500000D03*
X117500000Y-71000000D03*
X116250000Y-71000000D03*
X115000000Y-71000000D03*
X115000000Y-75500000D03*
X117500000Y-75500000D03*
X116250000Y-75500000D03*
X115000000Y-80500000D03*
X116250000Y-80500000D03*
X117500000Y-80500000D03*
X117500000Y-78000000D03*
X116250000Y-78000000D03*
X115000000Y-78000000D03*
X115000000Y-82750000D03*
X116250000Y-82750000D03*
X117500000Y-82750000D03*
X115000000Y-86250000D03*
X116250000Y-86250000D03*
X117500000Y-86250000D03*
X115000000Y-89250000D03*
X116250000Y-89250000D03*
X117500000Y-89250000D03*
X117600000Y-103600000D03*
X117600000Y-104700000D03*
X116400000Y-104700000D03*
X116400000Y-103600000D03*
X115200000Y-103600000D03*
X115200000Y-104700000D03*
X114000000Y-104700000D03*
X114100000Y-103600000D03*
X112900000Y-103600000D03*
X110100000Y-103600000D03*
X109900000Y-108900000D03*
X113100000Y-108900000D03*
D46*
X114600000Y-102000000D03*
X118000000Y-92500000D03*
X129700000Y-133200000D03*
X181500000Y-136700000D03*
X109900000Y-118100000D03*
X128600000Y-128300000D03*
X123500000Y-110600000D03*
X119700000Y-115700000D03*
X141600000Y-122500000D03*
X106200000Y-119100000D03*
X108800000Y-101000000D03*
X109100000Y-103000000D03*
X114600000Y-120400000D03*
X120400000Y-120400000D03*
D47*
X160900000Y-128400000D03*
X160900000Y-122600000D03*
X125900000Y-136200000D03*
D46*
X125500000Y-52500000D03*
X107100000Y-107800000D03*
X163600000Y-146000000D03*
X108500000Y-94300000D03*
X102000000Y-96000000D03*
D24*
X109472367Y-97229891D03*
D46*
X136000000Y-123600000D03*
X140300000Y-124100000D03*
X179800000Y-133600000D03*
X179800000Y-130700000D03*
X168700000Y-127600000D03*
X171100000Y-125200000D03*
X113000000Y-115100000D03*
X117700000Y-115100000D03*
X130000000Y-52500000D03*
X138600000Y-113200000D03*
X113800000Y-119500000D03*
X119500000Y-119500000D03*
X128700000Y-121600000D03*
X130100000Y-120200000D03*
X185400000Y-69800000D03*
X185400000Y-66300000D03*
X123300000Y-108800000D03*
X125100000Y-108800000D03*
X177350000Y-105200000D03*
X177350000Y-109750000D03*
D48*
X107600000Y-127400000D02*
X109000000Y-126000000D01*
X107600000Y-133100000D02*
X107600000Y-127400000D01*
D49*
X108500000Y-67000000D02*
X112000000Y-67000000D01*
X112000000Y-67000000D02*
X115000000Y-67000000D01*
X115000000Y-67000000D02*
X117500000Y-67000000D01*
X117500000Y-67000000D02*
X117500000Y-68500000D01*
X117350000Y-72500000D02*
X116250000Y-72250000D01*
X117500000Y-72500000D02*
X117350000Y-72500000D01*
X116350000Y-73500000D02*
X116250000Y-75500000D01*
D50*
X107900000Y-103925000D02*
X107900000Y-103000000D01*
X107625000Y-104200000D02*
X107900000Y-103925000D01*
X107250000Y-104200000D02*
X107625000Y-104200000D01*
X107000000Y-104450000D02*
X107250000Y-104200000D01*
X107000000Y-105200000D02*
X107000000Y-104450000D01*
X106200000Y-109500000D02*
X106200000Y-111000000D01*
D51*
X145000000Y-95475000D02*
X145000000Y-105000000D01*
X147750000Y-107750000D02*
X159500000Y-107750000D01*
X145000000Y-105000000D02*
X147750000Y-107750000D01*
X159500000Y-107750000D02*
X172175000Y-107750000D01*
D50*
X106200000Y-111000000D02*
X105200000Y-111000000D01*
X115550000Y-101850000D02*
X115700000Y-102000000D01*
D52*
X115550000Y-100300000D02*
X115550000Y-101850000D01*
D50*
X130500000Y-116700000D02*
X130500000Y-115700000D01*
X140400000Y-122700000D02*
X140500000Y-122800000D01*
X138500000Y-118300000D02*
X139700000Y-118300000D01*
X135200000Y-118350000D02*
X135200000Y-119200000D01*
X139100000Y-123500000D02*
X139300000Y-123300000D01*
X138200000Y-123500000D02*
X139100000Y-123500000D01*
X139300000Y-123300000D02*
X139300000Y-122700000D01*
X138200000Y-122700000D02*
X139300000Y-122700000D01*
X139300000Y-122700000D02*
X140400000Y-122700000D01*
X183300000Y-134905000D02*
X181905000Y-134905000D01*
X181905000Y-134905000D02*
X181900000Y-134900000D01*
D52*
X172500000Y-118300000D02*
X174000000Y-118300000D01*
X172500000Y-118300000D02*
X172500000Y-119500000D01*
X176500000Y-118800000D02*
X176500000Y-120100000D01*
X187300000Y-117500000D02*
X186100000Y-117500000D01*
X187300000Y-120500000D02*
X186100000Y-120500000D01*
X187300000Y-124000000D02*
X187300000Y-125200000D01*
X149730000Y-135035000D02*
X149730000Y-137030000D01*
X149730000Y-137030000D02*
X149800000Y-137100000D01*
X151000000Y-135035000D02*
X151000000Y-137000000D01*
X151000000Y-137000000D02*
X150900000Y-137100000D01*
X153540000Y-135035000D02*
X153540000Y-137060000D01*
X153540000Y-137060000D02*
X153500000Y-137100000D01*
X178500000Y-107700000D02*
X178450000Y-107750000D01*
X178500000Y-106800000D02*
X178500000Y-107700000D01*
X180500000Y-107200000D02*
X179950000Y-107750000D01*
D51*
X178450000Y-107750000D02*
X179950000Y-107750000D01*
D52*
X180500000Y-106800000D02*
X180500000Y-107200000D01*
D51*
X179950000Y-107750000D02*
X181950000Y-107750000D01*
X173000000Y-107350000D02*
X172600000Y-107750000D01*
X173000000Y-104650000D02*
X173000000Y-107350000D01*
X172175000Y-107750000D02*
X172600000Y-107750000D01*
X172600000Y-107750000D02*
X178450000Y-107750000D01*
X184300000Y-107750000D02*
X185500000Y-107750000D01*
X181950000Y-107750000D02*
X183100000Y-107750000D01*
X183100000Y-107750000D02*
X184300000Y-107750000D01*
X183100000Y-107750000D02*
X183100000Y-115600000D01*
X183100000Y-115600000D02*
X183100000Y-116800000D01*
D50*
X127000000Y-58800000D02*
X125500000Y-58800000D01*
X130000000Y-59300000D02*
X130000000Y-60500000D01*
X125500000Y-58800000D02*
X124350000Y-58800000D01*
X137000000Y-58800000D02*
X135500000Y-58800000D01*
X133600000Y-58800000D02*
X133500000Y-58900000D01*
X135500000Y-58800000D02*
X133600000Y-58800000D01*
X133500000Y-58900000D02*
X133500000Y-60150000D01*
D49*
X130000000Y-144500000D02*
X130000000Y-145750000D01*
D52*
X166000000Y-145800000D02*
X165000000Y-145800000D01*
X170000000Y-145800000D02*
X169000000Y-145800000D01*
X174000000Y-145800000D02*
X173000000Y-145800000D01*
X178000000Y-145800000D02*
X177000000Y-145800000D01*
X186000000Y-145800000D02*
X185000000Y-145800000D01*
D50*
X148700000Y-143000000D02*
X147650000Y-143000000D01*
D49*
X146000000Y-144500000D02*
X146000000Y-145750000D01*
X155500000Y-144500000D02*
X155500000Y-145750000D01*
D52*
X153000000Y-143800000D02*
X153000000Y-144750000D01*
X182000000Y-145800000D02*
X181000000Y-145800000D01*
D49*
X116500000Y-68500000D02*
X116250000Y-69750000D01*
X117500000Y-68500000D02*
X116500000Y-68500000D01*
X116250000Y-69750000D02*
X116250000Y-71000000D01*
X117500000Y-71000000D02*
X117500000Y-72250000D01*
X116250000Y-71000000D02*
X117500000Y-71000000D01*
X116250000Y-72250000D02*
X116350000Y-73500000D01*
X117500000Y-72250000D02*
X117500000Y-72500000D01*
X116250000Y-75500000D02*
X116250000Y-76750000D01*
X116250000Y-76750000D02*
X116250000Y-78000000D01*
X116250000Y-78000000D02*
X116250000Y-82750000D01*
X116250000Y-82750000D02*
X116350000Y-84500000D01*
D50*
X114750000Y-106750000D02*
X114500000Y-106500000D01*
X114750000Y-108450000D02*
X114750000Y-106750000D01*
D52*
X115700000Y-102000000D02*
X114600000Y-102000000D01*
D53*
X118000000Y-94000000D02*
X118000000Y-92500000D01*
D50*
X129700000Y-132000000D02*
X129700000Y-133200000D01*
X182600000Y-136750000D02*
X181550000Y-136750000D01*
X181550000Y-136750000D02*
X181500000Y-136700000D01*
X106200000Y-116500000D02*
X106200000Y-118000000D01*
X111100000Y-116600000D02*
X111100000Y-118100000D01*
X111100000Y-118100000D02*
X109900000Y-118100000D01*
D53*
X117300000Y-94700000D02*
X118000000Y-94000000D01*
X117300000Y-96000000D02*
X117300000Y-94700000D01*
D52*
X132000000Y-116700000D02*
X130500000Y-116700000D01*
D50*
X129800000Y-128300000D02*
X128600000Y-128300000D01*
X123500000Y-111700000D02*
X123500000Y-110600000D01*
X118150000Y-112750000D02*
X118500000Y-113100000D01*
X117300000Y-112750000D02*
X118150000Y-112750000D01*
X118500000Y-113100000D02*
X118500000Y-114200000D01*
X118800000Y-114500000D02*
X119700000Y-114500000D01*
X118500000Y-114200000D02*
X118800000Y-114500000D01*
D52*
X119700000Y-114500000D02*
X119700000Y-115700000D01*
D50*
X140500000Y-122800000D02*
X141300000Y-122800000D01*
X141300000Y-122800000D02*
X141600000Y-122500000D01*
X106200000Y-118000000D02*
X106200000Y-119100000D01*
D52*
X107800000Y-100800000D02*
X107800000Y-101000000D01*
X107000000Y-100000000D02*
X107800000Y-100800000D01*
X105500000Y-99000000D02*
X106575000Y-99000000D01*
X107000000Y-99425000D02*
X107000000Y-100000000D01*
X106575000Y-99000000D02*
X107000000Y-99425000D01*
X104425000Y-99000000D02*
X105500000Y-99000000D01*
X104300000Y-98875000D02*
X104425000Y-99000000D01*
X104650000Y-94500000D02*
X104300000Y-94850000D01*
X105700000Y-94500000D02*
X104650000Y-94500000D01*
X105225000Y-97000000D02*
X104300000Y-97000000D01*
X106200000Y-97000000D02*
X105225000Y-97000000D01*
X104300000Y-94850000D02*
X104300000Y-97000000D01*
X104300000Y-97000000D02*
X104300000Y-98875000D01*
X107800000Y-101000000D02*
X108800000Y-101000000D01*
X107800000Y-102900000D02*
X107900000Y-103000000D01*
X107800000Y-101000000D02*
X107800000Y-102900000D01*
X107900000Y-103000000D02*
X109100000Y-103000000D01*
D53*
X182500000Y-107150000D02*
X183100000Y-107750000D01*
X182500000Y-103500000D02*
X182500000Y-107150000D01*
X185500000Y-103500000D02*
X185500000Y-107750000D01*
X107000000Y-135500000D02*
X107000000Y-135000000D01*
X107000000Y-135500000D02*
X107000000Y-133100000D01*
D49*
X107100000Y-140900000D02*
X107100000Y-133100000D01*
X122000000Y-144500000D02*
X122000000Y-145800000D01*
X122000000Y-145800000D02*
X121200000Y-146600000D01*
X121200000Y-146600000D02*
X113700000Y-146600000D01*
X113700000Y-146600000D02*
X112800000Y-146600000D01*
X113300000Y-144500000D02*
X112000000Y-145800000D01*
X114000000Y-144500000D02*
X113300000Y-144500000D01*
X112800000Y-146600000D02*
X112000000Y-145800000D01*
X112000000Y-145800000D02*
X107100000Y-140900000D01*
D50*
X107800000Y-115000000D02*
X107800000Y-116500000D01*
X107800000Y-118000000D02*
X107800000Y-116500000D01*
X107800000Y-118800000D02*
X109400000Y-120400000D01*
X107800000Y-118000000D02*
X107800000Y-118800000D01*
X109400000Y-120400000D02*
X111200000Y-120400000D01*
X111200000Y-120400000D02*
X114600000Y-120400000D01*
X122700000Y-122700000D02*
X120400000Y-120400000D01*
X129800000Y-122700000D02*
X122700000Y-122700000D01*
X107800000Y-109500000D02*
X107800000Y-111000000D01*
D54*
X107950000Y-109350000D02*
X107800000Y-109500000D01*
D50*
X107950000Y-107800000D02*
X107950000Y-109350000D01*
X136900000Y-121200000D02*
X136800000Y-121300000D01*
X140500000Y-121200000D02*
X136900000Y-121200000D01*
X178000000Y-138500000D02*
X178000000Y-140700000D01*
D52*
X172500000Y-116700000D02*
X174000000Y-116700000D01*
X174500000Y-116200000D02*
X174000000Y-116700000D01*
X175550000Y-116200000D02*
X174500000Y-116200000D01*
X152850000Y-142050000D02*
X153000000Y-142200000D01*
X151300000Y-142050000D02*
X152850000Y-142050000D01*
X153700000Y-141500000D02*
X153000000Y-142200000D01*
X155500000Y-141500000D02*
X153700000Y-141500000D01*
D50*
X127500000Y-56700000D02*
X127000000Y-57200000D01*
X129050000Y-56700000D02*
X127500000Y-56700000D01*
X127000000Y-57200000D02*
X125500000Y-57200000D01*
X131200000Y-131900000D02*
X131300000Y-132000000D01*
X131200000Y-129700000D02*
X131200000Y-131900000D01*
D53*
X175700000Y-136200000D02*
X178000000Y-138500000D01*
D52*
X171500000Y-116700000D02*
X171000000Y-117200000D01*
X172500000Y-116700000D02*
X171500000Y-116700000D01*
X171000000Y-117200000D02*
X171000000Y-122300000D01*
X171000000Y-122300000D02*
X169900000Y-123400000D01*
D53*
X146600000Y-123400000D02*
X144400000Y-121200000D01*
D50*
X184500000Y-136450000D02*
X184200000Y-136750000D01*
X184500000Y-131220000D02*
X184500000Y-136450000D01*
X183300000Y-131095000D02*
X184375000Y-131095000D01*
X184375000Y-131095000D02*
X184500000Y-131220000D01*
X184550000Y-137100000D02*
X184200000Y-136750000D01*
X187700000Y-138700000D02*
X186100000Y-137100000D01*
X187700000Y-146500000D02*
X187700000Y-138700000D01*
X186100000Y-137100000D02*
X184550000Y-137100000D01*
X179500000Y-138500000D02*
X180000000Y-139000000D01*
X178000000Y-138500000D02*
X179500000Y-138500000D01*
X186700000Y-147500000D02*
X187700000Y-146500000D01*
X180000000Y-139000000D02*
X180000000Y-146700000D01*
X180000000Y-146700000D02*
X180800000Y-147500000D01*
X180800000Y-147500000D02*
X186700000Y-147500000D01*
X184500000Y-131220000D02*
X184500000Y-124900000D01*
X184500000Y-124900000D02*
X185100000Y-124300000D01*
X185100000Y-124300000D02*
X185600000Y-123800000D01*
D53*
X160900000Y-136200000D02*
X160900000Y-128400000D01*
X160900000Y-136200000D02*
X175700000Y-136200000D01*
D52*
X169900000Y-123400000D02*
X160900000Y-123400000D01*
D53*
X160900000Y-123400000D02*
X146600000Y-123400000D01*
X160900000Y-123400000D02*
X160900000Y-122600000D01*
X144400000Y-121200000D02*
X141400000Y-121200000D01*
X141400000Y-121200000D02*
X140500000Y-121200000D01*
D52*
X136850000Y-116700000D02*
X136800000Y-116650000D01*
X138500000Y-116700000D02*
X136850000Y-116700000D01*
X135200000Y-116650000D02*
X136800000Y-116650000D01*
X133550000Y-116650000D02*
X133500000Y-116700000D01*
X135200000Y-116650000D02*
X133550000Y-116650000D01*
D53*
X158400000Y-136200000D02*
X160900000Y-136200000D01*
X155500000Y-139100000D02*
X158400000Y-136200000D01*
X155500000Y-139800000D02*
X155500000Y-139100000D01*
X155500000Y-141500000D02*
X155500000Y-139800000D01*
X138300000Y-139800000D02*
X136100000Y-137600000D01*
X131300000Y-137400000D02*
X131100000Y-137600000D01*
X131300000Y-132000000D02*
X131300000Y-137400000D01*
X136100000Y-137600000D02*
X131100000Y-137600000D01*
X131100000Y-137600000D02*
X127100000Y-137600000D01*
X148460000Y-135035000D02*
X148460000Y-139460000D01*
X148460000Y-139460000D02*
X148800000Y-139800000D01*
X155500000Y-139800000D02*
X148800000Y-139800000D01*
X148800000Y-139800000D02*
X138300000Y-139800000D01*
X127100000Y-137600000D02*
X125900000Y-136400000D01*
X125900000Y-136400000D02*
X125900000Y-136200000D01*
D52*
X125500000Y-57200000D02*
X125500000Y-52500000D01*
X107950000Y-107800000D02*
X107100000Y-107800000D01*
D53*
X141400000Y-118000000D02*
X141400000Y-121200000D01*
X140100000Y-116700000D02*
X141400000Y-118000000D01*
D52*
X140100000Y-112700000D02*
X140100000Y-116700000D01*
X126000000Y-111700000D02*
X139100000Y-111700000D01*
X139100000Y-111700000D02*
X140100000Y-112700000D01*
D53*
X140100000Y-116700000D02*
X138500000Y-116700000D01*
D54*
X106300000Y-91500000D02*
X105500000Y-91500000D01*
X106700001Y-91900001D02*
X106300000Y-91500000D01*
X106700001Y-95199999D02*
X106700001Y-91900001D01*
X105700000Y-95450000D02*
X106450000Y-95450000D01*
X106450000Y-95450000D02*
X106700001Y-95199999D01*
X109050000Y-93550000D02*
X109300000Y-93800000D01*
X108300000Y-93550000D02*
X109050000Y-93550000D01*
X109300001Y-96110001D02*
X109010002Y-96400000D01*
X109300000Y-93800000D02*
X109300001Y-96110001D01*
X109010002Y-96400000D02*
X108400000Y-96400000D01*
X108400000Y-96400000D02*
X107800000Y-97000000D01*
D51*
X102925000Y-91500000D02*
X105500000Y-91500000D01*
X119000000Y-125900000D02*
X115100000Y-122000000D01*
X115100000Y-122000000D02*
X104600000Y-122000000D01*
X102000000Y-92425000D02*
X102925000Y-91500000D01*
X104600000Y-122000000D02*
X102000000Y-119400000D01*
D50*
X166000000Y-138500000D02*
X166000000Y-140700000D01*
D51*
X119000000Y-129650000D02*
X119400000Y-129650000D01*
X119460000Y-141740000D02*
X119460000Y-144500000D01*
X122300000Y-138900000D02*
X119460000Y-141740000D01*
D49*
X114000000Y-141500000D02*
X119220000Y-141500000D01*
D51*
X122300000Y-132550000D02*
X122300000Y-136600000D01*
X122300000Y-136600000D02*
X122300000Y-138900000D01*
D49*
X135460000Y-144500000D02*
X135460000Y-142860000D01*
X134100000Y-141500000D02*
X130000000Y-141500000D01*
X135460000Y-142860000D02*
X134100000Y-141500000D01*
D50*
X107800000Y-98300000D02*
X108500000Y-99000000D01*
X107800000Y-97000000D02*
X107800000Y-98300000D01*
X165200000Y-140700000D02*
X164500000Y-141400000D01*
X166000000Y-140700000D02*
X165200000Y-140700000D01*
X164500000Y-141400000D02*
X164500000Y-144700000D01*
X164500000Y-144700000D02*
X163600000Y-145600000D01*
X163600000Y-145600000D02*
X163600000Y-146000000D01*
D53*
X194190000Y-124000000D02*
X194500000Y-124310000D01*
X188900000Y-124000000D02*
X194190000Y-124000000D01*
D50*
X106200000Y-115000000D02*
X102000000Y-115000000D01*
D51*
X102000000Y-119400000D02*
X102000000Y-115000000D01*
X122300000Y-129200000D02*
X119000000Y-125900000D01*
X122300000Y-132550000D02*
X122300000Y-129200000D01*
X121575000Y-131825000D02*
X121575000Y-129875000D01*
X119000000Y-127300000D02*
X119000000Y-125900000D01*
X119000000Y-129650000D02*
X119000000Y-127300000D01*
X121575000Y-131825000D02*
X122300000Y-132550000D01*
X121575000Y-129875000D02*
X119000000Y-127300000D01*
X119400000Y-129650000D02*
X121575000Y-131825000D01*
D50*
X108300000Y-93550000D02*
X108300000Y-94100000D01*
X108300000Y-94100000D02*
X108500000Y-94300000D01*
X102000000Y-95984315D02*
X102000000Y-96000000D01*
D51*
X102000000Y-96000000D02*
X102000000Y-92425000D01*
D50*
X102300000Y-95800000D02*
X102000000Y-95984315D01*
X102184315Y-95800000D02*
X102300000Y-95800000D01*
D51*
X102000000Y-115000000D02*
X102000000Y-97900000D01*
X102000000Y-97900000D02*
X102000000Y-96000000D01*
D52*
X133500000Y-118300000D02*
X132000000Y-118300000D01*
X132000000Y-118300000D02*
X130500000Y-118300000D01*
D50*
X133600000Y-118400000D02*
X133500000Y-118300000D01*
X133600000Y-121300000D02*
X133600000Y-118400000D01*
X174000000Y-138500000D02*
X174000000Y-140700000D01*
D52*
X148150000Y-141500000D02*
X148700000Y-142050000D01*
X146000000Y-141500000D02*
X148150000Y-141500000D01*
D50*
X149550000Y-143950000D02*
X149850000Y-143650000D01*
X148700000Y-143950000D02*
X149550000Y-143950000D01*
X149850000Y-143650000D02*
X149850000Y-142250000D01*
X149650000Y-142050000D02*
X148700000Y-142050000D01*
X149850000Y-142250000D02*
X149650000Y-142050000D01*
X114450000Y-113700000D02*
X113900000Y-114250000D01*
X114700000Y-113700000D02*
X114450000Y-113700000D01*
X113900000Y-114250000D02*
X113900000Y-116300000D01*
X113600000Y-116600000D02*
X112700000Y-116600000D01*
X113900000Y-116300000D02*
X113600000Y-116600000D01*
X112700000Y-118100000D02*
X112700000Y-116600000D01*
X173500001Y-138000001D02*
X174000000Y-138500000D01*
X140540000Y-144500000D02*
X143040000Y-147000000D01*
X172800000Y-137300000D02*
X173500001Y-138000001D01*
X143040000Y-147000000D02*
X167800000Y-147000000D01*
X169300000Y-137300000D02*
X172800000Y-137300000D01*
X167800000Y-147000000D02*
X168100000Y-146700000D01*
X168100000Y-146700000D02*
X168100000Y-138500000D01*
X168100000Y-138500000D02*
X169300000Y-137300000D01*
D53*
X140540000Y-141840000D02*
X140200000Y-141500000D01*
X140540000Y-144500000D02*
X140540000Y-141840000D01*
X146000000Y-141500000D02*
X140200000Y-141500000D01*
X113975000Y-118100000D02*
X112700000Y-118100000D01*
X137540000Y-141500000D02*
X135240000Y-139200000D01*
X135240000Y-139200000D02*
X126500000Y-139200000D01*
X140200000Y-141500000D02*
X137540000Y-141500000D01*
X126500000Y-139200000D02*
X124200000Y-136900000D01*
X124200000Y-136900000D02*
X124200000Y-128325000D01*
X124200000Y-128325000D02*
X113975000Y-118100000D01*
D54*
X106100000Y-105150000D02*
X106050000Y-105200000D01*
D50*
X106100000Y-103000000D02*
X106100000Y-105150000D01*
D52*
X106200000Y-102900000D02*
X106100000Y-103000000D01*
X106200000Y-101000000D02*
X106200000Y-102900000D01*
D50*
X104300000Y-101000000D02*
X106200000Y-101000000D01*
X103500000Y-100200000D02*
X104300000Y-101000000D01*
X105700000Y-93550000D02*
X104350000Y-93550000D01*
X103500000Y-94400000D02*
X103500000Y-100200000D01*
X104350000Y-93550000D02*
X103500000Y-94400000D01*
D54*
X107550000Y-95450000D02*
X107250011Y-95150011D01*
X108300000Y-95450000D02*
X107550000Y-95450000D01*
X107250011Y-95150011D02*
X107250011Y-91849989D01*
X107600000Y-91500000D02*
X108500000Y-91500000D01*
X107250011Y-91849989D02*
X107600000Y-91500000D01*
D49*
X108500000Y-85350000D02*
X107650000Y-84500000D01*
X108500000Y-91500000D02*
X108500000Y-85350000D01*
X107650000Y-84500000D02*
X107650000Y-73500000D01*
X120000000Y-64000000D02*
X117500000Y-64000000D01*
X117500000Y-64000000D02*
X115000000Y-64000000D01*
X115000000Y-64000000D02*
X112000000Y-64000000D01*
X112000000Y-64000000D02*
X108500000Y-64000000D01*
X106150000Y-64000000D02*
X108500000Y-64000000D01*
X105700000Y-64450000D02*
X106150000Y-64000000D01*
X105700000Y-72500000D02*
X105700000Y-64450000D01*
X107650000Y-73500000D02*
X106700000Y-73500000D01*
X106700000Y-73500000D02*
X105700000Y-72500000D01*
X124475000Y-64000000D02*
X125000000Y-64525000D01*
X120000000Y-64000000D02*
X124475000Y-64000000D01*
X125000000Y-64525000D02*
X129000000Y-64525000D01*
X129000000Y-64525000D02*
X133000000Y-64525000D01*
X133000000Y-64525000D02*
X137000000Y-64525000D01*
D50*
X115700000Y-96300000D02*
X115700000Y-96000000D01*
X116500000Y-97700000D02*
X116500000Y-97100000D01*
X116500000Y-97100000D02*
X115700000Y-96300000D01*
X170000000Y-138500000D02*
X170000000Y-140700000D01*
X124540000Y-144500000D02*
X124540000Y-147040000D01*
X124540000Y-147040000D02*
X125150000Y-147650000D01*
X125150000Y-147650000D02*
X170700000Y-147650000D01*
X170800000Y-140700000D02*
X171250000Y-141150000D01*
X170000000Y-140700000D02*
X170800000Y-140700000D01*
X171250000Y-147100000D02*
X170700000Y-147650000D01*
X171250000Y-141150000D02*
X171250000Y-147100000D01*
D53*
X115700000Y-94700000D02*
X115000000Y-94000000D01*
X115700000Y-96000000D02*
X115700000Y-94700000D01*
D52*
X110002258Y-96700000D02*
X109472367Y-97229891D01*
X114200000Y-96300000D02*
X113800000Y-96700000D01*
X113800000Y-96700000D02*
X110002258Y-96700000D01*
X114200000Y-95100000D02*
X114200000Y-96300000D01*
X115000000Y-94000000D02*
X115000000Y-94300000D01*
X115000000Y-94300000D02*
X114200000Y-95100000D01*
D49*
X120000000Y-67000000D02*
X120000000Y-69000000D01*
D51*
X159500000Y-85750000D02*
X159500000Y-94250000D01*
X173000000Y-80650000D02*
X173000000Y-87350000D01*
X173000000Y-92650000D02*
X173000000Y-99350000D01*
D50*
X175550000Y-117950000D02*
X176000000Y-117500000D01*
X175550000Y-118800000D02*
X175550000Y-117950000D01*
X176000000Y-117500000D02*
X177100000Y-117500000D01*
X177450000Y-117150000D02*
X177450000Y-116200000D01*
X177100000Y-117500000D02*
X177450000Y-117150000D01*
X134200000Y-123600000D02*
X136000000Y-123600000D01*
X132800000Y-121300000D02*
X132800000Y-122200000D01*
X132800000Y-122200000D02*
X134200000Y-123600000D01*
X140500000Y-124300000D02*
X140300000Y-124100000D01*
X175550000Y-118800000D02*
X175550000Y-119050000D01*
X170300000Y-124300000D02*
X140500000Y-124300000D01*
X175550000Y-119050000D02*
X170300000Y-124300000D01*
X137200000Y-57000000D02*
X137000000Y-57200000D01*
X141850000Y-57000000D02*
X137200000Y-57000000D01*
X137000000Y-57200000D02*
X135500000Y-57200000D01*
X133600000Y-57200000D02*
X133500000Y-57100000D01*
X135500000Y-57200000D02*
X133600000Y-57200000D01*
X132475000Y-57100000D02*
X133500000Y-57100000D01*
X132300000Y-57100000D02*
X132475000Y-57100000D01*
X130950000Y-58450000D02*
X132300000Y-57100000D01*
X130950000Y-59300000D02*
X130950000Y-58450000D01*
D48*
X113800000Y-126800000D02*
X113000000Y-126000000D01*
X113800000Y-133100000D02*
X113800000Y-126800000D01*
X119000000Y-136550000D02*
X114550000Y-136550000D01*
X113800000Y-135800000D02*
X113800000Y-133100000D01*
X114550000Y-136550000D02*
X113800000Y-135800000D01*
D50*
X166000000Y-142300000D02*
X166000000Y-144200000D01*
X170000000Y-142300000D02*
X170000000Y-144200000D01*
X174000000Y-142300000D02*
X174000000Y-144200000D01*
X186000000Y-142300000D02*
X186000000Y-144200000D01*
X182000000Y-142300000D02*
X182000000Y-144200000D01*
X178000000Y-142300000D02*
X178000000Y-144200000D01*
D52*
X188900000Y-119000000D02*
X188900000Y-117500000D01*
D53*
X194270000Y-119000000D02*
X194500000Y-119230000D01*
X188900000Y-119000000D02*
X194270000Y-119000000D01*
D52*
X188900000Y-120500000D02*
X188900000Y-122000000D01*
D53*
X194270000Y-122000000D02*
X194500000Y-121770000D01*
X188900000Y-122000000D02*
X194270000Y-122000000D01*
D50*
X130700000Y-126700000D02*
X130900000Y-126500000D01*
X129800000Y-126700000D02*
X130700000Y-126700000D01*
X130900000Y-126500000D02*
X130900000Y-125300000D01*
X130700000Y-125100000D02*
X129800000Y-125100000D01*
X130900000Y-125300000D02*
X130700000Y-125100000D01*
X123500000Y-115300000D02*
X126000000Y-115300000D01*
X121300000Y-113000000D02*
X121300000Y-114500000D01*
X122700000Y-114500000D02*
X123500000Y-115300000D01*
X121300000Y-114500000D02*
X122700000Y-114500000D01*
X121300000Y-115200000D02*
X121300000Y-114500000D01*
X121300000Y-116300000D02*
X121300000Y-115200000D01*
X123800000Y-125100000D02*
X118100000Y-119400000D01*
X129800000Y-125100000D02*
X123800000Y-125100000D01*
X118100000Y-117400000D02*
X118700000Y-116800000D01*
X118100000Y-119400000D02*
X118100000Y-117400000D01*
X118700000Y-116800000D02*
X120800000Y-116800000D01*
X120800000Y-116800000D02*
X121300000Y-116300000D01*
D51*
X145761000Y-65286000D02*
X145000000Y-64525000D01*
X151750000Y-65286000D02*
X145761000Y-65286000D01*
D52*
X181450000Y-73650000D02*
X183550000Y-73650000D01*
D50*
X177065000Y-132365000D02*
X183300000Y-132365000D01*
X169600000Y-124900000D02*
X177065000Y-132365000D01*
X138200000Y-124300000D02*
X139200000Y-124300000D01*
X139800000Y-124900000D02*
X169600000Y-124900000D01*
X139200000Y-124300000D02*
X139800000Y-124900000D01*
X182100000Y-133000000D02*
X182735000Y-133635000D01*
X182735000Y-133635000D02*
X183300000Y-133635000D01*
X179800000Y-133000000D02*
X179800000Y-133600000D01*
X179800000Y-133000000D02*
X182100000Y-133000000D01*
X179800000Y-130700000D02*
X181100000Y-130700000D01*
X181100000Y-130700000D02*
X183200000Y-128600000D01*
X183200000Y-128600000D02*
X183200000Y-120900000D01*
X185100000Y-119000000D02*
X187300000Y-119000000D01*
X183200000Y-120900000D02*
X185100000Y-119000000D01*
X169400000Y-125500000D02*
X176900000Y-133000000D01*
X139500000Y-125500000D02*
X169400000Y-125500000D01*
X138200000Y-125100000D02*
X139100000Y-125100000D01*
X176900000Y-133000000D02*
X179800000Y-133000000D01*
X139100000Y-125100000D02*
X139500000Y-125500000D01*
X139200000Y-126700000D02*
X138200000Y-126700000D01*
X169200000Y-126100000D02*
X139800000Y-126100000D01*
X182500000Y-139400000D02*
X169200000Y-126100000D01*
X186000000Y-140700000D02*
X184700000Y-139400000D01*
X139800000Y-126100000D02*
X139200000Y-126700000D01*
X184700000Y-139400000D02*
X182500000Y-139400000D01*
X139200000Y-127500000D02*
X138200000Y-127500000D01*
X140000000Y-126700000D02*
X139200000Y-127500000D01*
X169000000Y-126700000D02*
X140000000Y-126700000D01*
X182000000Y-140700000D02*
X182000000Y-139700000D01*
X182000000Y-139700000D02*
X169000000Y-126700000D01*
X187100000Y-122200000D02*
X187300000Y-122000000D01*
X185600000Y-122200000D02*
X187100000Y-122200000D01*
X171100000Y-125200000D02*
X177500000Y-131600000D01*
X177500000Y-131600000D02*
X181100000Y-131600000D01*
X181100000Y-131600000D02*
X183800000Y-128900000D01*
X183800000Y-128900000D02*
X183800000Y-123000000D01*
X184600000Y-122200000D02*
X185600000Y-122200000D01*
X183800000Y-123000000D02*
X184600000Y-122200000D01*
X139300000Y-128300000D02*
X138200000Y-128300000D01*
X168700000Y-127600000D02*
X168400000Y-127300000D01*
X140300000Y-127300000D02*
X139300000Y-128300000D01*
X168400000Y-127300000D02*
X140300000Y-127300000D01*
X149730000Y-128930000D02*
X149730000Y-130965000D01*
X149300000Y-128500000D02*
X149730000Y-128930000D01*
X140900000Y-128500000D02*
X149300000Y-128500000D01*
X136800000Y-129700000D02*
X139700000Y-129700000D01*
X139700000Y-129700000D02*
X140900000Y-128500000D01*
X148460000Y-129270000D02*
X148460000Y-130965000D01*
X148290000Y-129100000D02*
X148460000Y-129270000D01*
X141200000Y-129100000D02*
X148290000Y-129100000D01*
X136000000Y-130600000D02*
X136300000Y-130900000D01*
X136000000Y-129700000D02*
X136000000Y-130600000D01*
X136300000Y-130900000D02*
X137200000Y-130900000D01*
X137200000Y-130900000D02*
X137800000Y-130300000D01*
X137800000Y-130300000D02*
X140000000Y-130300000D01*
X140000000Y-130300000D02*
X141200000Y-129100000D01*
X132000000Y-129700000D02*
X132000000Y-123500000D01*
X132000000Y-123500000D02*
X130900000Y-122400000D01*
D54*
X130900000Y-122400000D02*
X130400000Y-121900000D01*
D50*
X127200000Y-114100000D02*
X127200000Y-118700000D01*
X126700000Y-113600000D02*
X127200000Y-114100000D01*
X124800000Y-113200000D02*
X125200000Y-113600000D01*
X127200000Y-118700000D02*
X130400000Y-121900000D01*
X115550000Y-98550000D02*
X115700000Y-98700000D01*
X124200000Y-99700000D02*
X124200000Y-109700000D01*
X125200000Y-113600000D02*
X126700000Y-113600000D01*
X124200000Y-109700000D02*
X124800000Y-110300000D01*
X115550000Y-97700000D02*
X115550000Y-98550000D01*
X115700000Y-98700000D02*
X123200000Y-98700000D01*
X124800000Y-110300000D02*
X124800000Y-113200000D01*
X123200000Y-98700000D02*
X124200000Y-99700000D01*
X117300000Y-114750000D02*
X116800000Y-115250000D01*
X117300000Y-113700000D02*
X117300000Y-114750000D01*
X116800000Y-115250000D02*
X116800000Y-116750000D01*
X116800000Y-116775000D02*
X116800000Y-116750000D01*
X111500000Y-113000000D02*
X111500000Y-113600000D01*
X111500000Y-113600000D02*
X113000000Y-115100000D01*
X116950000Y-115100000D02*
X116800000Y-115250000D01*
X117700000Y-115100000D02*
X116950000Y-115100000D01*
X116800000Y-119200000D02*
X116800000Y-116750000D01*
X129800000Y-125900000D02*
X123500000Y-125900000D01*
X123500000Y-125900000D02*
X116800000Y-119200000D01*
X129050000Y-60150000D02*
X128650000Y-60550000D01*
X129050000Y-59300000D02*
X129050000Y-60150000D01*
X124050000Y-60550000D02*
X122500000Y-59000000D01*
X128650000Y-60550000D02*
X124050000Y-60550000D01*
X129050000Y-58450000D02*
X130000000Y-57500000D01*
X129050000Y-59300000D02*
X129050000Y-58450000D01*
X130350000Y-56700000D02*
X130000000Y-56700000D01*
X130950000Y-56700000D02*
X130350000Y-56700000D01*
X130000000Y-57500000D02*
X130000000Y-56700000D01*
X130000000Y-56700000D02*
X130000000Y-52500000D01*
X138600000Y-113200000D02*
X128800000Y-113200000D01*
X128800000Y-113200000D02*
X127800000Y-114200000D01*
X127800000Y-114200000D02*
X127800000Y-118500000D01*
X132000000Y-121300000D02*
X132000000Y-120000000D01*
X132000000Y-120000000D02*
X131300000Y-119300000D01*
X131300000Y-119300000D02*
X128600000Y-119300000D01*
X127800000Y-118500000D02*
X128600000Y-119300000D01*
X105292894Y-113000000D02*
X106000000Y-113000000D01*
X107950000Y-106150000D02*
X107500000Y-106600000D01*
X107950000Y-105200000D02*
X107950000Y-106150000D01*
X104400000Y-107600000D02*
X104400000Y-112107106D01*
X104400000Y-112107106D02*
X105292894Y-113000000D01*
X105400000Y-106600000D02*
X104400000Y-107600000D01*
X106050000Y-107800000D02*
X106050000Y-106650000D01*
X107500000Y-106600000D02*
X106100000Y-106600000D01*
D54*
X106050000Y-106650000D02*
X106100000Y-106600000D01*
D50*
X106100000Y-106600000D02*
X105400000Y-106600000D01*
X106000000Y-113000000D02*
X108100000Y-113000000D01*
X108100000Y-113000000D02*
X109000000Y-113900000D01*
X109000000Y-113900000D02*
X109000000Y-118800000D01*
X109000000Y-118800000D02*
X109800000Y-119600000D01*
X109800000Y-119600000D02*
X111200000Y-119600000D01*
X111200000Y-119600000D02*
X113700000Y-119600000D01*
X113700000Y-119600000D02*
X113800000Y-119500000D01*
X119500000Y-119500000D02*
X120800000Y-119500000D01*
X120800000Y-119500000D02*
X123300000Y-122000000D01*
X123300000Y-122000000D02*
X128300000Y-122000000D01*
X128300000Y-122000000D02*
X128700000Y-121600000D01*
X131200000Y-120400000D02*
X131000000Y-120200000D01*
X131200000Y-121300000D02*
X131200000Y-120400000D01*
X131000000Y-120200000D02*
X130100000Y-120200000D01*
D54*
X137600000Y-129100000D02*
X137000000Y-128500000D01*
D50*
X137000000Y-128500000D02*
X137000000Y-123400000D01*
X137000000Y-123400000D02*
X136300000Y-122700000D01*
X136300000Y-122700000D02*
X134700000Y-122700000D01*
X134400000Y-122400000D02*
X134400000Y-121300000D01*
X134700000Y-122700000D02*
X134400000Y-122400000D01*
X139400000Y-129100000D02*
X137600000Y-129100000D01*
X140600000Y-127900000D02*
X139400000Y-129100000D01*
X152600000Y-127900000D02*
X140600000Y-127900000D01*
X153540000Y-130965000D02*
X153540000Y-128840000D01*
X153540000Y-128840000D02*
X152600000Y-127900000D01*
X136000000Y-120400000D02*
X136800000Y-119600000D01*
X136000000Y-121300000D02*
X136000000Y-120400000D01*
X136800000Y-119600000D02*
X136800000Y-118350000D01*
D52*
X117450000Y-101850000D02*
X117300000Y-102000000D01*
X117560000Y-101460000D02*
X120725000Y-101460000D01*
X117450000Y-101350000D02*
X117560000Y-101460000D01*
X117450000Y-101350000D02*
X117450000Y-101850000D01*
X117450000Y-100300000D02*
X117450000Y-101350000D01*
D50*
X112200000Y-99300000D02*
X111500000Y-100000000D01*
X117300000Y-99300000D02*
X112200000Y-99300000D01*
X117450000Y-100300000D02*
X117450000Y-99450000D01*
X117450000Y-99450000D02*
X117300000Y-99300000D01*
X114750000Y-111750000D02*
X114700000Y-111800000D01*
X114750000Y-110050000D02*
X114750000Y-111750000D01*
X115200000Y-116750000D02*
X115200000Y-115250000D01*
X114950000Y-111800000D02*
X116000000Y-112850000D01*
X114700000Y-111800000D02*
X114950000Y-111800000D01*
X115200000Y-115225000D02*
X115200000Y-115250000D01*
X116000000Y-114425000D02*
X115200000Y-115225000D01*
X116000000Y-112850000D02*
X116000000Y-114425000D01*
X117250000Y-111750000D02*
X117300000Y-111800000D01*
X117250000Y-110050000D02*
X117250000Y-111750000D01*
D49*
X194500000Y-64960000D02*
X189540000Y-64960000D01*
X186500000Y-68000000D02*
X184000000Y-68000000D01*
X189540000Y-64960000D02*
X186500000Y-68000000D01*
D50*
X183800000Y-67800000D02*
X184000000Y-68000000D01*
X183800000Y-65950000D02*
X183800000Y-67800000D01*
X172350000Y-56050000D02*
X145450000Y-56050000D01*
X181200000Y-64050000D02*
X180350000Y-64050000D01*
X145450000Y-56050000D02*
X144150000Y-56050000D01*
X180350000Y-64050000D02*
X172350000Y-56050000D01*
D51*
X117540000Y-106540000D02*
X117500000Y-106500000D01*
X120725000Y-106540000D02*
X117540000Y-106540000D01*
D50*
X117250000Y-106750000D02*
X117500000Y-106500000D01*
X117250000Y-108450000D02*
X117250000Y-106750000D01*
X119700000Y-111500000D02*
X119700000Y-113000000D01*
D53*
X179500000Y-79500000D02*
X179500000Y-84500000D01*
X179500000Y-87500000D02*
X179500000Y-92500000D01*
X179500000Y-95500000D02*
X179500000Y-100500000D01*
X182500000Y-79500000D02*
X182500000Y-84500000D01*
X182500000Y-87500000D02*
X182500000Y-92500000D01*
X182500000Y-95500000D02*
X182500000Y-100500000D01*
X185500000Y-79500000D02*
X185500000Y-84500000D01*
X185500000Y-87500000D02*
X185500000Y-92500000D01*
X185500000Y-95500000D02*
X185500000Y-100500000D01*
D52*
X181700000Y-61000000D02*
X181700000Y-62500000D01*
D50*
X182000000Y-63200000D02*
X182000000Y-62800000D01*
X182500000Y-63700000D02*
X182000000Y-63200000D01*
X182000000Y-62800000D02*
X181700000Y-62500000D01*
X181200000Y-65000000D02*
X182050000Y-65000000D01*
X182500000Y-64550000D02*
X182500000Y-63700000D01*
X182050000Y-65000000D02*
X182500000Y-64550000D01*
X185450000Y-73650000D02*
X185450000Y-69850000D01*
X185450000Y-69850000D02*
X185400000Y-69800000D01*
X185400000Y-66300000D02*
X185400000Y-60200000D01*
X185400000Y-60200000D02*
X184900000Y-59700000D01*
X184900000Y-59700000D02*
X182000000Y-59700000D01*
X181700000Y-60000000D02*
X181700000Y-61000000D01*
X182000000Y-59700000D02*
X181700000Y-60000000D01*
X144950000Y-57950000D02*
X144150000Y-57950000D01*
X146200000Y-56700000D02*
X144950000Y-57950000D01*
X172050000Y-56700000D02*
X146200000Y-56700000D01*
X181200000Y-65000000D02*
X180350000Y-65000000D01*
X180350000Y-65000000D02*
X172050000Y-56700000D01*
D52*
X185450000Y-76450000D02*
X185500000Y-76500000D01*
X185450000Y-73650000D02*
X185450000Y-76450000D01*
D51*
X159500000Y-72250000D02*
X159500000Y-63000000D01*
D49*
X173000000Y-75350000D02*
X160750000Y-75350000D01*
X173000000Y-75350000D02*
X173000000Y-70000000D01*
X175000000Y-68000000D02*
X181000000Y-68000000D01*
X173000000Y-70000000D02*
X175000000Y-68000000D01*
D52*
X183800000Y-63000000D02*
X183300000Y-62500000D01*
X183800000Y-64050000D02*
X183800000Y-63000000D01*
X183300000Y-62500000D02*
X183300000Y-61000000D01*
D50*
X181200000Y-67800000D02*
X181000000Y-68000000D01*
X181200000Y-65950000D02*
X181200000Y-67800000D01*
X179550000Y-70150000D02*
X179550000Y-73650000D01*
X179800000Y-69900000D02*
X179550000Y-70150000D01*
X183500000Y-64350000D02*
X183500000Y-64600000D01*
X182500000Y-65600000D02*
X182500000Y-69300000D01*
X183500000Y-64600000D02*
X182500000Y-65600000D01*
X183800000Y-64050000D02*
X183500000Y-64350000D01*
X182500000Y-69300000D02*
X181900000Y-69900000D01*
X181900000Y-69900000D02*
X179800000Y-69900000D01*
D53*
X182500000Y-76500000D02*
X179500000Y-76500000D01*
D52*
X179550000Y-76450000D02*
X179500000Y-76500000D01*
X179550000Y-73650000D02*
X179550000Y-76450000D01*
D53*
X176650000Y-75350000D02*
X173000000Y-75350000D01*
X179500000Y-76500000D02*
X177800000Y-76500000D01*
X177800000Y-76500000D02*
X176650000Y-75350000D01*
D49*
X137000000Y-95475000D02*
X133000000Y-95475000D01*
X129000000Y-95475000D02*
X125000000Y-95475000D01*
X131000000Y-95500000D02*
X130975000Y-95475000D01*
X131000000Y-104000000D02*
X131000000Y-95500000D01*
X133000000Y-95475000D02*
X130975000Y-95475000D01*
X130975000Y-95475000D02*
X129000000Y-95475000D01*
D51*
X120875000Y-95475000D02*
X125000000Y-95475000D01*
X120000000Y-94600000D02*
X120875000Y-95475000D01*
X120000000Y-92000000D02*
X120000000Y-94600000D01*
X120000000Y-91300000D02*
X120000000Y-92000000D01*
X120000000Y-72000000D02*
X120000000Y-91300000D01*
D52*
X113100000Y-91300000D02*
X112500000Y-91900000D01*
X120000000Y-91300000D02*
X113100000Y-91300000D01*
D50*
X122200000Y-108800000D02*
X123300000Y-108800000D01*
X126200000Y-108800000D02*
X131000000Y-104000000D01*
X125100000Y-108800000D02*
X126200000Y-108800000D01*
X121300000Y-109700000D02*
X122200000Y-108800000D01*
X121300000Y-111500000D02*
X121300000Y-109700000D01*
D53*
X178500000Y-105200000D02*
X179300000Y-105200000D01*
X179300000Y-105200000D02*
X180500000Y-105200000D01*
D50*
X178700000Y-118800000D02*
X179000000Y-118500000D01*
X177450000Y-118800000D02*
X178700000Y-118800000D01*
X178500000Y-105200000D02*
X177350000Y-105200000D01*
X179000000Y-111400000D02*
X179000000Y-118500000D01*
X177350000Y-109750000D02*
X179000000Y-111400000D01*
D53*
X179500000Y-105000000D02*
X179300000Y-105200000D01*
X179500000Y-103500000D02*
X179500000Y-105000000D01*
D50*
X188730000Y-134875000D02*
X188700000Y-134905000D01*
X196500000Y-134875000D02*
X188730000Y-134875000D01*
X187500000Y-130589998D02*
X187900000Y-130189998D01*
X187900000Y-130189998D02*
X187900000Y-129550000D01*
X187500000Y-134780000D02*
X187500000Y-130589998D01*
X187900000Y-129550000D02*
X188200000Y-129250000D01*
X188700000Y-134905000D02*
X187625000Y-134905000D01*
X187625000Y-134905000D02*
X187500000Y-134780000D01*
X189900000Y-129350000D02*
X189800000Y-129250000D01*
X189900000Y-130970000D02*
X189900000Y-129350000D01*
X188700000Y-131095000D02*
X189775000Y-131095000D01*
X189775000Y-131095000D02*
X189900000Y-130970000D01*
X188730000Y-131125000D02*
X188700000Y-131095000D01*
X196500000Y-131125000D02*
X188730000Y-131125000D01*
X188710000Y-132375000D02*
X188700000Y-132365000D01*
X196500000Y-132375000D02*
X188710000Y-132375000D01*
X188710000Y-133625000D02*
X188700000Y-133635000D01*
X196500000Y-133625000D02*
X188710000Y-133625000D01*
G36*
X138090252Y-94163176D02*
G01*
X138174354Y-94198013D01*
X138246572Y-94253428D01*
X138301987Y-94325646D01*
X138336824Y-94409748D01*
X138350000Y-94509834D01*
X138350000Y-96783059D01*
X138336824Y-96883145D01*
X138301988Y-96967247D01*
X138240536Y-97047332D01*
X136047332Y-99240536D01*
X135967247Y-99301988D01*
X135883145Y-99336824D01*
X135783059Y-99350000D01*
X126216941Y-99350000D01*
X126116855Y-99336824D01*
X126032753Y-99301988D01*
X125952668Y-99240536D01*
X123759464Y-97047332D01*
X123698012Y-96967247D01*
X123663176Y-96883145D01*
X123650000Y-96783059D01*
X123650000Y-94509834D01*
X123663176Y-94409748D01*
X123698013Y-94325646D01*
X123753428Y-94253428D01*
X123825646Y-94198013D01*
X123909748Y-94163176D01*
X124009834Y-94150000D01*
X137990166Y-94150000D01*
X138090252Y-94163176D01*
X138090252Y-94163176D01*
G37*
X138090252Y-94163176D02*
X138174354Y-94198013D01*
X138246572Y-94253428D01*
X138301987Y-94325646D01*
X138336824Y-94409748D01*
X138350000Y-94509834D01*
X138350000Y-96783059D01*
X138336824Y-96883145D01*
X138301988Y-96967247D01*
X138240536Y-97047332D01*
X136047332Y-99240536D01*
X135967247Y-99301988D01*
X135883145Y-99336824D01*
X135783059Y-99350000D01*
X126216941Y-99350000D01*
X126116855Y-99336824D01*
X126032753Y-99301988D01*
X125952668Y-99240536D01*
X123759464Y-97047332D01*
X123698012Y-96967247D01*
X123663176Y-96883145D01*
X123650000Y-96783059D01*
X123650000Y-94509834D01*
X123663176Y-94409748D01*
X123698013Y-94325646D01*
X123753428Y-94253428D01*
X123825646Y-94198013D01*
X123909748Y-94163176D01*
X124009834Y-94150000D01*
X137990166Y-94150000D01*
X138090252Y-94163176D01*
G36*
X137590252Y-62663176D02*
G01*
X137674354Y-62698013D01*
X137746572Y-62753428D01*
X137801987Y-62825646D01*
X137836824Y-62909748D01*
X137850000Y-63009834D01*
X137850000Y-65490166D01*
X137836824Y-65590252D01*
X137801987Y-65674354D01*
X137746572Y-65746572D01*
X137674354Y-65801987D01*
X137590252Y-65836824D01*
X137490166Y-65850000D01*
X124009834Y-65850000D01*
X123909748Y-65836824D01*
X123825646Y-65801987D01*
X123753428Y-65746572D01*
X123698013Y-65674354D01*
X123663176Y-65590252D01*
X123650000Y-65490166D01*
X123650000Y-65000000D01*
X123648717Y-64980421D01*
X123631680Y-64851011D01*
X123621545Y-64813187D01*
X123571595Y-64692597D01*
X123552015Y-64658685D01*
X123472555Y-64555132D01*
X123444868Y-64527445D01*
X123341315Y-64447985D01*
X123307403Y-64428405D01*
X123186813Y-64378455D01*
X123148989Y-64368320D01*
X123019579Y-64351283D01*
X123000000Y-64350000D01*
X107000000Y-64350000D01*
X106980421Y-64351283D01*
X106851011Y-64368320D01*
X106813187Y-64378455D01*
X106692597Y-64428405D01*
X106658685Y-64447985D01*
X106555132Y-64527445D01*
X106527445Y-64555132D01*
X106447985Y-64658685D01*
X106428405Y-64692597D01*
X106378455Y-64813187D01*
X106368320Y-64851011D01*
X106351283Y-64980421D01*
X106350000Y-65000000D01*
X106350000Y-68500000D01*
X106351283Y-68519579D01*
X106368320Y-68648989D01*
X106378455Y-68686813D01*
X106428405Y-68807403D01*
X106447985Y-68841315D01*
X106527445Y-68944868D01*
X106555132Y-68972555D01*
X106658685Y-69052015D01*
X106692597Y-69071595D01*
X106813187Y-69121545D01*
X106851011Y-69131680D01*
X106980421Y-69148717D01*
X107000000Y-69150000D01*
X109490166Y-69150000D01*
X109590252Y-69163176D01*
X109674354Y-69198013D01*
X109746572Y-69253428D01*
X109801987Y-69325646D01*
X109836824Y-69409748D01*
X109850000Y-69509834D01*
X109850000Y-89538195D01*
X109833538Y-89642128D01*
X109791193Y-89725236D01*
X109725236Y-89791193D01*
X109642128Y-89833538D01*
X109387476Y-89873872D01*
X109359024Y-89881296D01*
X109342844Y-89888374D01*
X109217399Y-89952291D01*
X109192633Y-89968144D01*
X109179431Y-89979876D01*
X109079876Y-90079431D01*
X109061222Y-90102161D01*
X109052291Y-90117399D01*
X108988374Y-90242844D01*
X108977657Y-90270226D01*
X108973872Y-90287476D01*
X108951847Y-90426534D01*
X108950000Y-90450000D01*
X108950000Y-91890166D01*
X108936824Y-91990252D01*
X108901987Y-92074354D01*
X108846572Y-92146572D01*
X108774354Y-92201987D01*
X108690252Y-92236824D01*
X108590166Y-92250000D01*
X108409834Y-92250000D01*
X108309748Y-92236824D01*
X108225646Y-92201987D01*
X108153428Y-92146572D01*
X108098013Y-92074354D01*
X108063176Y-91990252D01*
X108050000Y-91890166D01*
X108050000Y-90500000D01*
X108048717Y-90480421D01*
X108031680Y-90351011D01*
X108021545Y-90313187D01*
X107971595Y-90192597D01*
X107952015Y-90158685D01*
X107872555Y-90055132D01*
X107844868Y-90027445D01*
X107741315Y-89947985D01*
X107707403Y-89928405D01*
X107586813Y-89878455D01*
X107548989Y-89868320D01*
X107419579Y-89851283D01*
X107400000Y-89850000D01*
X104509834Y-89850000D01*
X104409748Y-89836824D01*
X104325646Y-89801987D01*
X104253428Y-89746572D01*
X104198013Y-89674354D01*
X104163176Y-89590252D01*
X104150000Y-89490166D01*
X104150000Y-63009834D01*
X104163176Y-62909748D01*
X104198013Y-62825646D01*
X104253428Y-62753428D01*
X104325646Y-62698013D01*
X104409748Y-62663176D01*
X104509834Y-62650000D01*
X137490166Y-62650000D01*
X137590252Y-62663176D01*
X137590252Y-62663176D01*
G37*
X137590252Y-62663176D02*
X137674354Y-62698013D01*
X137746572Y-62753428D01*
X137801987Y-62825646D01*
X137836824Y-62909748D01*
X137850000Y-63009834D01*
X137850000Y-65490166D01*
X137836824Y-65590252D01*
X137801987Y-65674354D01*
X137746572Y-65746572D01*
X137674354Y-65801987D01*
X137590252Y-65836824D01*
X137490166Y-65850000D01*
X124009834Y-65850000D01*
X123909748Y-65836824D01*
X123825646Y-65801987D01*
X123753428Y-65746572D01*
X123698013Y-65674354D01*
X123663176Y-65590252D01*
X123650000Y-65490166D01*
X123650000Y-65000000D01*
X123648717Y-64980421D01*
X123631680Y-64851011D01*
X123621545Y-64813187D01*
X123571595Y-64692597D01*
X123552015Y-64658685D01*
X123472555Y-64555132D01*
X123444868Y-64527445D01*
X123341315Y-64447985D01*
X123307403Y-64428405D01*
X123186813Y-64378455D01*
X123148989Y-64368320D01*
X123019579Y-64351283D01*
X123000000Y-64350000D01*
X107000000Y-64350000D01*
X106980421Y-64351283D01*
X106851011Y-64368320D01*
X106813187Y-64378455D01*
X106692597Y-64428405D01*
X106658685Y-64447985D01*
X106555132Y-64527445D01*
X106527445Y-64555132D01*
X106447985Y-64658685D01*
X106428405Y-64692597D01*
X106378455Y-64813187D01*
X106368320Y-64851011D01*
X106351283Y-64980421D01*
X106350000Y-65000000D01*
X106350000Y-68500000D01*
X106351283Y-68519579D01*
X106368320Y-68648989D01*
X106378455Y-68686813D01*
X106428405Y-68807403D01*
X106447985Y-68841315D01*
X106527445Y-68944868D01*
X106555132Y-68972555D01*
X106658685Y-69052015D01*
X106692597Y-69071595D01*
X106813187Y-69121545D01*
X106851011Y-69131680D01*
X106980421Y-69148717D01*
X107000000Y-69150000D01*
X109490166Y-69150000D01*
X109590252Y-69163176D01*
X109674354Y-69198013D01*
X109746572Y-69253428D01*
X109801987Y-69325646D01*
X109836824Y-69409748D01*
X109850000Y-69509834D01*
X109850000Y-89538195D01*
X109833538Y-89642128D01*
X109791193Y-89725236D01*
X109725236Y-89791193D01*
X109642128Y-89833538D01*
X109387476Y-89873872D01*
X109359024Y-89881296D01*
X109342844Y-89888374D01*
X109217399Y-89952291D01*
X109192633Y-89968144D01*
X109179431Y-89979876D01*
X109079876Y-90079431D01*
X109061222Y-90102161D01*
X109052291Y-90117399D01*
X108988374Y-90242844D01*
X108977657Y-90270226D01*
X108973872Y-90287476D01*
X108951847Y-90426534D01*
X108950000Y-90450000D01*
X108950000Y-91890166D01*
X108936824Y-91990252D01*
X108901987Y-92074354D01*
X108846572Y-92146572D01*
X108774354Y-92201987D01*
X108690252Y-92236824D01*
X108590166Y-92250000D01*
X108409834Y-92250000D01*
X108309748Y-92236824D01*
X108225646Y-92201987D01*
X108153428Y-92146572D01*
X108098013Y-92074354D01*
X108063176Y-91990252D01*
X108050000Y-91890166D01*
X108050000Y-90500000D01*
X108048717Y-90480421D01*
X108031680Y-90351011D01*
X108021545Y-90313187D01*
X107971595Y-90192597D01*
X107952015Y-90158685D01*
X107872555Y-90055132D01*
X107844868Y-90027445D01*
X107741315Y-89947985D01*
X107707403Y-89928405D01*
X107586813Y-89878455D01*
X107548989Y-89868320D01*
X107419579Y-89851283D01*
X107400000Y-89850000D01*
X104509834Y-89850000D01*
X104409748Y-89836824D01*
X104325646Y-89801987D01*
X104253428Y-89746572D01*
X104198013Y-89674354D01*
X104163176Y-89590252D01*
X104150000Y-89490166D01*
X104150000Y-63009834D01*
X104163176Y-62909748D01*
X104198013Y-62825646D01*
X104253428Y-62753428D01*
X104325646Y-62698013D01*
X104409748Y-62663176D01*
X104509834Y-62650000D01*
X137490166Y-62650000D01*
X137590252Y-62663176D01*
G36*
X117990252Y-66563176D02*
G01*
X118074354Y-66598013D01*
X118146572Y-66653428D01*
X118201987Y-66725646D01*
X118236824Y-66809748D01*
X118250000Y-66909834D01*
X118250000Y-89390166D01*
X118236824Y-89490252D01*
X118201987Y-89574354D01*
X118146572Y-89646572D01*
X118074354Y-89701987D01*
X117990252Y-89736824D01*
X117890166Y-89750000D01*
X114809834Y-89750000D01*
X114709748Y-89736824D01*
X114625646Y-89701987D01*
X114553428Y-89646572D01*
X114498013Y-89574354D01*
X114463176Y-89490252D01*
X114450000Y-89390166D01*
X114450000Y-68700000D01*
X114448717Y-68680421D01*
X114431680Y-68551011D01*
X114421545Y-68513187D01*
X114371595Y-68392597D01*
X114352015Y-68358685D01*
X114272555Y-68255132D01*
X114244868Y-68227445D01*
X114141315Y-68147985D01*
X114107403Y-68128405D01*
X113986813Y-68078455D01*
X113948989Y-68068320D01*
X113819579Y-68051283D01*
X113800000Y-68050000D01*
X107609834Y-68050000D01*
X107509748Y-68036824D01*
X107425646Y-68001987D01*
X107353428Y-67946572D01*
X107298013Y-67874354D01*
X107263176Y-67790252D01*
X107250000Y-67690166D01*
X107250000Y-66909834D01*
X107263176Y-66809748D01*
X107298013Y-66725646D01*
X107353428Y-66653428D01*
X107425646Y-66598013D01*
X107509748Y-66563176D01*
X107609834Y-66550000D01*
X117890166Y-66550000D01*
X117990252Y-66563176D01*
X117990252Y-66563176D01*
G37*
X117990252Y-66563176D02*
X118074354Y-66598013D01*
X118146572Y-66653428D01*
X118201987Y-66725646D01*
X118236824Y-66809748D01*
X118250000Y-66909834D01*
X118250000Y-89390166D01*
X118236824Y-89490252D01*
X118201987Y-89574354D01*
X118146572Y-89646572D01*
X118074354Y-89701987D01*
X117990252Y-89736824D01*
X117890166Y-89750000D01*
X114809834Y-89750000D01*
X114709748Y-89736824D01*
X114625646Y-89701987D01*
X114553428Y-89646572D01*
X114498013Y-89574354D01*
X114463176Y-89490252D01*
X114450000Y-89390166D01*
X114450000Y-68700000D01*
X114448717Y-68680421D01*
X114431680Y-68551011D01*
X114421545Y-68513187D01*
X114371595Y-68392597D01*
X114352015Y-68358685D01*
X114272555Y-68255132D01*
X114244868Y-68227445D01*
X114141315Y-68147985D01*
X114107403Y-68128405D01*
X113986813Y-68078455D01*
X113948989Y-68068320D01*
X113819579Y-68051283D01*
X113800000Y-68050000D01*
X107609834Y-68050000D01*
X107509748Y-68036824D01*
X107425646Y-68001987D01*
X107353428Y-67946572D01*
X107298013Y-67874354D01*
X107263176Y-67790252D01*
X107250000Y-67690166D01*
X107250000Y-66909834D01*
X107263176Y-66809748D01*
X107298013Y-66725646D01*
X107353428Y-66653428D01*
X107425646Y-66598013D01*
X107509748Y-66563176D01*
X107609834Y-66550000D01*
X117890166Y-66550000D01*
X117990252Y-66563176D01*
G36*
X116825000Y-103153145D02*
G01*
X117764056Y-103153145D01*
X117840252Y-103163176D01*
X117924354Y-103198013D01*
X117996572Y-103253428D01*
X118051987Y-103325646D01*
X118086824Y-103409748D01*
X118100000Y-103509834D01*
X118100000Y-104740166D01*
X118086824Y-104840252D01*
X118051987Y-104924354D01*
X118034721Y-104946855D01*
X116925000Y-104946855D01*
X116797578Y-104959405D01*
X116675052Y-104996573D01*
X116562132Y-105056930D01*
X116509651Y-105100000D01*
X115750000Y-105100000D01*
X115730421Y-105101283D01*
X115601011Y-105118320D01*
X115563187Y-105128455D01*
X115442597Y-105178405D01*
X115408685Y-105197985D01*
X115305132Y-105277445D01*
X115277445Y-105305132D01*
X115197985Y-105408685D01*
X115178405Y-105442597D01*
X115128455Y-105563187D01*
X115118320Y-105601011D01*
X115101283Y-105730421D01*
X115100000Y-105750000D01*
X115100000Y-106990166D01*
X115086824Y-107090252D01*
X115051987Y-107174354D01*
X114996572Y-107246572D01*
X114924354Y-107301987D01*
X114840252Y-107336824D01*
X114740166Y-107350000D01*
X113750000Y-107350000D01*
X113730421Y-107351283D01*
X113601011Y-107368320D01*
X113563187Y-107378455D01*
X113442597Y-107428405D01*
X113408685Y-107447985D01*
X113305132Y-107527445D01*
X113277445Y-107555132D01*
X113197985Y-107658685D01*
X113178405Y-107692597D01*
X113128455Y-107813187D01*
X113118320Y-107851011D01*
X113101283Y-107980421D01*
X113100000Y-108000000D01*
X113100000Y-108240166D01*
X113086824Y-108340252D01*
X113051987Y-108424354D01*
X112996572Y-108496572D01*
X112924354Y-108551987D01*
X112840252Y-108586824D01*
X112740166Y-108600000D01*
X110259834Y-108600000D01*
X110159748Y-108586824D01*
X110075646Y-108551987D01*
X110003428Y-108496572D01*
X109948013Y-108424354D01*
X109913176Y-108340252D01*
X109900000Y-108240166D01*
X109900000Y-103509834D01*
X109913176Y-103409748D01*
X109948013Y-103325646D01*
X110003428Y-103253428D01*
X110075646Y-103198013D01*
X110159748Y-103163176D01*
X110259834Y-103150000D01*
X116793068Y-103150000D01*
X116825000Y-103153145D01*
X116825000Y-103153145D01*
G37*
X116825000Y-103153145D02*
X117764056Y-103153145D01*
X117840252Y-103163176D01*
X117924354Y-103198013D01*
X117996572Y-103253428D01*
X118051987Y-103325646D01*
X118086824Y-103409748D01*
X118100000Y-103509834D01*
X118100000Y-104740166D01*
X118086824Y-104840252D01*
X118051987Y-104924354D01*
X118034721Y-104946855D01*
X116925000Y-104946855D01*
X116797578Y-104959405D01*
X116675052Y-104996573D01*
X116562132Y-105056930D01*
X116509651Y-105100000D01*
X115750000Y-105100000D01*
X115730421Y-105101283D01*
X115601011Y-105118320D01*
X115563187Y-105128455D01*
X115442597Y-105178405D01*
X115408685Y-105197985D01*
X115305132Y-105277445D01*
X115277445Y-105305132D01*
X115197985Y-105408685D01*
X115178405Y-105442597D01*
X115128455Y-105563187D01*
X115118320Y-105601011D01*
X115101283Y-105730421D01*
X115100000Y-105750000D01*
X115100000Y-106990166D01*
X115086824Y-107090252D01*
X115051987Y-107174354D01*
X114996572Y-107246572D01*
X114924354Y-107301987D01*
X114840252Y-107336824D01*
X114740166Y-107350000D01*
X113750000Y-107350000D01*
X113730421Y-107351283D01*
X113601011Y-107368320D01*
X113563187Y-107378455D01*
X113442597Y-107428405D01*
X113408685Y-107447985D01*
X113305132Y-107527445D01*
X113277445Y-107555132D01*
X113197985Y-107658685D01*
X113178405Y-107692597D01*
X113128455Y-107813187D01*
X113118320Y-107851011D01*
X113101283Y-107980421D01*
X113100000Y-108000000D01*
X113100000Y-108240166D01*
X113086824Y-108340252D01*
X113051987Y-108424354D01*
X112996572Y-108496572D01*
X112924354Y-108551987D01*
X112840252Y-108586824D01*
X112740166Y-108600000D01*
X110259834Y-108600000D01*
X110159748Y-108586824D01*
X110075646Y-108551987D01*
X110003428Y-108496572D01*
X109948013Y-108424354D01*
X109913176Y-108340252D01*
X109900000Y-108240166D01*
X109900000Y-103509834D01*
X109913176Y-103409748D01*
X109948013Y-103325646D01*
X110003428Y-103253428D01*
X110075646Y-103198013D01*
X110159748Y-103163176D01*
X110259834Y-103150000D01*
X116793068Y-103150000D01*
X116825000Y-103153145D01*
G36*
X122090252Y-99963176D02*
G01*
X122174354Y-99998013D01*
X122246572Y-100053428D01*
X122301987Y-100125646D01*
X122336824Y-100209748D01*
X122350000Y-100309834D01*
X122350000Y-101790166D01*
X122336824Y-101890252D01*
X122301987Y-101974354D01*
X122246572Y-102046572D01*
X122174354Y-102101987D01*
X122090252Y-102136824D01*
X121990166Y-102150000D01*
X117609834Y-102150000D01*
X117509748Y-102136824D01*
X117425646Y-102101987D01*
X117353428Y-102046572D01*
X117298013Y-101974354D01*
X117263176Y-101890252D01*
X117250000Y-101790166D01*
X117250000Y-100309834D01*
X117263176Y-100209748D01*
X117298013Y-100125646D01*
X117353428Y-100053428D01*
X117425646Y-99998013D01*
X117509748Y-99963176D01*
X117609834Y-99950000D01*
X121990166Y-99950000D01*
X122090252Y-99963176D01*
X122090252Y-99963176D01*
G37*
X122090252Y-99963176D02*
X122174354Y-99998013D01*
X122246572Y-100053428D01*
X122301987Y-100125646D01*
X122336824Y-100209748D01*
X122350000Y-100309834D01*
X122350000Y-101790166D01*
X122336824Y-101890252D01*
X122301987Y-101974354D01*
X122246572Y-102046572D01*
X122174354Y-102101987D01*
X122090252Y-102136824D01*
X121990166Y-102150000D01*
X117609834Y-102150000D01*
X117509748Y-102136824D01*
X117425646Y-102101987D01*
X117353428Y-102046572D01*
X117298013Y-101974354D01*
X117263176Y-101890252D01*
X117250000Y-101790166D01*
X117250000Y-100309834D01*
X117263176Y-100209748D01*
X117298013Y-100125646D01*
X117353428Y-100053428D01*
X117425646Y-99998013D01*
X117509748Y-99963176D01*
X117609834Y-99950000D01*
X121990166Y-99950000D01*
X122090252Y-99963176D01*
M02*
