G04 #@! TF.GenerationSoftware,KiCad,Pcbnew,5.1.4-e60b266~84~ubuntu18.04.1*
G04 #@! TF.CreationDate,2019-09-05T01:59:36+01:00*
G04 #@! TF.ProjectId,psu,7073752e-6b69-4636-9164-5f7063625858,1*
G04 #@! TF.SameCoordinates,Original*
G04 #@! TF.FileFunction,Profile,NP*
%FSLAX46Y46*%
G04 Gerber Fmt 4.6, Leading zero omitted, Abs format (unit mm)*
G04 Created by KiCad (PCBNEW 5.1.4-e60b266~84~ubuntu18.04.1) date 2019-09-05 01:59:36*
%MOMM*%
%LPD*%
G04 APERTURE LIST*
%ADD10C,0.050000*%
G04 APERTURE END LIST*
D10*
X177000000Y-93500000D02*
X177000000Y-86500000D01*
X176000000Y-90500000D02*
X176000000Y-94500000D01*
X176000000Y-89500000D02*
X176000000Y-85500000D01*
X143500000Y-90000000D02*
X142500000Y-90000000D01*
X143500000Y-100000000D02*
X143500000Y-90000000D01*
X142500000Y-100000000D02*
X143500000Y-100000000D01*
X142500000Y-90000000D02*
X142500000Y-100000000D01*
X142500000Y-73000000D02*
X142500000Y-52000000D01*
X143500000Y-73000000D02*
X142500000Y-73000000D01*
X143500000Y-52000000D02*
X143500000Y-73000000D01*
X142500000Y-52000000D02*
X143500000Y-52000000D01*
X200000000Y-66500000D02*
X200000000Y-51000000D01*
X191000000Y-66500000D02*
X200000000Y-66500000D01*
X191000000Y-73000000D02*
X191000000Y-66500000D01*
X193500000Y-73000000D02*
X191000000Y-73000000D01*
X193500000Y-69000000D02*
X193500000Y-73000000D01*
X200000000Y-69000000D02*
X193500000Y-69000000D01*
X168000000Y-89500000D02*
X176000000Y-89500000D01*
X168000000Y-90500000D02*
X168000000Y-89500000D01*
X176000000Y-90500000D02*
X168000000Y-90500000D01*
X188000000Y-94500000D02*
X188000000Y-93500000D01*
X176000000Y-94500000D02*
X188000000Y-94500000D01*
X188000000Y-93500000D02*
X177000000Y-93500000D01*
X188000000Y-86500000D02*
X188000000Y-85500000D01*
X177000000Y-86500000D02*
X188000000Y-86500000D01*
X188000000Y-85500000D02*
X176000000Y-85500000D01*
X148500000Y-77500000D02*
X188000000Y-77500000D01*
X148500000Y-78500000D02*
X148500000Y-77500000D01*
X188000000Y-78500000D02*
X148500000Y-78500000D01*
X188000000Y-77500000D02*
X188000000Y-78500000D01*
X148500000Y-101500000D02*
X188000000Y-101500000D01*
X148500000Y-102500000D02*
X148500000Y-101500000D01*
X188000000Y-102500000D02*
X148500000Y-102500000D01*
X188000000Y-101500000D02*
X188000000Y-102500000D01*
X200000000Y-69000000D02*
X200000000Y-149000000D01*
X199000000Y-50000000D02*
G75*
G02X200000000Y-51000000I0J-1000000D01*
G01*
X200000000Y-149000000D02*
G75*
G02X199000000Y-150000000I-1000000J0D01*
G01*
X101000000Y-150000000D02*
G75*
G02X100000000Y-149000000I0J1000000D01*
G01*
X100000000Y-51000000D02*
G75*
G02X101000000Y-50000000I1000000J0D01*
G01*
X199000000Y-50000000D02*
X101000000Y-50000000D01*
X101000000Y-150000000D02*
X199000000Y-150000000D01*
X100000000Y-51000000D02*
X100000000Y-149000000D01*
M02*
