M48
; DRILL file {KiCad 5.1.4-e60b266~84~ubuntu18.04.1} date Thu 05 Sep 2019 01:59:38 BST
; FORMAT={-:-/ absolute / inch / decimal}
; #@! TF.CreationDate,2019-09-05T01:59:38+01:00
; #@! TF.GenerationSoftware,Kicad,Pcbnew,5.1.4-e60b266~84~ubuntu18.04.1
; #@! TF.FileFunction,Plated,1,2,PTH
FMAT,2
INCH
T1C0.0157
T2C0.0197
T3C0.0236
T4C0.0315
T5C0.0394
%
G90
G05
T1
X4.0157Y-3.7795
X4.1417Y-4.3701
X4.1811Y-4.689
X4.2165Y-4.2441
X4.2717Y-3.7126
X4.2835Y-3.9764
X4.2953Y-4.0551
X4.3268Y-4.6496
X4.4488Y-4.5315
X4.4803Y-4.7047
X4.5118Y-4.0157
X4.5118Y-4.7402
X4.6339Y-4.5315
X4.6457Y-3.6417
X4.7047Y-4.7047
X4.7126Y-4.5551
X4.7402Y-4.7402
X4.8543Y-4.2835
X4.8622Y-4.3543
X4.8957Y-2.315
X4.9252Y-4.2835
X4.9409Y-2.0669
X5.063Y-5.0512
X5.0669Y-4.7874
X5.1063Y-5.2441
X5.1181Y-2.0669
X5.1181Y-2.3819
X5.122Y-4.7323
X5.1378Y-4.5551
X5.2559Y-2.3681
X5.3228Y-4.6929
X5.3543Y-4.8661
X5.4567Y-4.4567
X5.5Y-4.6575
X5.5236Y-4.8858
X5.5748Y-4.8228
X5.813Y-5.6299
X5.8976Y-5.3976
X5.9409Y-5.3976
X6.0236Y-5.6988
X6.0433Y-5.3976
X6.2559Y-5.5748
X6.2559Y-5.685
X6.4213Y-5.5748
X6.4213Y-5.685
X6.4409Y-5.748
X6.4961Y-5.7402
X6.6417Y-5.0236
X6.6535Y-5.7402
X6.7362Y-4.9291
X6.7913Y-4.7047
X6.811Y-5.7402
X6.9488Y-4.7283
X6.9685Y-5.7402
X6.9823Y-4.1417
X6.9823Y-4.3209
X7.0787Y-5.1457
X7.0787Y-5.2598
X7.126Y-5.7402
X7.1457Y-5.3819
X7.1614Y-5.311
X7.2835Y-5.7402
X7.2992Y-2.6102
X7.2992Y-2.748
X7.3268Y-4.626
X7.3268Y-4.7441
X7.374Y-4.9291
T2
X4.3099Y-3.8279
T3
X4.3268Y-4.2874
X4.3346Y-4.0787
X4.4449Y-4.0787
X4.4528Y-4.2874
X4.4882Y-4.122
X4.4921Y-4.0787
X4.5276Y-2.6969
X4.5276Y-2.7953
X4.5276Y-2.9724
X4.5276Y-3.0709
X4.5276Y-3.1693
X4.5276Y-3.2579
X4.5276Y-3.3957
X4.5276Y-3.5138
X4.5354Y-4.0787
X4.5354Y-4.122
X4.5768Y-2.6969
X4.5768Y-2.7953
X4.5768Y-2.9724
X4.5768Y-3.0709
X4.5768Y-3.1693
X4.5768Y-3.2579
X4.5768Y-3.3957
X4.5768Y-3.5138
X4.5827Y-4.0787
X4.5827Y-4.122
X4.626Y-2.6969
X4.626Y-2.7953
X4.626Y-2.9724
X4.626Y-3.0709
X4.626Y-3.1693
X4.626Y-3.2579
X4.626Y-3.3957
X4.626Y-3.5138
X4.6299Y-4.0787
X4.6299Y-4.122
X4.9567Y-5.3622
X5.1181Y-5.7382
X5.748Y-5.7382
X6.122Y-5.7382
X6.3346Y-4.8268
X6.3346Y-5.0551
X7.2087Y-4.2421
X7.2087Y-4.5512
X7.2087Y-4.5984
X7.2559Y-4.2421
X7.3031Y-4.2421
T4
X4.7031Y-5.689
X4.8031Y-5.689
X4.9031Y-5.689
X5.3331Y-5.689
X5.4331Y-5.689
X5.5331Y-5.689
T5
X7.6575Y-2.5575
X7.6575Y-2.7575
X7.6575Y-4.5941
X7.6575Y-4.6941
X7.6575Y-4.7941
X7.6575Y-4.8941
T5
G00X4.2362Y-5.1969
M15
G01X4.2362Y-5.2835
M16
G05
G00X4.4016Y-5.437
M15
G01X4.315Y-5.437
M16
G05
G00X4.4803Y-5.1969
M15
G01X4.4803Y-5.2835
M16
G05
T0
M30
