G04 #@! TF.GenerationSoftware,KiCad,Pcbnew,5.1.4-e60b266~84~ubuntu18.04.1*
G04 #@! TF.CreationDate,2019-09-05T01:59:36+01:00*
G04 #@! TF.ProjectId,psu,7073752e-6b69-4636-9164-5f7063625858,1*
G04 #@! TF.SameCoordinates,Original*
G04 #@! TF.FileFunction,Copper,L2,Bot*
G04 #@! TF.FilePolarity,Positive*
%FSLAX46Y46*%
G04 Gerber Fmt 4.6, Leading zero omitted, Abs format (unit mm)*
G04 Created by KiCad (PCBNEW 5.1.4-e60b266~84~ubuntu18.04.1) date 2019-09-05 01:59:36*
%MOMM*%
%LPD*%
G04 APERTURE LIST*
%ADD10C,1.900000*%
%ADD11R,1.900000X1.900000*%
%ADD12C,0.100000*%
%ADD13C,2.000000*%
%ADD14C,1.500000*%
%ADD15C,0.800000*%
%ADD16C,1.200000*%
%ADD17C,1.000000*%
%ADD18C,1.500000*%
%ADD19C,0.300000*%
%ADD20C,0.800000*%
%ADD21C,0.500000*%
%ADD22C,1.000000*%
G04 APERTURE END LIST*
D10*
X194500000Y-64960000D03*
D11*
X194500000Y-70040000D03*
D10*
X194500000Y-116690000D03*
X194500000Y-119230000D03*
X194500000Y-121770000D03*
D11*
X194500000Y-124310000D03*
D12*
G36*
X107698018Y-131004815D02*
G01*
X107795091Y-131019215D01*
X107890286Y-131043060D01*
X107982684Y-131076120D01*
X108071398Y-131118079D01*
X108155571Y-131168530D01*
X108234394Y-131226990D01*
X108307108Y-131292893D01*
X108373011Y-131365607D01*
X108431471Y-131444430D01*
X108481922Y-131528603D01*
X108523881Y-131617317D01*
X108556941Y-131709715D01*
X108580786Y-131804910D01*
X108595186Y-131901983D01*
X108600001Y-132000000D01*
X108600001Y-134200000D01*
X108595186Y-134298017D01*
X108580786Y-134395090D01*
X108556941Y-134490285D01*
X108523881Y-134582683D01*
X108481922Y-134671397D01*
X108431471Y-134755570D01*
X108373011Y-134834393D01*
X108307108Y-134907107D01*
X108234394Y-134973010D01*
X108155571Y-135031470D01*
X108071398Y-135081921D01*
X107982684Y-135123880D01*
X107890286Y-135156940D01*
X107795091Y-135180785D01*
X107698018Y-135195185D01*
X107600001Y-135200000D01*
X107599999Y-135200000D01*
X107501982Y-135195185D01*
X107404909Y-135180785D01*
X107309714Y-135156940D01*
X107217316Y-135123880D01*
X107128602Y-135081921D01*
X107044429Y-135031470D01*
X106965606Y-134973010D01*
X106892892Y-134907107D01*
X106826989Y-134834393D01*
X106768529Y-134755570D01*
X106718078Y-134671397D01*
X106676119Y-134582683D01*
X106643059Y-134490285D01*
X106619214Y-134395090D01*
X106604814Y-134298017D01*
X106599999Y-134200000D01*
X106599999Y-132000000D01*
X106604814Y-131901983D01*
X106619214Y-131804910D01*
X106643059Y-131709715D01*
X106676119Y-131617317D01*
X106718078Y-131528603D01*
X106768529Y-131444430D01*
X106826989Y-131365607D01*
X106892892Y-131292893D01*
X106965606Y-131226990D01*
X107044429Y-131168530D01*
X107128602Y-131118079D01*
X107217316Y-131076120D01*
X107309714Y-131043060D01*
X107404909Y-131019215D01*
X107501982Y-131004815D01*
X107599999Y-131000000D01*
X107600001Y-131000000D01*
X107698018Y-131004815D01*
X107698018Y-131004815D01*
G37*
D13*
X107600000Y-133100000D03*
D12*
G36*
X111898017Y-137104814D02*
G01*
X111995090Y-137119214D01*
X112090285Y-137143059D01*
X112182683Y-137176119D01*
X112271397Y-137218078D01*
X112355570Y-137268529D01*
X112434393Y-137326989D01*
X112507107Y-137392892D01*
X112573010Y-137465606D01*
X112631470Y-137544429D01*
X112681921Y-137628602D01*
X112723880Y-137717316D01*
X112756940Y-137809714D01*
X112780785Y-137904909D01*
X112795185Y-138001982D01*
X112800000Y-138099999D01*
X112800000Y-138100001D01*
X112795185Y-138198018D01*
X112780785Y-138295091D01*
X112756940Y-138390286D01*
X112723880Y-138482684D01*
X112681921Y-138571398D01*
X112631470Y-138655571D01*
X112573010Y-138734394D01*
X112507107Y-138807108D01*
X112434393Y-138873011D01*
X112355570Y-138931471D01*
X112271397Y-138981922D01*
X112182683Y-139023881D01*
X112090285Y-139056941D01*
X111995090Y-139080786D01*
X111898017Y-139095186D01*
X111800000Y-139100001D01*
X109600000Y-139100001D01*
X109501983Y-139095186D01*
X109404910Y-139080786D01*
X109309715Y-139056941D01*
X109217317Y-139023881D01*
X109128603Y-138981922D01*
X109044430Y-138931471D01*
X108965607Y-138873011D01*
X108892893Y-138807108D01*
X108826990Y-138734394D01*
X108768530Y-138655571D01*
X108718079Y-138571398D01*
X108676120Y-138482684D01*
X108643060Y-138390286D01*
X108619215Y-138295091D01*
X108604815Y-138198018D01*
X108600000Y-138100001D01*
X108600000Y-138099999D01*
X108604815Y-138001982D01*
X108619215Y-137904909D01*
X108643060Y-137809714D01*
X108676120Y-137717316D01*
X108718079Y-137628602D01*
X108768530Y-137544429D01*
X108826990Y-137465606D01*
X108892893Y-137392892D01*
X108965607Y-137326989D01*
X109044430Y-137268529D01*
X109128603Y-137218078D01*
X109217317Y-137176119D01*
X109309715Y-137143059D01*
X109404910Y-137119214D01*
X109501983Y-137104814D01*
X109600000Y-137099999D01*
X111800000Y-137099999D01*
X111898017Y-137104814D01*
X111898017Y-137104814D01*
G37*
D13*
X110700000Y-138100000D03*
D12*
G36*
X113898018Y-131004815D02*
G01*
X113995091Y-131019215D01*
X114090286Y-131043060D01*
X114182684Y-131076120D01*
X114271398Y-131118079D01*
X114355571Y-131168530D01*
X114434394Y-131226990D01*
X114507108Y-131292893D01*
X114573011Y-131365607D01*
X114631471Y-131444430D01*
X114681922Y-131528603D01*
X114723881Y-131617317D01*
X114756941Y-131709715D01*
X114780786Y-131804910D01*
X114795186Y-131901983D01*
X114800001Y-132000000D01*
X114800001Y-134200000D01*
X114795186Y-134298017D01*
X114780786Y-134395090D01*
X114756941Y-134490285D01*
X114723881Y-134582683D01*
X114681922Y-134671397D01*
X114631471Y-134755570D01*
X114573011Y-134834393D01*
X114507108Y-134907107D01*
X114434394Y-134973010D01*
X114355571Y-135031470D01*
X114271398Y-135081921D01*
X114182684Y-135123880D01*
X114090286Y-135156940D01*
X113995091Y-135180785D01*
X113898018Y-135195185D01*
X113800001Y-135200000D01*
X113799999Y-135200000D01*
X113701982Y-135195185D01*
X113604909Y-135180785D01*
X113509714Y-135156940D01*
X113417316Y-135123880D01*
X113328602Y-135081921D01*
X113244429Y-135031470D01*
X113165606Y-134973010D01*
X113092892Y-134907107D01*
X113026989Y-134834393D01*
X112968529Y-134755570D01*
X112918078Y-134671397D01*
X112876119Y-134582683D01*
X112843059Y-134490285D01*
X112819214Y-134395090D01*
X112804814Y-134298017D01*
X112799999Y-134200000D01*
X112799999Y-132000000D01*
X112804814Y-131901983D01*
X112819214Y-131804910D01*
X112843059Y-131709715D01*
X112876119Y-131617317D01*
X112918078Y-131528603D01*
X112968529Y-131444430D01*
X113026989Y-131365607D01*
X113092892Y-131292893D01*
X113165606Y-131226990D01*
X113244429Y-131168530D01*
X113328602Y-131118079D01*
X113417316Y-131076120D01*
X113509714Y-131043060D01*
X113604909Y-131019215D01*
X113701982Y-131004815D01*
X113799999Y-131000000D01*
X113800001Y-131000000D01*
X113898018Y-131004815D01*
X113898018Y-131004815D01*
G37*
D13*
X113800000Y-133100000D03*
D14*
X140540000Y-144500000D03*
X138000000Y-144500000D03*
X135460000Y-144500000D03*
X124540000Y-144500000D03*
X122000000Y-144500000D03*
X119460000Y-144500000D03*
D15*
X158900000Y-144400000D03*
X158900000Y-141600000D03*
X105200000Y-111000000D03*
X130500000Y-115700000D03*
X139700000Y-118300000D03*
X135200000Y-119200000D03*
X181900000Y-134900000D03*
X163100000Y-144400000D03*
X163100000Y-141600000D03*
X172500000Y-119500000D03*
X176500000Y-120100000D03*
X186100000Y-117500000D03*
X186100000Y-120500000D03*
X187300000Y-125200000D03*
X149800000Y-137100000D03*
X150900000Y-137100000D03*
X153500000Y-137100000D03*
D16*
X185500000Y-107750000D03*
X184300000Y-107750000D03*
X183100000Y-107750000D03*
X183100000Y-115600000D03*
X183100000Y-116800000D03*
D15*
X130000000Y-60500000D03*
X124350000Y-58800000D03*
X133500000Y-60150000D03*
D16*
X130000000Y-145750000D03*
D15*
X165000000Y-145800000D03*
X169000000Y-145800000D03*
X173000000Y-145800000D03*
X177000000Y-145800000D03*
X185000000Y-145800000D03*
X147650000Y-143000000D03*
D16*
X146000000Y-145750000D03*
X155500000Y-145750000D03*
D15*
X153000000Y-144750000D03*
X181000000Y-145800000D03*
D16*
X115000000Y-68500000D03*
X116250000Y-68500000D03*
X117500000Y-68500000D03*
X117500000Y-71000000D03*
X116250000Y-71000000D03*
X115000000Y-71000000D03*
X115000000Y-75500000D03*
X117500000Y-75500000D03*
X116250000Y-75500000D03*
X115000000Y-80500000D03*
X116250000Y-80500000D03*
X117500000Y-80500000D03*
X117500000Y-78000000D03*
X116250000Y-78000000D03*
X115000000Y-78000000D03*
X115000000Y-82750000D03*
X116250000Y-82750000D03*
X117500000Y-82750000D03*
X115000000Y-86250000D03*
X116250000Y-86250000D03*
X117500000Y-86250000D03*
X115000000Y-89250000D03*
X116250000Y-89250000D03*
X117500000Y-89250000D03*
X117600000Y-103600000D03*
X117600000Y-104700000D03*
X116400000Y-104700000D03*
X116400000Y-103600000D03*
X115200000Y-103600000D03*
X115200000Y-104700000D03*
X114000000Y-104700000D03*
X114100000Y-103600000D03*
X112900000Y-103600000D03*
X110100000Y-103600000D03*
X109900000Y-108900000D03*
X113100000Y-108900000D03*
D15*
X114600000Y-102000000D03*
X118000000Y-92500000D03*
X129700000Y-133200000D03*
X181500000Y-136700000D03*
X109900000Y-118100000D03*
X128600000Y-128300000D03*
X123500000Y-110600000D03*
X119700000Y-115700000D03*
X141600000Y-122500000D03*
X106200000Y-119100000D03*
X108800000Y-101000000D03*
X109100000Y-103000000D03*
X114600000Y-120400000D03*
X120400000Y-120400000D03*
D16*
X160900000Y-128400000D03*
X160900000Y-122600000D03*
X125900000Y-136200000D03*
D15*
X125500000Y-52500000D03*
X107100000Y-107800000D03*
X163600000Y-146000000D03*
X108500000Y-94300000D03*
X102000000Y-96000000D03*
D17*
X109472367Y-97229891D03*
D15*
X136000000Y-123600000D03*
X140300000Y-124100000D03*
X179800000Y-133600000D03*
X179800000Y-130700000D03*
X168700000Y-127600000D03*
X171100000Y-125200000D03*
X113000000Y-115100000D03*
X117700000Y-115100000D03*
X130000000Y-52500000D03*
X138600000Y-113200000D03*
X113800000Y-119500000D03*
X119500000Y-119500000D03*
X128700000Y-121600000D03*
X130100000Y-120200000D03*
X185400000Y-69800000D03*
X185400000Y-66300000D03*
X123300000Y-108800000D03*
X125100000Y-108800000D03*
X177350000Y-105200000D03*
X177350000Y-109750000D03*
D18*
X185500000Y-107750000D02*
X184300000Y-107750000D01*
X184300000Y-107750000D02*
X183100000Y-107750000D01*
X193156498Y-116690000D02*
X193146498Y-116700000D01*
X194500000Y-116690000D02*
X193156498Y-116690000D01*
X193146498Y-116700000D02*
X188000000Y-116700000D01*
X196800000Y-72340000D02*
X194525010Y-70065010D01*
X196800000Y-105100000D02*
X196800000Y-72340000D01*
X194525010Y-70065010D02*
X194525010Y-70040000D01*
X194150000Y-107750000D02*
X196800000Y-105100000D01*
X185500000Y-107750000D02*
X194150000Y-107750000D01*
D19*
X114600000Y-120400000D02*
X120400000Y-120400000D01*
D20*
X160900000Y-128400000D02*
X160900000Y-122600000D01*
D21*
X102300000Y-94700000D02*
X102300000Y-63300000D01*
X102900000Y-95300000D02*
X102300000Y-94700000D01*
X107000000Y-95300000D02*
X102900000Y-95300000D01*
X103700000Y-99000000D02*
X104300000Y-98400000D01*
X118900000Y-141700000D02*
X109200000Y-141700000D01*
X125900000Y-136200000D02*
X124400000Y-136200000D01*
X109600000Y-93800000D02*
X109000000Y-93200000D01*
X124400000Y-136200000D02*
X118900000Y-141700000D01*
X104300000Y-98400000D02*
X110100000Y-98400000D01*
X110100000Y-98400000D02*
X110600000Y-97900000D01*
X110600000Y-97900000D02*
X110600000Y-96700000D01*
X110600000Y-96700000D02*
X109600000Y-95700000D01*
X109600000Y-95700000D02*
X109600000Y-93800000D01*
X109000000Y-93200000D02*
X107800000Y-93200000D01*
X107800000Y-93200000D02*
X107400000Y-93600000D01*
X109200000Y-141700000D02*
X103700000Y-136200000D01*
X107400000Y-93600000D02*
X107400000Y-94900000D01*
X107400000Y-94900000D02*
X107000000Y-95300000D01*
X113100000Y-52500000D02*
X125500000Y-52500000D01*
X102300000Y-63300000D02*
X113100000Y-52500000D01*
X107100000Y-107800000D02*
X103900000Y-107800000D01*
X103700000Y-136200000D02*
X103700000Y-107600000D01*
X103900000Y-107800000D02*
X103700000Y-107600000D01*
X103700000Y-107600000D02*
X103700000Y-99000000D01*
D18*
X194500000Y-126760000D02*
X194500000Y-124310000D01*
X119460000Y-144500000D02*
X119460000Y-145560660D01*
X190900000Y-146000000D02*
X190900000Y-130360000D01*
X119460000Y-145560660D02*
X121899340Y-148000000D01*
X188900000Y-148000000D02*
X190900000Y-146000000D01*
X190900000Y-130360000D02*
X194500000Y-126760000D01*
X135460000Y-147960000D02*
X135500000Y-148000000D01*
X135460000Y-144500000D02*
X135460000Y-147960000D01*
X121899340Y-148000000D02*
X135500000Y-148000000D01*
D19*
X167450000Y-147550000D02*
X167900000Y-148000000D01*
D18*
X167900000Y-148000000D02*
X188900000Y-148000000D01*
D19*
X163300000Y-148000000D02*
X163600000Y-147700000D01*
X163600000Y-147700000D02*
X163600000Y-146000000D01*
D18*
X163300000Y-148000000D02*
X167900000Y-148000000D01*
X135500000Y-148000000D02*
X163300000Y-148000000D01*
D19*
X102200000Y-96200000D02*
X102000000Y-96000000D01*
X108329881Y-96200000D02*
X102200000Y-96200000D01*
X108500000Y-94300000D02*
X108500000Y-96029881D01*
X108500000Y-96029881D02*
X108329881Y-96200000D01*
D22*
X103570109Y-97229891D02*
X109472367Y-97229891D01*
X124540000Y-143439340D02*
X124000660Y-142900000D01*
X124540000Y-144500000D02*
X124540000Y-143439340D01*
X108700000Y-142900000D02*
X102500000Y-136700000D01*
X124000660Y-142900000D02*
X108700000Y-142900000D01*
X102500000Y-136700000D02*
X102500000Y-98300000D01*
X102500000Y-98300000D02*
X103570109Y-97229891D01*
D19*
X136150000Y-123450000D02*
X136000000Y-123600000D01*
X136500000Y-124100000D02*
X136000000Y-123600000D01*
X140300000Y-124100000D02*
X136500000Y-124100000D01*
X179800000Y-133600000D02*
X179800000Y-130700000D01*
X168700000Y-127600000D02*
X171100000Y-125200000D01*
X113000000Y-115100000D02*
X117700000Y-115100000D01*
X141600000Y-110200000D02*
X138900000Y-112900000D01*
X141600000Y-53100000D02*
X141600000Y-110200000D01*
X130000000Y-52500000D02*
X141000000Y-52500000D01*
X141000000Y-52500000D02*
X141600000Y-53100000D01*
X138900000Y-112900000D02*
X138600000Y-113200000D01*
X113800000Y-119500000D02*
X119500000Y-119500000D01*
X128700000Y-121600000D02*
X130100000Y-120200000D01*
X185400000Y-69800000D02*
X185400000Y-66300000D01*
X123300000Y-108800000D02*
X125100000Y-108800000D01*
X177350000Y-105200000D02*
X177350000Y-109750000D01*
G36*
X128990350Y-52193726D02*
G01*
X128950000Y-52396584D01*
X128950000Y-52603416D01*
X128990350Y-52806274D01*
X129069502Y-52997362D01*
X129184411Y-53169336D01*
X129330664Y-53315589D01*
X129502638Y-53430498D01*
X129693726Y-53509650D01*
X129896584Y-53550000D01*
X130103416Y-53550000D01*
X130306274Y-53509650D01*
X130497362Y-53430498D01*
X130669336Y-53315589D01*
X130684925Y-53300000D01*
X140668630Y-53300000D01*
X140800000Y-53431371D01*
X140800001Y-109868628D01*
X138518630Y-112150000D01*
X138496584Y-112150000D01*
X138293726Y-112190350D01*
X138102638Y-112269502D01*
X137930664Y-112384411D01*
X137784411Y-112530664D01*
X137669502Y-112702638D01*
X137590350Y-112893726D01*
X137550000Y-113096584D01*
X137550000Y-113303416D01*
X137590350Y-113506274D01*
X137669502Y-113697362D01*
X137784411Y-113869336D01*
X137930664Y-114015589D01*
X138102638Y-114130498D01*
X138293726Y-114209650D01*
X138496584Y-114250000D01*
X138703416Y-114250000D01*
X138906274Y-114209650D01*
X139097362Y-114130498D01*
X139269336Y-114015589D01*
X139415589Y-113869336D01*
X139530498Y-113697362D01*
X139609650Y-113506274D01*
X139650000Y-113303416D01*
X139650000Y-113281370D01*
X141850000Y-111081371D01*
X141850000Y-114000000D01*
X141850722Y-114014703D01*
X141869937Y-114209793D01*
X141875674Y-114238632D01*
X141932579Y-114426225D01*
X141943832Y-114453392D01*
X142036242Y-114626279D01*
X142052578Y-114650729D01*
X142176941Y-114802266D01*
X142197734Y-114823059D01*
X142349271Y-114947422D01*
X142373721Y-114963758D01*
X142546608Y-115056168D01*
X142573775Y-115067421D01*
X142761368Y-115124326D01*
X142790207Y-115130063D01*
X142985297Y-115149278D01*
X143000000Y-115150000D01*
X187992627Y-115150000D01*
X188165688Y-115167045D01*
X188325004Y-115215373D01*
X188471828Y-115293852D01*
X188600528Y-115399472D01*
X188706148Y-115528172D01*
X188784627Y-115674996D01*
X188832955Y-115834312D01*
X188850000Y-116007373D01*
X188850000Y-146070102D01*
X188320102Y-146600000D01*
X164461918Y-146600000D01*
X164530498Y-146497362D01*
X164609650Y-146306274D01*
X164650000Y-146103416D01*
X164650000Y-145896584D01*
X164609650Y-145693726D01*
X164530498Y-145502638D01*
X164415589Y-145330664D01*
X164269336Y-145184411D01*
X164097362Y-145069502D01*
X163906274Y-144990350D01*
X163703416Y-144950000D01*
X163496584Y-144950000D01*
X163293726Y-144990350D01*
X163102638Y-145069502D01*
X162930664Y-145184411D01*
X162784411Y-145330664D01*
X162669502Y-145502638D01*
X162590350Y-145693726D01*
X162550000Y-145896584D01*
X162550000Y-146103416D01*
X162590350Y-146306274D01*
X162669502Y-146497362D01*
X162738082Y-146600000D01*
X136860000Y-146600000D01*
X136860000Y-145340554D01*
X137300867Y-145340554D01*
X137374589Y-145530936D01*
X137587732Y-145633138D01*
X137816718Y-145691795D01*
X138052747Y-145704651D01*
X138286749Y-145671214D01*
X138509732Y-145592767D01*
X138625411Y-145530936D01*
X138699133Y-145340554D01*
X138000000Y-144641421D01*
X137300867Y-145340554D01*
X136860000Y-145340554D01*
X136860000Y-144875474D01*
X136907233Y-145009732D01*
X136969064Y-145125411D01*
X137159446Y-145199133D01*
X137858579Y-144500000D01*
X138141421Y-144500000D01*
X138840554Y-145199133D01*
X139030936Y-145125411D01*
X139133138Y-144912268D01*
X139167722Y-144777258D01*
X139193801Y-144908365D01*
X139299336Y-145163149D01*
X139452549Y-145392448D01*
X139647552Y-145587451D01*
X139876851Y-145740664D01*
X140131635Y-145846199D01*
X140402112Y-145900000D01*
X140677888Y-145900000D01*
X140948365Y-145846199D01*
X141203149Y-145740664D01*
X141432448Y-145587451D01*
X141627451Y-145392448D01*
X141780664Y-145163149D01*
X141886199Y-144908365D01*
X141940000Y-144637888D01*
X141940000Y-144362112D01*
X141886199Y-144091635D01*
X141780664Y-143836851D01*
X141627451Y-143607552D01*
X141432448Y-143412549D01*
X141203149Y-143259336D01*
X140948365Y-143153801D01*
X140677888Y-143100000D01*
X140402112Y-143100000D01*
X140131635Y-143153801D01*
X139876851Y-143259336D01*
X139647552Y-143412549D01*
X139452549Y-143607552D01*
X139299336Y-143836851D01*
X139193801Y-144091635D01*
X139170189Y-144210339D01*
X139092767Y-143990268D01*
X139030936Y-143874589D01*
X138840554Y-143800867D01*
X138141421Y-144500000D01*
X137858579Y-144500000D01*
X137159446Y-143800867D01*
X136969064Y-143874589D01*
X136866862Y-144087732D01*
X136835305Y-144210923D01*
X136819682Y-144159420D01*
X136806199Y-144091635D01*
X136779751Y-144027785D01*
X136759690Y-143961651D01*
X136727111Y-143900701D01*
X136700664Y-143836851D01*
X136662269Y-143779388D01*
X136629690Y-143718438D01*
X136585848Y-143665017D01*
X136582126Y-143659446D01*
X137300867Y-143659446D01*
X138000000Y-144358579D01*
X138699133Y-143659446D01*
X138625411Y-143469064D01*
X138412268Y-143366862D01*
X138183282Y-143308205D01*
X137947253Y-143295349D01*
X137713251Y-143328786D01*
X137490268Y-143407233D01*
X137374589Y-143469064D01*
X137300867Y-143659446D01*
X136582126Y-143659446D01*
X136547451Y-143607552D01*
X136498576Y-143558677D01*
X136454738Y-143505261D01*
X136401324Y-143461425D01*
X136352448Y-143412549D01*
X136294979Y-143374150D01*
X136241561Y-143330310D01*
X136180616Y-143297734D01*
X136123149Y-143259336D01*
X136059295Y-143232887D01*
X135998348Y-143200310D01*
X135932218Y-143180250D01*
X135868365Y-143153801D01*
X135800577Y-143140317D01*
X135734447Y-143120257D01*
X135665673Y-143113483D01*
X135597888Y-143100000D01*
X135528777Y-143100000D01*
X135460000Y-143093226D01*
X135391223Y-143100000D01*
X135322112Y-143100000D01*
X135254327Y-143113483D01*
X135185552Y-143120257D01*
X135119420Y-143140318D01*
X135051635Y-143153801D01*
X134987785Y-143180249D01*
X134921651Y-143200310D01*
X134860701Y-143232889D01*
X134796851Y-143259336D01*
X134739388Y-143297731D01*
X134678438Y-143330310D01*
X134625017Y-143374152D01*
X134567552Y-143412549D01*
X134518677Y-143461424D01*
X134465261Y-143505262D01*
X134421425Y-143558676D01*
X134372549Y-143607552D01*
X134334150Y-143665021D01*
X134290310Y-143718439D01*
X134257734Y-143779384D01*
X134219336Y-143836851D01*
X134192887Y-143900705D01*
X134160310Y-143961652D01*
X134140250Y-144027782D01*
X134113801Y-144091635D01*
X134100317Y-144159423D01*
X134080257Y-144225553D01*
X134073483Y-144294326D01*
X134060000Y-144362112D01*
X134060000Y-144431224D01*
X134060001Y-146600000D01*
X122479239Y-146600000D01*
X121442957Y-145563718D01*
X121587732Y-145633138D01*
X121816718Y-145691795D01*
X122052747Y-145704651D01*
X122286749Y-145671214D01*
X122509732Y-145592767D01*
X122625411Y-145530936D01*
X122699133Y-145340554D01*
X122000000Y-144641421D01*
X121985858Y-144655564D01*
X121844437Y-144514143D01*
X121858579Y-144500000D01*
X121844437Y-144485858D01*
X121985858Y-144344437D01*
X122000000Y-144358579D01*
X122014143Y-144344437D01*
X122155564Y-144485858D01*
X122141421Y-144500000D01*
X122840554Y-145199133D01*
X123030936Y-145125411D01*
X123133138Y-144912268D01*
X123167722Y-144777258D01*
X123193801Y-144908365D01*
X123299336Y-145163149D01*
X123452549Y-145392448D01*
X123647552Y-145587451D01*
X123876851Y-145740664D01*
X124131635Y-145846199D01*
X124402112Y-145900000D01*
X124677888Y-145900000D01*
X124948365Y-145846199D01*
X125203149Y-145740664D01*
X125432448Y-145587451D01*
X125627451Y-145392448D01*
X125780664Y-145163149D01*
X125886199Y-144908365D01*
X125940000Y-144637888D01*
X125940000Y-144362112D01*
X125886199Y-144091635D01*
X125780664Y-143836851D01*
X125690000Y-143701163D01*
X125690000Y-143495822D01*
X125695563Y-143439340D01*
X125690000Y-143382858D01*
X125690000Y-143382848D01*
X125673360Y-143213901D01*
X125607602Y-142997125D01*
X125500816Y-142797343D01*
X125357107Y-142622233D01*
X125313219Y-142586215D01*
X124853785Y-142126781D01*
X124817767Y-142082893D01*
X124642657Y-141939184D01*
X124442875Y-141832398D01*
X124226099Y-141766640D01*
X124057152Y-141750000D01*
X124057142Y-141750000D01*
X124000660Y-141744437D01*
X123944178Y-141750000D01*
X120122792Y-141750000D01*
X124772792Y-137100000D01*
X125032234Y-137100000D01*
X125103172Y-137170938D01*
X125307903Y-137307735D01*
X125535389Y-137401963D01*
X125776886Y-137450000D01*
X126023114Y-137450000D01*
X126264611Y-137401963D01*
X126492097Y-137307735D01*
X126696828Y-137170938D01*
X126870938Y-136996828D01*
X127007735Y-136792097D01*
X127101963Y-136564611D01*
X127150000Y-136323114D01*
X127150000Y-136076886D01*
X127101963Y-135835389D01*
X127007735Y-135607903D01*
X126870938Y-135403172D01*
X126696828Y-135229062D01*
X126492097Y-135092265D01*
X126264611Y-134998037D01*
X126023114Y-134950000D01*
X125776886Y-134950000D01*
X125535389Y-134998037D01*
X125307903Y-135092265D01*
X125103172Y-135229062D01*
X125032234Y-135300000D01*
X124444207Y-135300000D01*
X124400000Y-135295646D01*
X124223569Y-135313023D01*
X124053918Y-135364486D01*
X123981542Y-135403172D01*
X123897568Y-135448057D01*
X123760525Y-135560525D01*
X123732343Y-135594865D01*
X118527208Y-140800000D01*
X109572792Y-140800000D01*
X106872791Y-138099999D01*
X107946855Y-138099999D01*
X107946855Y-138100001D01*
X107978620Y-138422514D01*
X108072693Y-138732632D01*
X108225460Y-139018439D01*
X108431050Y-139268951D01*
X108681562Y-139474541D01*
X108967369Y-139627308D01*
X109277487Y-139721381D01*
X109600000Y-139753146D01*
X111800000Y-139753146D01*
X112122513Y-139721381D01*
X112432631Y-139627308D01*
X112718438Y-139474541D01*
X112968950Y-139268951D01*
X113174540Y-139018439D01*
X113327307Y-138732632D01*
X113421380Y-138422514D01*
X113453145Y-138100001D01*
X113453145Y-138099999D01*
X113421380Y-137777486D01*
X113327307Y-137467368D01*
X113174540Y-137181561D01*
X112968950Y-136931049D01*
X112718438Y-136725459D01*
X112432631Y-136572692D01*
X112122513Y-136478619D01*
X111800000Y-136446854D01*
X109600000Y-136446854D01*
X109277487Y-136478619D01*
X108967369Y-136572692D01*
X108681562Y-136725459D01*
X108431050Y-136931049D01*
X108225460Y-137181561D01*
X108072693Y-137467368D01*
X107978620Y-137777486D01*
X107946855Y-138099999D01*
X106872791Y-138099999D01*
X104600000Y-135827208D01*
X104600000Y-132000000D01*
X112146854Y-132000000D01*
X112146854Y-134200000D01*
X112178619Y-134522513D01*
X112272692Y-134832631D01*
X112425459Y-135118438D01*
X112631049Y-135368950D01*
X112881561Y-135574540D01*
X113167368Y-135727307D01*
X113477486Y-135821380D01*
X113799999Y-135853145D01*
X113800001Y-135853145D01*
X114122514Y-135821380D01*
X114432632Y-135727307D01*
X114718439Y-135574540D01*
X114968951Y-135368950D01*
X115174541Y-135118438D01*
X115327308Y-134832631D01*
X115421381Y-134522513D01*
X115453146Y-134200000D01*
X115453146Y-132000000D01*
X115421381Y-131677487D01*
X115327308Y-131367369D01*
X115174541Y-131081562D01*
X114968951Y-130831050D01*
X114718439Y-130625460D01*
X114664416Y-130596584D01*
X178750000Y-130596584D01*
X178750000Y-130803416D01*
X178790350Y-131006274D01*
X178869502Y-131197362D01*
X178984411Y-131369336D01*
X179000001Y-131384926D01*
X179000000Y-132915075D01*
X178984411Y-132930664D01*
X178869502Y-133102638D01*
X178790350Y-133293726D01*
X178750000Y-133496584D01*
X178750000Y-133703416D01*
X178790350Y-133906274D01*
X178869502Y-134097362D01*
X178984411Y-134269336D01*
X179130664Y-134415589D01*
X179302638Y-134530498D01*
X179493726Y-134609650D01*
X179696584Y-134650000D01*
X179903416Y-134650000D01*
X180106274Y-134609650D01*
X180297362Y-134530498D01*
X180469336Y-134415589D01*
X180615589Y-134269336D01*
X180730498Y-134097362D01*
X180809650Y-133906274D01*
X180850000Y-133703416D01*
X180850000Y-133496584D01*
X180809650Y-133293726D01*
X180730498Y-133102638D01*
X180615589Y-132930664D01*
X180600000Y-132915075D01*
X180600000Y-131384925D01*
X180615589Y-131369336D01*
X180730498Y-131197362D01*
X180809650Y-131006274D01*
X180850000Y-130803416D01*
X180850000Y-130596584D01*
X180809650Y-130393726D01*
X180730498Y-130202638D01*
X180615589Y-130030664D01*
X180469336Y-129884411D01*
X180297362Y-129769502D01*
X180106274Y-129690350D01*
X179903416Y-129650000D01*
X179696584Y-129650000D01*
X179493726Y-129690350D01*
X179302638Y-129769502D01*
X179130664Y-129884411D01*
X178984411Y-130030664D01*
X178869502Y-130202638D01*
X178790350Y-130393726D01*
X178750000Y-130596584D01*
X114664416Y-130596584D01*
X114432632Y-130472693D01*
X114122514Y-130378620D01*
X113800001Y-130346855D01*
X113799999Y-130346855D01*
X113477486Y-130378620D01*
X113167368Y-130472693D01*
X112881561Y-130625460D01*
X112631049Y-130831050D01*
X112425459Y-131081562D01*
X112272692Y-131367369D01*
X112178619Y-131677487D01*
X112146854Y-132000000D01*
X104600000Y-132000000D01*
X104600000Y-123496584D01*
X134950000Y-123496584D01*
X134950000Y-123703416D01*
X134990350Y-123906274D01*
X135069502Y-124097362D01*
X135184411Y-124269336D01*
X135330664Y-124415589D01*
X135502638Y-124530498D01*
X135693726Y-124609650D01*
X135896584Y-124650000D01*
X135916460Y-124650000D01*
X135931578Y-124668422D01*
X136021865Y-124742518D01*
X136053393Y-124768393D01*
X136192372Y-124842679D01*
X136343173Y-124888424D01*
X136460707Y-124900000D01*
X136460709Y-124900000D01*
X136500000Y-124903870D01*
X136539291Y-124900000D01*
X139615075Y-124900000D01*
X139630664Y-124915589D01*
X139802638Y-125030498D01*
X139993726Y-125109650D01*
X140196584Y-125150000D01*
X140403416Y-125150000D01*
X140606274Y-125109650D01*
X140797362Y-125030498D01*
X140969336Y-124915589D01*
X141115589Y-124769336D01*
X141230498Y-124597362D01*
X141309650Y-124406274D01*
X141350000Y-124203416D01*
X141350000Y-123996584D01*
X141309650Y-123793726D01*
X141230498Y-123602638D01*
X141115589Y-123430664D01*
X140969336Y-123284411D01*
X140797362Y-123169502D01*
X140606274Y-123090350D01*
X140403416Y-123050000D01*
X140196584Y-123050000D01*
X139993726Y-123090350D01*
X139802638Y-123169502D01*
X139630664Y-123284411D01*
X139615075Y-123300000D01*
X137010898Y-123300000D01*
X137009650Y-123293726D01*
X136930498Y-123102638D01*
X136815589Y-122930664D01*
X136669336Y-122784411D01*
X136497362Y-122669502D01*
X136306274Y-122590350D01*
X136103416Y-122550000D01*
X135896584Y-122550000D01*
X135693726Y-122590350D01*
X135502638Y-122669502D01*
X135330664Y-122784411D01*
X135184411Y-122930664D01*
X135069502Y-123102638D01*
X134990350Y-123293726D01*
X134950000Y-123496584D01*
X104600000Y-123496584D01*
X104600000Y-121496584D01*
X127650000Y-121496584D01*
X127650000Y-121703416D01*
X127690350Y-121906274D01*
X127769502Y-122097362D01*
X127884411Y-122269336D01*
X128030664Y-122415589D01*
X128202638Y-122530498D01*
X128393726Y-122609650D01*
X128596584Y-122650000D01*
X128803416Y-122650000D01*
X129006274Y-122609650D01*
X129197362Y-122530498D01*
X129277598Y-122476886D01*
X159650000Y-122476886D01*
X159650000Y-122723114D01*
X159698037Y-122964611D01*
X159792265Y-123192097D01*
X159850001Y-123278505D01*
X159850000Y-127721496D01*
X159792265Y-127807903D01*
X159698037Y-128035389D01*
X159650000Y-128276886D01*
X159650000Y-128523114D01*
X159698037Y-128764611D01*
X159792265Y-128992097D01*
X159929062Y-129196828D01*
X160103172Y-129370938D01*
X160307903Y-129507735D01*
X160535389Y-129601963D01*
X160776886Y-129650000D01*
X161023114Y-129650000D01*
X161264611Y-129601963D01*
X161492097Y-129507735D01*
X161696828Y-129370938D01*
X161870938Y-129196828D01*
X162007735Y-128992097D01*
X162101963Y-128764611D01*
X162150000Y-128523114D01*
X162150000Y-128276886D01*
X162101963Y-128035389D01*
X162007735Y-127807903D01*
X161950000Y-127721497D01*
X161950000Y-127496584D01*
X167650000Y-127496584D01*
X167650000Y-127703416D01*
X167690350Y-127906274D01*
X167769502Y-128097362D01*
X167884411Y-128269336D01*
X168030664Y-128415589D01*
X168202638Y-128530498D01*
X168393726Y-128609650D01*
X168596584Y-128650000D01*
X168803416Y-128650000D01*
X169006274Y-128609650D01*
X169197362Y-128530498D01*
X169369336Y-128415589D01*
X169515589Y-128269336D01*
X169630498Y-128097362D01*
X169709650Y-127906274D01*
X169750000Y-127703416D01*
X169750000Y-127681370D01*
X171181371Y-126250000D01*
X171203416Y-126250000D01*
X171406274Y-126209650D01*
X171597362Y-126130498D01*
X171769336Y-126015589D01*
X171915589Y-125869336D01*
X172030498Y-125697362D01*
X172109650Y-125506274D01*
X172150000Y-125303416D01*
X172150000Y-125096584D01*
X172109650Y-124893726D01*
X172030498Y-124702638D01*
X171915589Y-124530664D01*
X171769336Y-124384411D01*
X171597362Y-124269502D01*
X171406274Y-124190350D01*
X171203416Y-124150000D01*
X170996584Y-124150000D01*
X170793726Y-124190350D01*
X170602638Y-124269502D01*
X170430664Y-124384411D01*
X170284411Y-124530664D01*
X170169502Y-124702638D01*
X170090350Y-124893726D01*
X170050000Y-125096584D01*
X170050000Y-125118629D01*
X168618630Y-126550000D01*
X168596584Y-126550000D01*
X168393726Y-126590350D01*
X168202638Y-126669502D01*
X168030664Y-126784411D01*
X167884411Y-126930664D01*
X167769502Y-127102638D01*
X167690350Y-127293726D01*
X167650000Y-127496584D01*
X161950000Y-127496584D01*
X161950000Y-123278503D01*
X162007735Y-123192097D01*
X162101963Y-122964611D01*
X162150000Y-122723114D01*
X162150000Y-122476886D01*
X162101963Y-122235389D01*
X162007735Y-122007903D01*
X161870938Y-121803172D01*
X161696828Y-121629062D01*
X161492097Y-121492265D01*
X161264611Y-121398037D01*
X161023114Y-121350000D01*
X160776886Y-121350000D01*
X160535389Y-121398037D01*
X160307903Y-121492265D01*
X160103172Y-121629062D01*
X159929062Y-121803172D01*
X159792265Y-122007903D01*
X159698037Y-122235389D01*
X159650000Y-122476886D01*
X129277598Y-122476886D01*
X129369336Y-122415589D01*
X129515589Y-122269336D01*
X129630498Y-122097362D01*
X129709650Y-121906274D01*
X129750000Y-121703416D01*
X129750000Y-121681370D01*
X130181371Y-121250000D01*
X130203416Y-121250000D01*
X130406274Y-121209650D01*
X130597362Y-121130498D01*
X130769336Y-121015589D01*
X130915589Y-120869336D01*
X131030498Y-120697362D01*
X131109650Y-120506274D01*
X131150000Y-120303416D01*
X131150000Y-120096584D01*
X131109650Y-119893726D01*
X131030498Y-119702638D01*
X130915589Y-119530664D01*
X130769336Y-119384411D01*
X130597362Y-119269502D01*
X130406274Y-119190350D01*
X130203416Y-119150000D01*
X129996584Y-119150000D01*
X129793726Y-119190350D01*
X129602638Y-119269502D01*
X129430664Y-119384411D01*
X129284411Y-119530664D01*
X129169502Y-119702638D01*
X129090350Y-119893726D01*
X129050000Y-120096584D01*
X129050000Y-120118629D01*
X128618630Y-120550000D01*
X128596584Y-120550000D01*
X128393726Y-120590350D01*
X128202638Y-120669502D01*
X128030664Y-120784411D01*
X127884411Y-120930664D01*
X127769502Y-121102638D01*
X127690350Y-121293726D01*
X127650000Y-121496584D01*
X104600000Y-121496584D01*
X104600000Y-119396584D01*
X112750000Y-119396584D01*
X112750000Y-119603416D01*
X112790350Y-119806274D01*
X112869502Y-119997362D01*
X112984411Y-120169336D01*
X113130664Y-120315589D01*
X113302638Y-120430498D01*
X113493726Y-120509650D01*
X113553609Y-120521561D01*
X113590350Y-120706274D01*
X113669502Y-120897362D01*
X113784411Y-121069336D01*
X113930664Y-121215589D01*
X114102638Y-121330498D01*
X114293726Y-121409650D01*
X114496584Y-121450000D01*
X114703416Y-121450000D01*
X114906274Y-121409650D01*
X115097362Y-121330498D01*
X115269336Y-121215589D01*
X115284925Y-121200000D01*
X119715075Y-121200000D01*
X119730664Y-121215589D01*
X119902638Y-121330498D01*
X120093726Y-121409650D01*
X120296584Y-121450000D01*
X120503416Y-121450000D01*
X120706274Y-121409650D01*
X120897362Y-121330498D01*
X121069336Y-121215589D01*
X121215589Y-121069336D01*
X121330498Y-120897362D01*
X121409650Y-120706274D01*
X121450000Y-120503416D01*
X121450000Y-120296584D01*
X121409650Y-120093726D01*
X121330498Y-119902638D01*
X121215589Y-119730664D01*
X121069336Y-119584411D01*
X120897362Y-119469502D01*
X120706274Y-119390350D01*
X120542271Y-119357729D01*
X120509650Y-119193726D01*
X120430498Y-119002638D01*
X120315589Y-118830664D01*
X120169336Y-118684411D01*
X119997362Y-118569502D01*
X119806274Y-118490350D01*
X119603416Y-118450000D01*
X119396584Y-118450000D01*
X119193726Y-118490350D01*
X119002638Y-118569502D01*
X118830664Y-118684411D01*
X118815075Y-118700000D01*
X114484925Y-118700000D01*
X114469336Y-118684411D01*
X114297362Y-118569502D01*
X114106274Y-118490350D01*
X113903416Y-118450000D01*
X113696584Y-118450000D01*
X113493726Y-118490350D01*
X113302638Y-118569502D01*
X113130664Y-118684411D01*
X112984411Y-118830664D01*
X112869502Y-119002638D01*
X112790350Y-119193726D01*
X112750000Y-119396584D01*
X104600000Y-119396584D01*
X104600000Y-114996584D01*
X111950000Y-114996584D01*
X111950000Y-115203416D01*
X111990350Y-115406274D01*
X112069502Y-115597362D01*
X112184411Y-115769336D01*
X112330664Y-115915589D01*
X112502638Y-116030498D01*
X112693726Y-116109650D01*
X112896584Y-116150000D01*
X113103416Y-116150000D01*
X113306274Y-116109650D01*
X113497362Y-116030498D01*
X113669336Y-115915589D01*
X113684925Y-115900000D01*
X117015075Y-115900000D01*
X117030664Y-115915589D01*
X117202638Y-116030498D01*
X117393726Y-116109650D01*
X117596584Y-116150000D01*
X117803416Y-116150000D01*
X118006274Y-116109650D01*
X118197362Y-116030498D01*
X118369336Y-115915589D01*
X118515589Y-115769336D01*
X118630498Y-115597362D01*
X118709650Y-115406274D01*
X118750000Y-115203416D01*
X118750000Y-114996584D01*
X118709650Y-114793726D01*
X118630498Y-114602638D01*
X118515589Y-114430664D01*
X118369336Y-114284411D01*
X118197362Y-114169502D01*
X118006274Y-114090350D01*
X117803416Y-114050000D01*
X117596584Y-114050000D01*
X117393726Y-114090350D01*
X117202638Y-114169502D01*
X117030664Y-114284411D01*
X117015075Y-114300000D01*
X113684925Y-114300000D01*
X113669336Y-114284411D01*
X113497362Y-114169502D01*
X113306274Y-114090350D01*
X113103416Y-114050000D01*
X112896584Y-114050000D01*
X112693726Y-114090350D01*
X112502638Y-114169502D01*
X112330664Y-114284411D01*
X112184411Y-114430664D01*
X112069502Y-114602638D01*
X111990350Y-114793726D01*
X111950000Y-114996584D01*
X104600000Y-114996584D01*
X104600000Y-108700000D01*
X106556994Y-108700000D01*
X106602638Y-108730498D01*
X106793726Y-108809650D01*
X106996584Y-108850000D01*
X107203416Y-108850000D01*
X107406274Y-108809650D01*
X107597362Y-108730498D01*
X107648118Y-108696584D01*
X122250000Y-108696584D01*
X122250000Y-108903416D01*
X122290350Y-109106274D01*
X122369502Y-109297362D01*
X122484411Y-109469336D01*
X122630664Y-109615589D01*
X122802638Y-109730498D01*
X122993726Y-109809650D01*
X123196584Y-109850000D01*
X123403416Y-109850000D01*
X123606274Y-109809650D01*
X123797362Y-109730498D01*
X123969336Y-109615589D01*
X123984925Y-109600000D01*
X124415075Y-109600000D01*
X124430664Y-109615589D01*
X124602638Y-109730498D01*
X124793726Y-109809650D01*
X124996584Y-109850000D01*
X125203416Y-109850000D01*
X125406274Y-109809650D01*
X125597362Y-109730498D01*
X125769336Y-109615589D01*
X125915589Y-109469336D01*
X126030498Y-109297362D01*
X126109650Y-109106274D01*
X126150000Y-108903416D01*
X126150000Y-108696584D01*
X126109650Y-108493726D01*
X126030498Y-108302638D01*
X125915589Y-108130664D01*
X125769336Y-107984411D01*
X125597362Y-107869502D01*
X125406274Y-107790350D01*
X125203416Y-107750000D01*
X124996584Y-107750000D01*
X124793726Y-107790350D01*
X124602638Y-107869502D01*
X124430664Y-107984411D01*
X124415075Y-108000000D01*
X123984925Y-108000000D01*
X123969336Y-107984411D01*
X123797362Y-107869502D01*
X123606274Y-107790350D01*
X123403416Y-107750000D01*
X123196584Y-107750000D01*
X122993726Y-107790350D01*
X122802638Y-107869502D01*
X122630664Y-107984411D01*
X122484411Y-108130664D01*
X122369502Y-108302638D01*
X122290350Y-108493726D01*
X122250000Y-108696584D01*
X107648118Y-108696584D01*
X107769336Y-108615589D01*
X107915589Y-108469336D01*
X108030498Y-108297362D01*
X108109650Y-108106274D01*
X108150000Y-107903416D01*
X108150000Y-107696584D01*
X108109650Y-107493726D01*
X108030498Y-107302638D01*
X107915589Y-107130664D01*
X107769336Y-106984411D01*
X107597362Y-106869502D01*
X107406274Y-106790350D01*
X107203416Y-106750000D01*
X106996584Y-106750000D01*
X106793726Y-106790350D01*
X106602638Y-106869502D01*
X106556994Y-106900000D01*
X104600000Y-106900000D01*
X104600000Y-99372792D01*
X104672792Y-99300000D01*
X110055794Y-99300000D01*
X110100000Y-99304354D01*
X110144206Y-99300000D01*
X110144207Y-99300000D01*
X110276431Y-99286977D01*
X110446081Y-99235514D01*
X110602432Y-99151943D01*
X110739475Y-99039475D01*
X110767658Y-99005134D01*
X111205131Y-98567660D01*
X111239475Y-98539475D01*
X111351943Y-98402432D01*
X111435514Y-98246081D01*
X111486977Y-98076431D01*
X111500000Y-97944207D01*
X111500000Y-97944206D01*
X111504354Y-97900000D01*
X111500000Y-97855793D01*
X111500000Y-96744207D01*
X111504354Y-96700000D01*
X111486977Y-96523569D01*
X111435514Y-96353918D01*
X111351943Y-96197568D01*
X111318508Y-96156827D01*
X111239475Y-96060525D01*
X111205135Y-96032343D01*
X110500000Y-95327208D01*
X110500000Y-93844203D01*
X110504354Y-93799999D01*
X110494744Y-93702431D01*
X110486977Y-93623569D01*
X110435514Y-93453919D01*
X110351943Y-93297568D01*
X110239475Y-93160525D01*
X110205135Y-93132343D01*
X109667657Y-92594865D01*
X109639475Y-92560525D01*
X109502432Y-92448057D01*
X109346081Y-92364486D01*
X109176431Y-92313023D01*
X109044207Y-92300000D01*
X109044206Y-92300000D01*
X109000000Y-92295646D01*
X108955794Y-92300000D01*
X107844196Y-92300000D01*
X107799999Y-92295647D01*
X107755802Y-92300000D01*
X107755793Y-92300000D01*
X107623569Y-92313023D01*
X107453919Y-92364486D01*
X107297568Y-92448057D01*
X107160525Y-92560525D01*
X107132339Y-92594870D01*
X106794866Y-92932342D01*
X106760525Y-92960525D01*
X106648057Y-93097569D01*
X106564486Y-93253920D01*
X106527323Y-93376430D01*
X106513023Y-93423570D01*
X106495646Y-93600000D01*
X106500000Y-93644207D01*
X106500001Y-94400000D01*
X103272792Y-94400000D01*
X103200000Y-94327208D01*
X103200000Y-63672792D01*
X113472792Y-53400000D01*
X124956994Y-53400000D01*
X125002638Y-53430498D01*
X125193726Y-53509650D01*
X125396584Y-53550000D01*
X125603416Y-53550000D01*
X125806274Y-53509650D01*
X125997362Y-53430498D01*
X126169336Y-53315589D01*
X126315589Y-53169336D01*
X126430498Y-52997362D01*
X126509650Y-52806274D01*
X126550000Y-52603416D01*
X126550000Y-52396584D01*
X126509650Y-52193726D01*
X126491538Y-52150000D01*
X129008462Y-52150000D01*
X128990350Y-52193726D01*
X128990350Y-52193726D01*
G37*
X128990350Y-52193726D02*
X128950000Y-52396584D01*
X128950000Y-52603416D01*
X128990350Y-52806274D01*
X129069502Y-52997362D01*
X129184411Y-53169336D01*
X129330664Y-53315589D01*
X129502638Y-53430498D01*
X129693726Y-53509650D01*
X129896584Y-53550000D01*
X130103416Y-53550000D01*
X130306274Y-53509650D01*
X130497362Y-53430498D01*
X130669336Y-53315589D01*
X130684925Y-53300000D01*
X140668630Y-53300000D01*
X140800000Y-53431371D01*
X140800001Y-109868628D01*
X138518630Y-112150000D01*
X138496584Y-112150000D01*
X138293726Y-112190350D01*
X138102638Y-112269502D01*
X137930664Y-112384411D01*
X137784411Y-112530664D01*
X137669502Y-112702638D01*
X137590350Y-112893726D01*
X137550000Y-113096584D01*
X137550000Y-113303416D01*
X137590350Y-113506274D01*
X137669502Y-113697362D01*
X137784411Y-113869336D01*
X137930664Y-114015589D01*
X138102638Y-114130498D01*
X138293726Y-114209650D01*
X138496584Y-114250000D01*
X138703416Y-114250000D01*
X138906274Y-114209650D01*
X139097362Y-114130498D01*
X139269336Y-114015589D01*
X139415589Y-113869336D01*
X139530498Y-113697362D01*
X139609650Y-113506274D01*
X139650000Y-113303416D01*
X139650000Y-113281370D01*
X141850000Y-111081371D01*
X141850000Y-114000000D01*
X141850722Y-114014703D01*
X141869937Y-114209793D01*
X141875674Y-114238632D01*
X141932579Y-114426225D01*
X141943832Y-114453392D01*
X142036242Y-114626279D01*
X142052578Y-114650729D01*
X142176941Y-114802266D01*
X142197734Y-114823059D01*
X142349271Y-114947422D01*
X142373721Y-114963758D01*
X142546608Y-115056168D01*
X142573775Y-115067421D01*
X142761368Y-115124326D01*
X142790207Y-115130063D01*
X142985297Y-115149278D01*
X143000000Y-115150000D01*
X187992627Y-115150000D01*
X188165688Y-115167045D01*
X188325004Y-115215373D01*
X188471828Y-115293852D01*
X188600528Y-115399472D01*
X188706148Y-115528172D01*
X188784627Y-115674996D01*
X188832955Y-115834312D01*
X188850000Y-116007373D01*
X188850000Y-146070102D01*
X188320102Y-146600000D01*
X164461918Y-146600000D01*
X164530498Y-146497362D01*
X164609650Y-146306274D01*
X164650000Y-146103416D01*
X164650000Y-145896584D01*
X164609650Y-145693726D01*
X164530498Y-145502638D01*
X164415589Y-145330664D01*
X164269336Y-145184411D01*
X164097362Y-145069502D01*
X163906274Y-144990350D01*
X163703416Y-144950000D01*
X163496584Y-144950000D01*
X163293726Y-144990350D01*
X163102638Y-145069502D01*
X162930664Y-145184411D01*
X162784411Y-145330664D01*
X162669502Y-145502638D01*
X162590350Y-145693726D01*
X162550000Y-145896584D01*
X162550000Y-146103416D01*
X162590350Y-146306274D01*
X162669502Y-146497362D01*
X162738082Y-146600000D01*
X136860000Y-146600000D01*
X136860000Y-145340554D01*
X137300867Y-145340554D01*
X137374589Y-145530936D01*
X137587732Y-145633138D01*
X137816718Y-145691795D01*
X138052747Y-145704651D01*
X138286749Y-145671214D01*
X138509732Y-145592767D01*
X138625411Y-145530936D01*
X138699133Y-145340554D01*
X138000000Y-144641421D01*
X137300867Y-145340554D01*
X136860000Y-145340554D01*
X136860000Y-144875474D01*
X136907233Y-145009732D01*
X136969064Y-145125411D01*
X137159446Y-145199133D01*
X137858579Y-144500000D01*
X138141421Y-144500000D01*
X138840554Y-145199133D01*
X139030936Y-145125411D01*
X139133138Y-144912268D01*
X139167722Y-144777258D01*
X139193801Y-144908365D01*
X139299336Y-145163149D01*
X139452549Y-145392448D01*
X139647552Y-145587451D01*
X139876851Y-145740664D01*
X140131635Y-145846199D01*
X140402112Y-145900000D01*
X140677888Y-145900000D01*
X140948365Y-145846199D01*
X141203149Y-145740664D01*
X141432448Y-145587451D01*
X141627451Y-145392448D01*
X141780664Y-145163149D01*
X141886199Y-144908365D01*
X141940000Y-144637888D01*
X141940000Y-144362112D01*
X141886199Y-144091635D01*
X141780664Y-143836851D01*
X141627451Y-143607552D01*
X141432448Y-143412549D01*
X141203149Y-143259336D01*
X140948365Y-143153801D01*
X140677888Y-143100000D01*
X140402112Y-143100000D01*
X140131635Y-143153801D01*
X139876851Y-143259336D01*
X139647552Y-143412549D01*
X139452549Y-143607552D01*
X139299336Y-143836851D01*
X139193801Y-144091635D01*
X139170189Y-144210339D01*
X139092767Y-143990268D01*
X139030936Y-143874589D01*
X138840554Y-143800867D01*
X138141421Y-144500000D01*
X137858579Y-144500000D01*
X137159446Y-143800867D01*
X136969064Y-143874589D01*
X136866862Y-144087732D01*
X136835305Y-144210923D01*
X136819682Y-144159420D01*
X136806199Y-144091635D01*
X136779751Y-144027785D01*
X136759690Y-143961651D01*
X136727111Y-143900701D01*
X136700664Y-143836851D01*
X136662269Y-143779388D01*
X136629690Y-143718438D01*
X136585848Y-143665017D01*
X136582126Y-143659446D01*
X137300867Y-143659446D01*
X138000000Y-144358579D01*
X138699133Y-143659446D01*
X138625411Y-143469064D01*
X138412268Y-143366862D01*
X138183282Y-143308205D01*
X137947253Y-143295349D01*
X137713251Y-143328786D01*
X137490268Y-143407233D01*
X137374589Y-143469064D01*
X137300867Y-143659446D01*
X136582126Y-143659446D01*
X136547451Y-143607552D01*
X136498576Y-143558677D01*
X136454738Y-143505261D01*
X136401324Y-143461425D01*
X136352448Y-143412549D01*
X136294979Y-143374150D01*
X136241561Y-143330310D01*
X136180616Y-143297734D01*
X136123149Y-143259336D01*
X136059295Y-143232887D01*
X135998348Y-143200310D01*
X135932218Y-143180250D01*
X135868365Y-143153801D01*
X135800577Y-143140317D01*
X135734447Y-143120257D01*
X135665673Y-143113483D01*
X135597888Y-143100000D01*
X135528777Y-143100000D01*
X135460000Y-143093226D01*
X135391223Y-143100000D01*
X135322112Y-143100000D01*
X135254327Y-143113483D01*
X135185552Y-143120257D01*
X135119420Y-143140318D01*
X135051635Y-143153801D01*
X134987785Y-143180249D01*
X134921651Y-143200310D01*
X134860701Y-143232889D01*
X134796851Y-143259336D01*
X134739388Y-143297731D01*
X134678438Y-143330310D01*
X134625017Y-143374152D01*
X134567552Y-143412549D01*
X134518677Y-143461424D01*
X134465261Y-143505262D01*
X134421425Y-143558676D01*
X134372549Y-143607552D01*
X134334150Y-143665021D01*
X134290310Y-143718439D01*
X134257734Y-143779384D01*
X134219336Y-143836851D01*
X134192887Y-143900705D01*
X134160310Y-143961652D01*
X134140250Y-144027782D01*
X134113801Y-144091635D01*
X134100317Y-144159423D01*
X134080257Y-144225553D01*
X134073483Y-144294326D01*
X134060000Y-144362112D01*
X134060000Y-144431224D01*
X134060001Y-146600000D01*
X122479239Y-146600000D01*
X121442957Y-145563718D01*
X121587732Y-145633138D01*
X121816718Y-145691795D01*
X122052747Y-145704651D01*
X122286749Y-145671214D01*
X122509732Y-145592767D01*
X122625411Y-145530936D01*
X122699133Y-145340554D01*
X122000000Y-144641421D01*
X121985858Y-144655564D01*
X121844437Y-144514143D01*
X121858579Y-144500000D01*
X121844437Y-144485858D01*
X121985858Y-144344437D01*
X122000000Y-144358579D01*
X122014143Y-144344437D01*
X122155564Y-144485858D01*
X122141421Y-144500000D01*
X122840554Y-145199133D01*
X123030936Y-145125411D01*
X123133138Y-144912268D01*
X123167722Y-144777258D01*
X123193801Y-144908365D01*
X123299336Y-145163149D01*
X123452549Y-145392448D01*
X123647552Y-145587451D01*
X123876851Y-145740664D01*
X124131635Y-145846199D01*
X124402112Y-145900000D01*
X124677888Y-145900000D01*
X124948365Y-145846199D01*
X125203149Y-145740664D01*
X125432448Y-145587451D01*
X125627451Y-145392448D01*
X125780664Y-145163149D01*
X125886199Y-144908365D01*
X125940000Y-144637888D01*
X125940000Y-144362112D01*
X125886199Y-144091635D01*
X125780664Y-143836851D01*
X125690000Y-143701163D01*
X125690000Y-143495822D01*
X125695563Y-143439340D01*
X125690000Y-143382858D01*
X125690000Y-143382848D01*
X125673360Y-143213901D01*
X125607602Y-142997125D01*
X125500816Y-142797343D01*
X125357107Y-142622233D01*
X125313219Y-142586215D01*
X124853785Y-142126781D01*
X124817767Y-142082893D01*
X124642657Y-141939184D01*
X124442875Y-141832398D01*
X124226099Y-141766640D01*
X124057152Y-141750000D01*
X124057142Y-141750000D01*
X124000660Y-141744437D01*
X123944178Y-141750000D01*
X120122792Y-141750000D01*
X124772792Y-137100000D01*
X125032234Y-137100000D01*
X125103172Y-137170938D01*
X125307903Y-137307735D01*
X125535389Y-137401963D01*
X125776886Y-137450000D01*
X126023114Y-137450000D01*
X126264611Y-137401963D01*
X126492097Y-137307735D01*
X126696828Y-137170938D01*
X126870938Y-136996828D01*
X127007735Y-136792097D01*
X127101963Y-136564611D01*
X127150000Y-136323114D01*
X127150000Y-136076886D01*
X127101963Y-135835389D01*
X127007735Y-135607903D01*
X126870938Y-135403172D01*
X126696828Y-135229062D01*
X126492097Y-135092265D01*
X126264611Y-134998037D01*
X126023114Y-134950000D01*
X125776886Y-134950000D01*
X125535389Y-134998037D01*
X125307903Y-135092265D01*
X125103172Y-135229062D01*
X125032234Y-135300000D01*
X124444207Y-135300000D01*
X124400000Y-135295646D01*
X124223569Y-135313023D01*
X124053918Y-135364486D01*
X123981542Y-135403172D01*
X123897568Y-135448057D01*
X123760525Y-135560525D01*
X123732343Y-135594865D01*
X118527208Y-140800000D01*
X109572792Y-140800000D01*
X106872791Y-138099999D01*
X107946855Y-138099999D01*
X107946855Y-138100001D01*
X107978620Y-138422514D01*
X108072693Y-138732632D01*
X108225460Y-139018439D01*
X108431050Y-139268951D01*
X108681562Y-139474541D01*
X108967369Y-139627308D01*
X109277487Y-139721381D01*
X109600000Y-139753146D01*
X111800000Y-139753146D01*
X112122513Y-139721381D01*
X112432631Y-139627308D01*
X112718438Y-139474541D01*
X112968950Y-139268951D01*
X113174540Y-139018439D01*
X113327307Y-138732632D01*
X113421380Y-138422514D01*
X113453145Y-138100001D01*
X113453145Y-138099999D01*
X113421380Y-137777486D01*
X113327307Y-137467368D01*
X113174540Y-137181561D01*
X112968950Y-136931049D01*
X112718438Y-136725459D01*
X112432631Y-136572692D01*
X112122513Y-136478619D01*
X111800000Y-136446854D01*
X109600000Y-136446854D01*
X109277487Y-136478619D01*
X108967369Y-136572692D01*
X108681562Y-136725459D01*
X108431050Y-136931049D01*
X108225460Y-137181561D01*
X108072693Y-137467368D01*
X107978620Y-137777486D01*
X107946855Y-138099999D01*
X106872791Y-138099999D01*
X104600000Y-135827208D01*
X104600000Y-132000000D01*
X112146854Y-132000000D01*
X112146854Y-134200000D01*
X112178619Y-134522513D01*
X112272692Y-134832631D01*
X112425459Y-135118438D01*
X112631049Y-135368950D01*
X112881561Y-135574540D01*
X113167368Y-135727307D01*
X113477486Y-135821380D01*
X113799999Y-135853145D01*
X113800001Y-135853145D01*
X114122514Y-135821380D01*
X114432632Y-135727307D01*
X114718439Y-135574540D01*
X114968951Y-135368950D01*
X115174541Y-135118438D01*
X115327308Y-134832631D01*
X115421381Y-134522513D01*
X115453146Y-134200000D01*
X115453146Y-132000000D01*
X115421381Y-131677487D01*
X115327308Y-131367369D01*
X115174541Y-131081562D01*
X114968951Y-130831050D01*
X114718439Y-130625460D01*
X114664416Y-130596584D01*
X178750000Y-130596584D01*
X178750000Y-130803416D01*
X178790350Y-131006274D01*
X178869502Y-131197362D01*
X178984411Y-131369336D01*
X179000001Y-131384926D01*
X179000000Y-132915075D01*
X178984411Y-132930664D01*
X178869502Y-133102638D01*
X178790350Y-133293726D01*
X178750000Y-133496584D01*
X178750000Y-133703416D01*
X178790350Y-133906274D01*
X178869502Y-134097362D01*
X178984411Y-134269336D01*
X179130664Y-134415589D01*
X179302638Y-134530498D01*
X179493726Y-134609650D01*
X179696584Y-134650000D01*
X179903416Y-134650000D01*
X180106274Y-134609650D01*
X180297362Y-134530498D01*
X180469336Y-134415589D01*
X180615589Y-134269336D01*
X180730498Y-134097362D01*
X180809650Y-133906274D01*
X180850000Y-133703416D01*
X180850000Y-133496584D01*
X180809650Y-133293726D01*
X180730498Y-133102638D01*
X180615589Y-132930664D01*
X180600000Y-132915075D01*
X180600000Y-131384925D01*
X180615589Y-131369336D01*
X180730498Y-131197362D01*
X180809650Y-131006274D01*
X180850000Y-130803416D01*
X180850000Y-130596584D01*
X180809650Y-130393726D01*
X180730498Y-130202638D01*
X180615589Y-130030664D01*
X180469336Y-129884411D01*
X180297362Y-129769502D01*
X180106274Y-129690350D01*
X179903416Y-129650000D01*
X179696584Y-129650000D01*
X179493726Y-129690350D01*
X179302638Y-129769502D01*
X179130664Y-129884411D01*
X178984411Y-130030664D01*
X178869502Y-130202638D01*
X178790350Y-130393726D01*
X178750000Y-130596584D01*
X114664416Y-130596584D01*
X114432632Y-130472693D01*
X114122514Y-130378620D01*
X113800001Y-130346855D01*
X113799999Y-130346855D01*
X113477486Y-130378620D01*
X113167368Y-130472693D01*
X112881561Y-130625460D01*
X112631049Y-130831050D01*
X112425459Y-131081562D01*
X112272692Y-131367369D01*
X112178619Y-131677487D01*
X112146854Y-132000000D01*
X104600000Y-132000000D01*
X104600000Y-123496584D01*
X134950000Y-123496584D01*
X134950000Y-123703416D01*
X134990350Y-123906274D01*
X135069502Y-124097362D01*
X135184411Y-124269336D01*
X135330664Y-124415589D01*
X135502638Y-124530498D01*
X135693726Y-124609650D01*
X135896584Y-124650000D01*
X135916460Y-124650000D01*
X135931578Y-124668422D01*
X136021865Y-124742518D01*
X136053393Y-124768393D01*
X136192372Y-124842679D01*
X136343173Y-124888424D01*
X136460707Y-124900000D01*
X136460709Y-124900000D01*
X136500000Y-124903870D01*
X136539291Y-124900000D01*
X139615075Y-124900000D01*
X139630664Y-124915589D01*
X139802638Y-125030498D01*
X139993726Y-125109650D01*
X140196584Y-125150000D01*
X140403416Y-125150000D01*
X140606274Y-125109650D01*
X140797362Y-125030498D01*
X140969336Y-124915589D01*
X141115589Y-124769336D01*
X141230498Y-124597362D01*
X141309650Y-124406274D01*
X141350000Y-124203416D01*
X141350000Y-123996584D01*
X141309650Y-123793726D01*
X141230498Y-123602638D01*
X141115589Y-123430664D01*
X140969336Y-123284411D01*
X140797362Y-123169502D01*
X140606274Y-123090350D01*
X140403416Y-123050000D01*
X140196584Y-123050000D01*
X139993726Y-123090350D01*
X139802638Y-123169502D01*
X139630664Y-123284411D01*
X139615075Y-123300000D01*
X137010898Y-123300000D01*
X137009650Y-123293726D01*
X136930498Y-123102638D01*
X136815589Y-122930664D01*
X136669336Y-122784411D01*
X136497362Y-122669502D01*
X136306274Y-122590350D01*
X136103416Y-122550000D01*
X135896584Y-122550000D01*
X135693726Y-122590350D01*
X135502638Y-122669502D01*
X135330664Y-122784411D01*
X135184411Y-122930664D01*
X135069502Y-123102638D01*
X134990350Y-123293726D01*
X134950000Y-123496584D01*
X104600000Y-123496584D01*
X104600000Y-121496584D01*
X127650000Y-121496584D01*
X127650000Y-121703416D01*
X127690350Y-121906274D01*
X127769502Y-122097362D01*
X127884411Y-122269336D01*
X128030664Y-122415589D01*
X128202638Y-122530498D01*
X128393726Y-122609650D01*
X128596584Y-122650000D01*
X128803416Y-122650000D01*
X129006274Y-122609650D01*
X129197362Y-122530498D01*
X129277598Y-122476886D01*
X159650000Y-122476886D01*
X159650000Y-122723114D01*
X159698037Y-122964611D01*
X159792265Y-123192097D01*
X159850001Y-123278505D01*
X159850000Y-127721496D01*
X159792265Y-127807903D01*
X159698037Y-128035389D01*
X159650000Y-128276886D01*
X159650000Y-128523114D01*
X159698037Y-128764611D01*
X159792265Y-128992097D01*
X159929062Y-129196828D01*
X160103172Y-129370938D01*
X160307903Y-129507735D01*
X160535389Y-129601963D01*
X160776886Y-129650000D01*
X161023114Y-129650000D01*
X161264611Y-129601963D01*
X161492097Y-129507735D01*
X161696828Y-129370938D01*
X161870938Y-129196828D01*
X162007735Y-128992097D01*
X162101963Y-128764611D01*
X162150000Y-128523114D01*
X162150000Y-128276886D01*
X162101963Y-128035389D01*
X162007735Y-127807903D01*
X161950000Y-127721497D01*
X161950000Y-127496584D01*
X167650000Y-127496584D01*
X167650000Y-127703416D01*
X167690350Y-127906274D01*
X167769502Y-128097362D01*
X167884411Y-128269336D01*
X168030664Y-128415589D01*
X168202638Y-128530498D01*
X168393726Y-128609650D01*
X168596584Y-128650000D01*
X168803416Y-128650000D01*
X169006274Y-128609650D01*
X169197362Y-128530498D01*
X169369336Y-128415589D01*
X169515589Y-128269336D01*
X169630498Y-128097362D01*
X169709650Y-127906274D01*
X169750000Y-127703416D01*
X169750000Y-127681370D01*
X171181371Y-126250000D01*
X171203416Y-126250000D01*
X171406274Y-126209650D01*
X171597362Y-126130498D01*
X171769336Y-126015589D01*
X171915589Y-125869336D01*
X172030498Y-125697362D01*
X172109650Y-125506274D01*
X172150000Y-125303416D01*
X172150000Y-125096584D01*
X172109650Y-124893726D01*
X172030498Y-124702638D01*
X171915589Y-124530664D01*
X171769336Y-124384411D01*
X171597362Y-124269502D01*
X171406274Y-124190350D01*
X171203416Y-124150000D01*
X170996584Y-124150000D01*
X170793726Y-124190350D01*
X170602638Y-124269502D01*
X170430664Y-124384411D01*
X170284411Y-124530664D01*
X170169502Y-124702638D01*
X170090350Y-124893726D01*
X170050000Y-125096584D01*
X170050000Y-125118629D01*
X168618630Y-126550000D01*
X168596584Y-126550000D01*
X168393726Y-126590350D01*
X168202638Y-126669502D01*
X168030664Y-126784411D01*
X167884411Y-126930664D01*
X167769502Y-127102638D01*
X167690350Y-127293726D01*
X167650000Y-127496584D01*
X161950000Y-127496584D01*
X161950000Y-123278503D01*
X162007735Y-123192097D01*
X162101963Y-122964611D01*
X162150000Y-122723114D01*
X162150000Y-122476886D01*
X162101963Y-122235389D01*
X162007735Y-122007903D01*
X161870938Y-121803172D01*
X161696828Y-121629062D01*
X161492097Y-121492265D01*
X161264611Y-121398037D01*
X161023114Y-121350000D01*
X160776886Y-121350000D01*
X160535389Y-121398037D01*
X160307903Y-121492265D01*
X160103172Y-121629062D01*
X159929062Y-121803172D01*
X159792265Y-122007903D01*
X159698037Y-122235389D01*
X159650000Y-122476886D01*
X129277598Y-122476886D01*
X129369336Y-122415589D01*
X129515589Y-122269336D01*
X129630498Y-122097362D01*
X129709650Y-121906274D01*
X129750000Y-121703416D01*
X129750000Y-121681370D01*
X130181371Y-121250000D01*
X130203416Y-121250000D01*
X130406274Y-121209650D01*
X130597362Y-121130498D01*
X130769336Y-121015589D01*
X130915589Y-120869336D01*
X131030498Y-120697362D01*
X131109650Y-120506274D01*
X131150000Y-120303416D01*
X131150000Y-120096584D01*
X131109650Y-119893726D01*
X131030498Y-119702638D01*
X130915589Y-119530664D01*
X130769336Y-119384411D01*
X130597362Y-119269502D01*
X130406274Y-119190350D01*
X130203416Y-119150000D01*
X129996584Y-119150000D01*
X129793726Y-119190350D01*
X129602638Y-119269502D01*
X129430664Y-119384411D01*
X129284411Y-119530664D01*
X129169502Y-119702638D01*
X129090350Y-119893726D01*
X129050000Y-120096584D01*
X129050000Y-120118629D01*
X128618630Y-120550000D01*
X128596584Y-120550000D01*
X128393726Y-120590350D01*
X128202638Y-120669502D01*
X128030664Y-120784411D01*
X127884411Y-120930664D01*
X127769502Y-121102638D01*
X127690350Y-121293726D01*
X127650000Y-121496584D01*
X104600000Y-121496584D01*
X104600000Y-119396584D01*
X112750000Y-119396584D01*
X112750000Y-119603416D01*
X112790350Y-119806274D01*
X112869502Y-119997362D01*
X112984411Y-120169336D01*
X113130664Y-120315589D01*
X113302638Y-120430498D01*
X113493726Y-120509650D01*
X113553609Y-120521561D01*
X113590350Y-120706274D01*
X113669502Y-120897362D01*
X113784411Y-121069336D01*
X113930664Y-121215589D01*
X114102638Y-121330498D01*
X114293726Y-121409650D01*
X114496584Y-121450000D01*
X114703416Y-121450000D01*
X114906274Y-121409650D01*
X115097362Y-121330498D01*
X115269336Y-121215589D01*
X115284925Y-121200000D01*
X119715075Y-121200000D01*
X119730664Y-121215589D01*
X119902638Y-121330498D01*
X120093726Y-121409650D01*
X120296584Y-121450000D01*
X120503416Y-121450000D01*
X120706274Y-121409650D01*
X120897362Y-121330498D01*
X121069336Y-121215589D01*
X121215589Y-121069336D01*
X121330498Y-120897362D01*
X121409650Y-120706274D01*
X121450000Y-120503416D01*
X121450000Y-120296584D01*
X121409650Y-120093726D01*
X121330498Y-119902638D01*
X121215589Y-119730664D01*
X121069336Y-119584411D01*
X120897362Y-119469502D01*
X120706274Y-119390350D01*
X120542271Y-119357729D01*
X120509650Y-119193726D01*
X120430498Y-119002638D01*
X120315589Y-118830664D01*
X120169336Y-118684411D01*
X119997362Y-118569502D01*
X119806274Y-118490350D01*
X119603416Y-118450000D01*
X119396584Y-118450000D01*
X119193726Y-118490350D01*
X119002638Y-118569502D01*
X118830664Y-118684411D01*
X118815075Y-118700000D01*
X114484925Y-118700000D01*
X114469336Y-118684411D01*
X114297362Y-118569502D01*
X114106274Y-118490350D01*
X113903416Y-118450000D01*
X113696584Y-118450000D01*
X113493726Y-118490350D01*
X113302638Y-118569502D01*
X113130664Y-118684411D01*
X112984411Y-118830664D01*
X112869502Y-119002638D01*
X112790350Y-119193726D01*
X112750000Y-119396584D01*
X104600000Y-119396584D01*
X104600000Y-114996584D01*
X111950000Y-114996584D01*
X111950000Y-115203416D01*
X111990350Y-115406274D01*
X112069502Y-115597362D01*
X112184411Y-115769336D01*
X112330664Y-115915589D01*
X112502638Y-116030498D01*
X112693726Y-116109650D01*
X112896584Y-116150000D01*
X113103416Y-116150000D01*
X113306274Y-116109650D01*
X113497362Y-116030498D01*
X113669336Y-115915589D01*
X113684925Y-115900000D01*
X117015075Y-115900000D01*
X117030664Y-115915589D01*
X117202638Y-116030498D01*
X117393726Y-116109650D01*
X117596584Y-116150000D01*
X117803416Y-116150000D01*
X118006274Y-116109650D01*
X118197362Y-116030498D01*
X118369336Y-115915589D01*
X118515589Y-115769336D01*
X118630498Y-115597362D01*
X118709650Y-115406274D01*
X118750000Y-115203416D01*
X118750000Y-114996584D01*
X118709650Y-114793726D01*
X118630498Y-114602638D01*
X118515589Y-114430664D01*
X118369336Y-114284411D01*
X118197362Y-114169502D01*
X118006274Y-114090350D01*
X117803416Y-114050000D01*
X117596584Y-114050000D01*
X117393726Y-114090350D01*
X117202638Y-114169502D01*
X117030664Y-114284411D01*
X117015075Y-114300000D01*
X113684925Y-114300000D01*
X113669336Y-114284411D01*
X113497362Y-114169502D01*
X113306274Y-114090350D01*
X113103416Y-114050000D01*
X112896584Y-114050000D01*
X112693726Y-114090350D01*
X112502638Y-114169502D01*
X112330664Y-114284411D01*
X112184411Y-114430664D01*
X112069502Y-114602638D01*
X111990350Y-114793726D01*
X111950000Y-114996584D01*
X104600000Y-114996584D01*
X104600000Y-108700000D01*
X106556994Y-108700000D01*
X106602638Y-108730498D01*
X106793726Y-108809650D01*
X106996584Y-108850000D01*
X107203416Y-108850000D01*
X107406274Y-108809650D01*
X107597362Y-108730498D01*
X107648118Y-108696584D01*
X122250000Y-108696584D01*
X122250000Y-108903416D01*
X122290350Y-109106274D01*
X122369502Y-109297362D01*
X122484411Y-109469336D01*
X122630664Y-109615589D01*
X122802638Y-109730498D01*
X122993726Y-109809650D01*
X123196584Y-109850000D01*
X123403416Y-109850000D01*
X123606274Y-109809650D01*
X123797362Y-109730498D01*
X123969336Y-109615589D01*
X123984925Y-109600000D01*
X124415075Y-109600000D01*
X124430664Y-109615589D01*
X124602638Y-109730498D01*
X124793726Y-109809650D01*
X124996584Y-109850000D01*
X125203416Y-109850000D01*
X125406274Y-109809650D01*
X125597362Y-109730498D01*
X125769336Y-109615589D01*
X125915589Y-109469336D01*
X126030498Y-109297362D01*
X126109650Y-109106274D01*
X126150000Y-108903416D01*
X126150000Y-108696584D01*
X126109650Y-108493726D01*
X126030498Y-108302638D01*
X125915589Y-108130664D01*
X125769336Y-107984411D01*
X125597362Y-107869502D01*
X125406274Y-107790350D01*
X125203416Y-107750000D01*
X124996584Y-107750000D01*
X124793726Y-107790350D01*
X124602638Y-107869502D01*
X124430664Y-107984411D01*
X124415075Y-108000000D01*
X123984925Y-108000000D01*
X123969336Y-107984411D01*
X123797362Y-107869502D01*
X123606274Y-107790350D01*
X123403416Y-107750000D01*
X123196584Y-107750000D01*
X122993726Y-107790350D01*
X122802638Y-107869502D01*
X122630664Y-107984411D01*
X122484411Y-108130664D01*
X122369502Y-108302638D01*
X122290350Y-108493726D01*
X122250000Y-108696584D01*
X107648118Y-108696584D01*
X107769336Y-108615589D01*
X107915589Y-108469336D01*
X108030498Y-108297362D01*
X108109650Y-108106274D01*
X108150000Y-107903416D01*
X108150000Y-107696584D01*
X108109650Y-107493726D01*
X108030498Y-107302638D01*
X107915589Y-107130664D01*
X107769336Y-106984411D01*
X107597362Y-106869502D01*
X107406274Y-106790350D01*
X107203416Y-106750000D01*
X106996584Y-106750000D01*
X106793726Y-106790350D01*
X106602638Y-106869502D01*
X106556994Y-106900000D01*
X104600000Y-106900000D01*
X104600000Y-99372792D01*
X104672792Y-99300000D01*
X110055794Y-99300000D01*
X110100000Y-99304354D01*
X110144206Y-99300000D01*
X110144207Y-99300000D01*
X110276431Y-99286977D01*
X110446081Y-99235514D01*
X110602432Y-99151943D01*
X110739475Y-99039475D01*
X110767658Y-99005134D01*
X111205131Y-98567660D01*
X111239475Y-98539475D01*
X111351943Y-98402432D01*
X111435514Y-98246081D01*
X111486977Y-98076431D01*
X111500000Y-97944207D01*
X111500000Y-97944206D01*
X111504354Y-97900000D01*
X111500000Y-97855793D01*
X111500000Y-96744207D01*
X111504354Y-96700000D01*
X111486977Y-96523569D01*
X111435514Y-96353918D01*
X111351943Y-96197568D01*
X111318508Y-96156827D01*
X111239475Y-96060525D01*
X111205135Y-96032343D01*
X110500000Y-95327208D01*
X110500000Y-93844203D01*
X110504354Y-93799999D01*
X110494744Y-93702431D01*
X110486977Y-93623569D01*
X110435514Y-93453919D01*
X110351943Y-93297568D01*
X110239475Y-93160525D01*
X110205135Y-93132343D01*
X109667657Y-92594865D01*
X109639475Y-92560525D01*
X109502432Y-92448057D01*
X109346081Y-92364486D01*
X109176431Y-92313023D01*
X109044207Y-92300000D01*
X109044206Y-92300000D01*
X109000000Y-92295646D01*
X108955794Y-92300000D01*
X107844196Y-92300000D01*
X107799999Y-92295647D01*
X107755802Y-92300000D01*
X107755793Y-92300000D01*
X107623569Y-92313023D01*
X107453919Y-92364486D01*
X107297568Y-92448057D01*
X107160525Y-92560525D01*
X107132339Y-92594870D01*
X106794866Y-92932342D01*
X106760525Y-92960525D01*
X106648057Y-93097569D01*
X106564486Y-93253920D01*
X106527323Y-93376430D01*
X106513023Y-93423570D01*
X106495646Y-93600000D01*
X106500000Y-93644207D01*
X106500001Y-94400000D01*
X103272792Y-94400000D01*
X103200000Y-94327208D01*
X103200000Y-63672792D01*
X113472792Y-53400000D01*
X124956994Y-53400000D01*
X125002638Y-53430498D01*
X125193726Y-53509650D01*
X125396584Y-53550000D01*
X125603416Y-53550000D01*
X125806274Y-53509650D01*
X125997362Y-53430498D01*
X126169336Y-53315589D01*
X126315589Y-53169336D01*
X126430498Y-52997362D01*
X126509650Y-52806274D01*
X126550000Y-52603416D01*
X126550000Y-52396584D01*
X126509650Y-52193726D01*
X126491538Y-52150000D01*
X129008462Y-52150000D01*
X128990350Y-52193726D01*
M02*
